ChamferedBeveledAngled-Regular.ufo
<glyph name="exclamation" format="2">
  <advance width="274.05"/>
  <unicode hex="0021"/>
  <outline>
    <contour>
      <point x="47.025001525878906" y="239.5833282470703" type="line"/>
      <point x="227.0250015258789" y="239.5833282470703" type="line"/>
      <point x="227.0250015258789" y="800" type="line"/>
      <point x="47.025001525878906" y="800" type="line"/>
    </contour>
    <contour>
      <point x="47.025" y="0" type="line"/>
      <point x="227.025" y="0" type="line"/>
      <point x="227.025" y="180.0" type="line"/>
      <point x="47.025" y="180.0" type="line"/>
    </contour>
  </outline>
</glyph>
<glyph name="numbersign" format="2">
  <advance width="786.55"/>
  <unicode hex="0023"/>
  <outline>
    <contour>
      <point x="158.2711181640625" y="340" type="line"/>
      <point x="47.025001525878906" y="228.7538833618164" type="line"/>
      <point x="47.025001525878906" y="160" type="line"/>
      <point x="189.5250015258789" y="160" type="line"/>
      <point x="189.5250015258789" y="-5" type="line"/>
      <point x="258.2788772583008" y="-5" type="line"/>
      <point x="369.5250015258789" y="106.2461166381836" type="line"/>
      <point x="369.5250015258789" y="160" type="line"/>
      <point x="417.0250015258789" y="160" type="line"/>
      <point x="417.0250015258789" y="-5" type="line"/>
      <point x="485.7788772583008" y="-5" type="line"/>
      <point x="597.0250015258789" y="106.2461166381836" type="line"/>
      <point x="597.0250015258789" y="160" type="line"/>
      <point x="628.2788772583008" y="160" type="line"/>
      <point x="739.5250015258789" y="271.2461166381836" type="line"/>
      <point x="739.5250015258789" y="340" type="line"/>
      <point x="597.0250015258789" y="340" type="line"/>
      <point x="597.0250015258789" y="460" type="line"/>
      <point x="628.2788772583008" y="460" type="line"/>
      <point x="739.5250015258789" y="571.2461166381836" type="line"/>
      <point x="739.5250015258789" y="640" type="line"/>
      <point x="597.0250015258789" y="640" type="line"/>
      <point x="597.0250015258789" y="805" type="line"/>
      <point x="528.2711181640625" y="805" type="line"/>
      <point x="417.0250015258789" y="693.7538833618164" type="line"/>
      <point x="417.0250015258789" y="640" type="line"/>
      <point x="369.5250015258789" y="640" type="line"/>
      <point x="369.5250015258789" y="805" type="line"/>
      <point x="300.7711181640625" y="805" type="line"/>
      <point x="189.5250015258789" y="693.7538833618164" type="line"/>
      <point x="189.5250015258789" y="640" type="line"/>
      <point x="158.2711181640625" y="640" type="line"/>
      <point x="47.025001525878906" y="528.7538833618164" type="line"/>
      <point x="47.025001525878906" y="460" type="line"/>
      <point x="189.5250015258789" y="460" type="line"/>
      <point x="189.5250015258789" y="340" type="line"/>
    </contour>
    <contour>
      <point x="417.0250015258789" y="460" type="line"/>
      <point x="417.0250015258789" y="340" type="line"/>
      <point x="369.5250015258789" y="340" type="line"/>
      <point x="369.5250015258789" y="460" type="line"/>
    </contour>
  </outline>
</glyph>
<glyph name="dollar" format="2">
  <advance width="501.55"/>
  <unicode hex="0024"/>
  <outline>
    <contour>
      <point x="47.025001525878906" y="588.7538833618164" type="line"/>
      <point x="47.025001525878906" y="421.2461166381836" type="line"/>
      <point x="158.2711181640625" y="310" type="line"/>
      <point x="227.0250015258789" y="310" type="line"/>
      <point x="227.0250015258789" y="800" type="line"/>
      <point x="137.0250015258789" y="800" type="line"/>
      <point x="137.0250015258789" y="678.7538833618164" type="line"/>
    </contour>
    <contour>
      <point x="448.9000015258789" y="700" type="line"/>
      <point x="358.9000015258789" y="700" type="line"/>
      <point x="358.9000015258789" y="800" type="line"/>
      <point x="268.9000015258789" y="800" type="line"/>
      <point x="268.9000015258789" y="631.2461166381836" type="line"/>
      <point x="380.1461181640625" y="520" type="line"/>
      <point x="448.9000015258789" y="520" type="line"/>
    </contour>
    <contour>
      <point x="274.5250015258789" y="0" type="line"/>
      <point x="364.5250015258789" y="0" type="line"/>
      <point x="364.5250015258789" y="121.24612426757812" type="line"/>
      <point x="454.5250015258789" y="211.2461166381836" type="line"/>
      <point x="454.5250015258789" y="378.7538833618164" type="line"/>
      <point x="343.2788772583008" y="490" type="line"/>
      <point x="274.5250015258789" y="490" type="line"/>
    </contour>
    <contour>
      <point x="47.025001525878906" y="100" type="line"/>
      <point x="137.0250015258789" y="100" type="line"/>
      <point x="137.0250015258789" y="0" type="line"/>
      <point x="227.0250015258789" y="0" type="line"/>
      <point x="227.0250015258789" y="168.7538833618164" type="line"/>
      <point x="115.77887725830078" y="280" type="line"/>
      <point x="47.025001525878906" y="280" type="line"/>
    </contour>
  </outline>
</glyph>
<glyph name="ampersand" format="2">
  <advance width="681.55"/>
  <unicode hex="0026"/>
  <outline>
    <contour>
      <point x="158.2711181640625" y="400" type="line"/>
      <point x="47.025001525878906" y="288.7538833618164" type="line"/>
      <point x="47.025001525878906" y="106.2461166381836" type="line"/>
      <point x="158.2711181640625" y="-5" type="line"/>
      <point x="227.0250015258789" y="-5" type="line"/>
      <point x="227.0250015258789" y="800" type="line"/>
      <point x="158.2711181640625" y="800" type="line"/>
      <point x="47.025001525878906" y="688.7538833618164" type="line"/>
      <point x="47.025001525878906" y="511.2461166381836" type="line"/>
    </contour>
    <contour>
      <point x="443.275" y="800.0" type="line"/>
      <point x="263.275" y="800.0" type="line"/>
      <point x="263.275" y="731.24612" type="line"/>
      <point x="374.52112" y="620.0" type="line"/>
      <point x="443.275" y="620.0" type="line"/>
    </contour>
    <contour>
      <point x="274.5250015258789" y="388.7538833618164" type="line"/>
      <point x="274.5250015258789" y="-5" type="line"/>
      <point x="343.2788772583008" y="-5" type="line"/>
      <point x="454.5250015258789" y="106.2461166381836" type="line"/>
      <point x="454.5250015258789" y="320" type="line"/>
      <point x="523.2788772583008" y="320" type="line"/>
      <point x="634.5250015258789" y="431.2461166381836" type="line"/>
      <point x="634.5250015258789" y="500" type="line"/>
      <point x="385.7711181640625" y="500" type="line"/>
    </contour>
  </outline>
</glyph>
<glyph name="parenleft" format="2">
  <advance width="274.05"/>
  <unicode hex="0028"/>
  <outline>
    <contour>
      <point x="158.2711181640625" y="-100" type="line"/>
      <point x="227.0250015258789" y="-100" type="line"/>
      <point x="227.0250015258789" y="900" type="line"/>
      <point x="158.2711181640625" y="900" type="line"/>
      <point x="47.025001525878906" y="788.7538833618164" type="line"/>
      <point x="47.025001525878906" y="11.246116638183594" type="line"/>
    </contour>
  </outline>
</glyph>
<glyph name="parenright" format="2">
  <advance width="274.05"/>
  <unicode hex="0029"/>
  <outline>
    <contour>
      <point x="115.77887725830078" y="-100" type="line"/>
      <point x="227.0250015258789" y="11.246116638183594" type="line"/>
      <point x="227.0250015258789" y="788.7538833618164" type="line"/>
      <point x="115.77887725830078" y="900" type="line"/>
      <point x="47.025001525878906" y="900" type="line"/>
      <point x="47.025001525878906" y="-100" type="line"/>
    </contour>
  </outline>
</glyph>
<glyph name="asterisk" format="2">
  <advance width="569.7421938165305"/>
  <unicode hex="002A"/>
  <outline>
    <contour>
      <point x="224.87109375" y="320" type="line"/>
      <point x="344.87109375" y="320" type="line"/>
      <point x="344.87109375" y="456.0769500732422" type="line"/>
      <point x="462.7171936035156" y="388.0384750366211" type="line"/>
      <point x="522.7171936035156" y="491.9615249633789" type="line"/>
      <point x="404.87110137939453" y="560" type="line"/>
      <point x="522.7171936035156" y="628.0384750366211" type="line"/>
      <point x="462.7171936035156" y="731.9615249633789" type="line"/>
      <point x="344.87109375" y="663.9230499267578" type="line"/>
      <point x="344.87109375" y="800" type="line"/>
      <point x="224.87109375" y="800" type="line"/>
      <point x="224.87109375" y="663.9230499267578" type="line"/>
      <point x="107.0250015258789" y="731.9615249633789" type="line"/>
      <point x="47.025001525878906" y="628.0384750366211" type="line"/>
      <point x="164.87109375" y="560" type="line"/>
      <point x="47.025001525878906" y="491.9615249633789" type="line"/>
      <point x="107.0250015258789" y="388.0384750366211" type="line"/>
      <point x="224.87109375" y="456.0769500732422" type="line"/>
    </contour>
  </outline>
</glyph>
<glyph name="plus" format="2">
  <advance width="729.05"/>
  <unicode hex="002B"/>
  <outline>
    <contour>
      <point x="274.5250015258789" y="120" type="line"/>
      <point x="454.5250015258789" y="120" type="line"/>
      <point x="454.5250015258789" y="310" type="line"/>
      <point x="634.5250015258789" y="310" type="line"/>
      <point x="634.5250015258789" y="490" type="line"/>
      <point x="454.5250015258789" y="490" type="line"/>
      <point x="454.5250015258789" y="680" type="line"/>
      <point x="274.5250015258789" y="680" type="line"/>
      <point x="274.5250015258789" y="490" type="line"/>
      <point x="94.5250015258789" y="490" type="line"/>
      <point x="94.5250015258789" y="310" type="line"/>
      <point x="274.5250015258789" y="310" type="line"/>
    </contour>
  </outline>
</glyph>
<glyph name="comma" format="2">
  <advance width="274.05"/>
  <unicode hex="002C"/>
  <outline>
    <contour>
      <point x="115.77887725830078" y="-100" type="line"/>
      <point x="227.0250015258789" y="11.246116638183594" type="line"/>
      <point x="227.0250015258789" y="180" type="line"/>
      <point x="47.025001525878906" y="180" type="line"/>
      <point x="47.025001525878906" y="-100" type="line"/>
    </contour>
  </outline>
</glyph>
<glyph name="one" format="2">
  <advance width="274.05"/>
  <unicode hex="0031"/>
  <outline>
    <contour>
      <point x="47.025001525878906" y="0" type="line"/>
      <point x="227.0250015258789" y="0" type="line"/>
      <point x="227.0250015258789" y="800" type="line"/>
      <point x="158.2711181640625" y="800" type="line"/>
      <point x="47.025001525878906" y="688.7538833618164" type="line"/>
    </contour>
  </outline>
</glyph>
<glyph name="two" format="2">
  <advance width="501.55"/>
  <unicode hex="0032"/>
  <outline>
    <contour>
      <point x="227.025" y="625.0" type="line"/>
      <point x="227.025" y="805.0" type="line"/>
      <point x="158.27112" y="805.0" type="line"/>
      <point x="47.025" y="693.75388" type="line"/>
      <point x="47.025" y="625.0" type="line"/>
    </contour>
    <contour>
      <point x="343.2788772583008" y="228.3333282470703" type="line"/>
      <point x="454.5250015258789" y="339.57945251464844" type="line"/>
      <point x="454.5250015258789" y="693.7538833618164" type="line"/>
      <point x="343.2788772583008" y="805" type="line"/>
      <point x="274.5250015258789" y="805" type="line"/>
      <point x="274.5250015258789" y="228.3333282470703" type="line"/>
    </contour>
    <contour>
      <point x="47.025001525878906" y="68.7538833618164" type="line"/>
      <point x="47.025001525878906" y="0" type="line"/>
      <point x="454.5250015258789" y="0" type="line"/>
      <point x="454.5250015258789" y="180" type="line"/>
      <point x="158.2711181640625" y="180" type="line"/>
    </contour>
  </outline>
</glyph>
<glyph name="four" format="2">
  <advance width="501.55"/>
  <unicode hex="0034"/>
  <outline>
    <contour>
      <point x="115.77887725830078" y="300" type="line"/>
      <point x="227.0250015258789" y="411.2461166381836" type="line"/>
      <point x="227.0250015258789" y="800" type="line"/>
      <point x="47.025001525878906" y="800" type="line"/>
      <point x="47.025001525878906" y="300" type="line"/>
    </contour>
    <contour>
      <point x="274.5250015258789" y="0" type="line"/>
      <point x="454.5250015258789" y="0" type="line"/>
      <point x="454.5250015258789" y="500" type="line"/>
      <point x="274.5250015258789" y="500" type="line"/>
    </contour>
  </outline>
</glyph>
<glyph name="five" format="2">
  <advance width="501.55"/>
  <unicode hex="0035"/>
  <outline>
    <contour>
      <point x="163.8961181640625" y="310" type="line"/>
      <point x="232.6500015258789" y="310" type="line"/>
      <point x="232.6500015258789" y="800" type="line"/>
      <point x="52.650001525878906" y="800" type="line"/>
      <point x="52.650001525878906" y="421.2461166381836" type="line"/>
    </contour>
    <contour>
      <point x="448.9" y="800.0" type="line"/>
      <point x="268.9" y="800.0" type="line"/>
      <point x="268.9" y="731.24612" type="line"/>
      <point x="380.14612" y="620.0" type="line"/>
      <point x="448.9" y="620.0" type="line"/>
    </contour>
    <contour>
      <point x="343.2788772583008" y="-5" type="line"/>
      <point x="454.5250015258789" y="106.2461166381836" type="line"/>
      <point x="454.5250015258789" y="378.7538833618164" type="line"/>
      <point x="343.2788772583008" y="490" type="line"/>
      <point x="274.5250015258789" y="490" type="line"/>
      <point x="274.5250015258789" y="-5" type="line"/>
    </contour>
    <contour>
      <point x="227.025" y="175.0" type="line"/>
      <point x="47.025" y="175.0" type="line"/>
      <point x="47.025" y="106.24612" type="line"/>
      <point x="158.27112" y="-5.0" type="line"/>
      <point x="227.025" y="-5.0" type="line"/>
    </contour>
  </outline>
</glyph>
<glyph name="six" format="2">
  <advance width="501.55"/>
  <unicode hex="0036"/>
  <outline>
    <contour>
      <point x="158.2711181640625" y="-5" type="line"/>
      <point x="227.0250015258789" y="-5" type="line"/>
      <point x="227.0250015258789" y="805" type="line"/>
      <point x="158.2711181640625" y="805" type="line"/>
      <point x="47.025001525878906" y="693.7538833618164" type="line"/>
      <point x="47.025001525878906" y="106.2461166381836" type="line"/>
    </contour>
    <contour>
      <point x="274.525" y="625.0" type="line"/>
      <point x="454.525" y="625.0" type="line"/>
      <point x="454.525" y="693.75388" type="line"/>
      <point x="343.27887999999996" y="805.0" type="line"/>
      <point x="274.525" y="805.0" type="line"/>
    </contour>
    <contour>
      <point x="343.2788772583008" y="-5" type="line"/>
      <point x="454.5250015258789" y="106.2461166381836" type="line"/>
      <point x="454.5250015258789" y="388.7538833618164" type="line"/>
      <point x="343.2788772583008" y="500" type="line"/>
      <point x="274.5250015258789" y="500" type="line"/>
      <point x="274.5250015258789" y="-5" type="line"/>
    </contour>
  </outline>
</glyph>
<glyph name="seven" format="2">
  <advance width="501.55"/>
  <unicode hex="0037"/>
  <outline>
    <contour>
      <point x="47.025001525878906" y="620" type="line"/>
      <point x="343.2788772583008" y="620" type="line"/>
      <point x="454.5250015258789" y="731.2461166381836" type="line"/>
      <point x="454.5250015258789" y="800" type="line"/>
      <point x="47.025001525878906" y="800" type="line"/>
    </contour>
    <contour>
      <point x="274.5250015258789" y="0" type="line"/>
      <point x="454.5250015258789" y="0" type="line"/>
      <point x="454.5250015258789" y="615" type="line"/>
      <point x="385.7711181640625" y="615" type="line"/>
      <point x="274.5250015258789" y="503.7538833618164" type="line"/>
    </contour>
  </outline>
</glyph>
<glyph name="eight" format="2">
  <advance width="501.55"/>
  <unicode hex="0038"/>
  <outline>
    <contour>
      <point x="158.2711181640625" y="400" type="line"/>
      <point x="47.025001525878906" y="288.7538833618164" type="line"/>
      <point x="47.025001525878906" y="106.2461166381836" type="line"/>
      <point x="158.2711181640625" y="-5" type="line"/>
      <point x="227.0250015258789" y="-5" type="line"/>
      <point x="227.0250015258789" y="805" type="line"/>
      <point x="158.2711181640625" y="805" type="line"/>
      <point x="47.025001525878906" y="693.7538833618164" type="line"/>
      <point x="47.025001525878906" y="511.2461166381836" type="line"/>
    </contour>
    <contour>
      <point x="343.2788772583008" y="-5" type="line"/>
      <point x="454.5250015258789" y="106.2461166381836" type="line"/>
      <point x="454.5250015258789" y="288.7538833618164" type="line"/>
      <point x="343.2788772583008" y="400" type="line"/>
      <point x="454.5250015258789" y="511.2461166381836" type="line"/>
      <point x="454.5250015258789" y="693.7538833618164" type="line"/>
      <point x="343.2788772583008" y="805" type="line"/>
      <point x="274.5250015258789" y="805" type="line"/>
      <point x="274.5250015258789" y="-5" type="line"/>
    </contour>
  </outline>
</glyph>
<glyph name="nine" format="2">
  <advance width="501.55"/>
  <unicode hex="0039"/>
  <outline>
    <contour>
      <point x="158.2711181640625" y="300" type="line"/>
      <point x="227.0250015258789" y="300" type="line"/>
      <point x="227.0250015258789" y="805" type="line"/>
      <point x="158.2711181640625" y="805" type="line"/>
      <point x="47.025001525878906" y="693.7538833618164" type="line"/>
      <point x="47.025001525878906" y="411.2461166381836" type="line"/>
    </contour>
    <contour>
      <point x="343.2788772583008" y="-5" type="line"/>
      <point x="454.5250015258789" y="106.2461166381836" type="line"/>
      <point x="454.5250015258789" y="693.7538833618164" type="line"/>
      <point x="343.2788772583008" y="805" type="line"/>
      <point x="274.5250015258789" y="805" type="line"/>
      <point x="274.5250015258789" y="-5" type="line"/>
    </contour>
    <contour>
      <point x="227.025" y="175.0" type="line"/>
      <point x="47.025" y="175.0" type="line"/>
      <point x="47.025" y="106.24612" type="line"/>
      <point x="158.27112" y="-5.0" type="line"/>
      <point x="227.025" y="-5.0" type="line"/>
    </contour>
  </outline>
</glyph>
<glyph name="colon" format="2">
  <advance width="274.05"/>
  <unicode hex="003A"/>
  <outline>
    <contour>
      <point x="47.025" y="420.0" type="line"/>
      <point x="227.025" y="420.0" type="line"/>
      <point x="227.025" y="600.0" type="line"/>
      <point x="47.025" y="600.0" type="line"/>
    </contour>
    <contour>
      <point x="47.025" y="0" type="line"/>
      <point x="227.025" y="0" type="line"/>
      <point x="227.025" y="180.0" type="line"/>
      <point x="47.025" y="180.0" type="line"/>
    </contour>
  </outline>
</glyph>
<glyph name="semicolon" format="2">
  <advance width="274.05"/>
  <unicode hex="003B"/>
  <outline>
    <contour>
      <point x="47.025" y="420.0" type="line"/>
      <point x="227.025" y="420.0" type="line"/>
      <point x="227.025" y="600.0" type="line"/>
      <point x="47.025" y="600.0" type="line"/>
    </contour>
    <contour>
      <point x="115.77887725830078" y="-100" type="line"/>
      <point x="227.0250015258789" y="11.246116638183594" type="line"/>
      <point x="227.0250015258789" y="180" type="line"/>
      <point x="47.025001525878906" y="180" type="line"/>
      <point x="47.025001525878906" y="-100" type="line"/>
    </contour>
  </outline>
</glyph>
<glyph name="equal" format="2">
  <advance width="729.05"/>
  <unicode hex="003D"/>
  <outline>
    <contour>
      <point x="94.5250015258789" y="450" type="line"/>
      <point x="634.5250015258789" y="450" type="line"/>
      <point x="634.5250015258789" y="630" type="line"/>
      <point x="94.5250015258789" y="630" type="line"/>
    </contour>
    <contour>
      <point x="94.5250015258789" y="170" type="line"/>
      <point x="634.5250015258789" y="170" type="line"/>
      <point x="634.5250015258789" y="350" type="line"/>
      <point x="94.5250015258789" y="350" type="line"/>
    </contour>
  </outline>
</glyph>
<glyph name="greater" format="2">
  <advance width="454.05"/>
  <unicode hex="003E"/>
  <outline>
    <contour>
      <point x="227.0250015258789" y="280" type="line"/>
      <point x="158.2711181640625" y="280" type="line"/>
      <point x="47.025001525878906" y="168.7538833618164" type="line"/>
      <point x="47.025001525878906" y="100" type="line"/>
      <point x="295.7788772583008" y="100" type="line"/>
      <point x="407.0250015258789" y="211.2461166381836" type="line"/>
      <point x="407.0250015258789" y="588.7538833618164" type="line"/>
      <point x="295.7788772583008" y="700" type="line"/>
      <point x="47.025001525878906" y="700" type="line"/>
      <point x="47.025001525878906" y="631.2461166381836" type="line"/>
      <point x="158.2711181640625" y="520" type="line"/>
      <point x="227.0250015258789" y="520" type="line"/>
    </contour>
  </outline>
</glyph>
<glyph name="question" format="2">
  <advance width="501.55"/>
  <unicode hex="003F"/>
  <outline>
    <contour>
      <point x="47.025" y="805.0" type="line"/>
      <point x="47.025" y="625.0" type="line"/>
      <point x="115.77887999999999" y="625.0" type="line"/>
      <point x="227.025" y="736.24612" type="line"/>
      <point x="227.025" y="805.0" type="line"/>
    </contour>
    <contour>
      <point x="343.2788772583008" y="405" type="line"/>
      <point x="454.5250015258789" y="516.2461166381836" type="line"/>
      <point x="454.5250015258789" y="693.7538833618164" type="line"/>
      <point x="343.2788772583008" y="805" type="line"/>
      <point x="274.5250015258789" y="805" type="line"/>
      <point x="274.5250015258789" y="405" type="line"/>
    </contour>
    <contour>
      <point x="47.025001525878906" y="239.5833282470703" type="line"/>
      <point x="227.0250015258789" y="239.5833282470703" type="line"/>
      <point x="227.0250015258789" y="575" type="line"/>
      <point x="158.2711181640625" y="575" type="line"/>
      <point x="47.025001525878906" y="463.7538833618164" type="line"/>
    </contour>
    <contour>
      <point x="47.025" y="0" type="line"/>
      <point x="227.025" y="0" type="line"/>
      <point x="227.025" y="180.0" type="line"/>
      <point x="47.025" y="180.0" type="line"/>
    </contour>
  </outline>
</glyph>
<glyph name="at" format="2">
  <advance width="1081.2674399999999"/>
  <unicode hex="0040"/>
  <outline>
    <contour>
      <point x="944.2424399999999" y="567.18021" type="line"/>
      <point x="707.8139299999999" y="803.60872" type="line"/>
      <point x="373.45351000000005" y="803.60872" type="line"/>
      <point x="137.025" y="567.18021" type="line"/>
      <point x="137.025" y="232.81979" type="line"/>
      <point x="373.45351000000005" y="-3.60872" type="line"/>
      <point x="707.8139299999999" y="-3.60872" type="line"/>
      <point x="944.2424399999999" y="232.81979" type="line"/>
    </contour>
    <contour>
      <point x="436.8798370361328" y="200" type="line"/>
      <point x="325.6337203979492" y="311.2461166381836" type="line"/>
      <point x="325.6337203979492" y="488.7538833618164" type="line"/>
      <point x="436.8798370361328" y="600" type="line"/>
      <point x="505.6337203979492" y="600" type="line"/>
      <point x="505.6337203979492" y="200" type="line"/>
    </contour>
    <contour>
      <point x="664.3798370361328" y="200" type="line"/>
      <point x="553.1337203979492" y="311.2461166381836" type="line"/>
      <point x="553.1337203979492" y="600" type="line"/>
      <point x="733.1337203979492" y="600" type="line"/>
      <point x="733.1337203979492" y="200" type="line"/>
    </contour>
  </outline>
</glyph>
<glyph name="F" format="2">
  <advance width="501.55"/>
  <unicode hex="0046"/>
  <outline>
    <contour>
      <point x="47.025001525878906" y="0" type="line"/>
      <point x="227.0250015258789" y="0" type="line"/>
      <point x="227.0250015258789" y="800" type="line"/>
      <point x="47.025001525878906" y="800" type="line"/>
    </contour>
    <contour>
      <point x="454.525" y="800.0" type="line"/>
      <point x="274.525" y="800.0" type="line"/>
      <point x="274.525" y="731.24612" type="line"/>
      <point x="385.77112" y="620.0" type="line"/>
      <point x="454.525" y="620.0" type="line"/>
    </contour>
    <contour>
      <point x="454.525" y="490.0" type="line"/>
      <point x="274.525" y="490.0" type="line"/>
      <point x="274.525" y="421.24612" type="line"/>
      <point x="385.77112" y="310.0" type="line"/>
      <point x="454.525" y="310.0" type="line"/>
    </contour>
  </outline>
</glyph>
<glyph name="H" format="2">
  <advance width="729.05"/>
  <unicode hex="0048"/>
  <outline>
    <contour>
      <point x="47.025001525878906" y="0" type="line"/>
      <point x="227.0250015258789" y="0" type="line"/>
      <point x="227.0250015258789" y="800" type="line"/>
      <point x="47.025001525878906" y="800" type="line"/>
    </contour>
    <contour>
      <point x="502.0250015258789" y="0" type="line"/>
      <point x="682.0250015258789" y="0" type="line"/>
      <point x="682.0250015258789" y="800" type="line"/>
      <point x="502.0250015258789" y="800" type="line"/>
    </contour>
    <contour>
      <point x="454.525" y="490.0" type="line"/>
      <point x="274.525" y="490.0" type="line"/>
      <point x="274.525" y="421.24612" type="line"/>
      <point x="385.77112" y="310.0" type="line"/>
      <point x="454.525" y="310.0" type="line"/>
    </contour>
  </outline>
</glyph>
<glyph name="J" format="2">
  <advance width="501.55"/>
  <unicode hex="004A"/>
  <outline>
    <contour>
      <point x="343.2788772583008" y="-5" type="line"/>
      <point x="454.5250015258789" y="106.2461166381836" type="line"/>
      <point x="454.5250015258789" y="800" type="line"/>
      <point x="274.5250015258789" y="800" type="line"/>
      <point x="274.5250015258789" y="-5" type="line"/>
    </contour>
    <contour>
      <point x="227.025" y="175.0" type="line"/>
      <point x="47.025" y="175.0" type="line"/>
      <point x="47.025" y="106.24612" type="line"/>
      <point x="158.27112" y="-5.0" type="line"/>
      <point x="227.025" y="-5.0" type="line"/>
    </contour>
  </outline>
</glyph>
<glyph name="K" format="2">
  <advance width="501.55"/>
  <unicode hex="004B"/>
  <outline>
    <contour>
      <point x="47.025001525878906" y="0" type="line"/>
      <point x="227.0250015258789" y="0" type="line"/>
      <point x="227.0250015258789" y="800" type="line"/>
      <point x="47.025001525878906" y="800" type="line"/>
    </contour>
    <contour>
      <point x="274.5250015258789" y="0" type="line"/>
      <point x="454.5250015258789" y="0" type="line"/>
      <point x="454.5250015258789" y="288.7538833618164" type="line"/>
      <point x="343.2788772583008" y="400" type="line"/>
      <point x="454.5250015258789" y="511.2461166381836" type="line"/>
      <point x="454.5250015258789" y="800" type="line"/>
      <point x="274.5250015258789" y="800" type="line"/>
    </contour>
  </outline>
</glyph>
<glyph name="L" format="2">
  <advance width="501.55"/>
  <unicode hex="004C"/>
  <outline>
    <contour>
      <point x="47.025001525878906" y="0" type="line"/>
      <point x="227.0250015258789" y="0" type="line"/>
      <point x="227.0250015258789" y="800" type="line"/>
      <point x="47.025001525878906" y="800" type="line"/>
    </contour>
    <contour>
      <point x="454.525" y="0.0" type="line"/>
      <point x="454.525" y="180.0" type="line"/>
      <point x="385.77112" y="180.0" type="line"/>
      <point x="274.525" y="68.75388" type="line"/>
      <point x="274.525" y="0.0" type="line"/>
    </contour>
  </outline>
</glyph>
<glyph name="M" format="2">
  <advance width="729.05"/>
  <unicode hex="004D"/>
  <outline>
    <contour>
      <point x="47.025001525878906" y="0" type="line"/>
      <point x="227.0250015258789" y="0" type="line"/>
      <point x="227.0250015258789" y="800" type="line"/>
      <point x="47.025001525878906" y="800" type="line"/>
    </contour>
    <contour>
      <point x="274.5250015258789" y="0" type="line"/>
      <point x="454.5250015258789" y="0" type="line"/>
      <point x="454.5250015258789" y="800" type="line"/>
      <point x="274.5250015258789" y="800" type="line"/>
    </contour>
    <contour>
      <point x="502.0250015258789" y="0" type="line"/>
      <point x="682.0250015258789" y="0" type="line"/>
      <point x="682.0250015258789" y="688.7538833618164" type="line"/>
      <point x="570.7788772583008" y="800" type="line"/>
      <point x="502.0250015258789" y="800" type="line"/>
    </contour>
  </outline>
</glyph>
<glyph name="Q" format="2">
  <advance width="501.55"/>
  <unicode hex="0051"/>
  <outline>
    <contour>
      <point x="158.2711181640625" y="-5" type="line"/>
      <point x="227.0250015258789" y="-5" type="line"/>
      <point x="227.0250015258789" y="805" type="line"/>
      <point x="158.2711181640625" y="805" type="line"/>
      <point x="47.025001525878906" y="693.7538833618164" type="line"/>
      <point x="47.025001525878906" y="106.2461166381836" type="line"/>
    </contour>
    <contour>
      <point x="454.5250015258789" y="0" type="line"/>
      <point x="348.2788772583008" y="0" type="line"/>
      <point x="454.5250015258789" y="106.2461166381836" type="line"/>
      <point x="454.5250015258789" y="693.7538833618164" type="line"/>
      <point x="343.2788772583008" y="805" type="line"/>
      <point x="274.5250015258789" y="805" type="line"/>
      <point x="274.5250015258789" y="-68.7538833618164" type="line"/>
      <point x="385.7711181640625" y="-180" type="line"/>
      <point x="454.5250015258789" y="-180" type="line"/>
    </contour>
  </outline>
</glyph>
<glyph name="T" format="2">
  <advance width="729.05"/>
  <unicode hex="0054"/>
  <outline>
    <contour>
      <point x="47.025" y="800.0" type="line"/>
      <point x="47.025" y="620.0" type="line"/>
      <point x="115.77887999999999" y="620.0" type="line"/>
      <point x="227.025" y="731.24612" type="line"/>
      <point x="227.025" y="800.0" type="line"/>
    </contour>
    <contour>
      <point x="274.5250015258789" y="0" type="line"/>
      <point x="454.5250015258789" y="0" type="line"/>
      <point x="454.5250015258789" y="800" type="line"/>
      <point x="274.5250015258789" y="800" type="line"/>
    </contour>
    <contour>
      <point x="682.025" y="800.0" type="line"/>
      <point x="502.025" y="800.0" type="line"/>
      <point x="502.025" y="731.24612" type="line"/>
      <point x="613.27112" y="620.0" type="line"/>
      <point x="682.025" y="620.0" type="line"/>
    </contour>
  </outline>
</glyph>
<glyph name="V" format="2">
  <advance width="501.55"/>
  <unicode hex="0056"/>
  <outline>
    <contour>
      <point x="158.2711181640625" y="-5" type="line"/>
      <point x="227.0250015258789" y="-5" type="line"/>
      <point x="227.0250015258789" y="688.7538833618164" type="line"/>
      <point x="115.77887725830078" y="800" type="line"/>
      <point x="47.025001525878906" y="800" type="line"/>
      <point x="47.025001525878906" y="106.2461166381836" type="line"/>
    </contour>
    <contour>
      <point x="343.2788772583008" y="-5" type="line"/>
      <point x="454.5250015258789" y="106.2461166381836" type="line"/>
      <point x="454.5250015258789" y="800" type="line"/>
      <point x="274.5250015258789" y="800" type="line"/>
      <point x="274.5250015258789" y="-5" type="line"/>
    </contour>
  </outline>
</glyph>
<glyph name="Z" format="2">
  <advance width="501.55"/>
  <unicode hex="005A"/>
  <outline>
    <contour>
      <point x="47.025" y="800.0" type="line"/>
      <point x="47.025" y="620.0" type="line"/>
      <point x="115.77887999999999" y="620.0" type="line"/>
      <point x="227.025" y="731.24612" type="line"/>
      <point x="227.025" y="800.0" type="line"/>
    </contour>
    <contour>
      <point x="343.2788772583008" y="310" type="line"/>
      <point x="454.5250015258789" y="421.2461166381836" type="line"/>
      <point x="454.5250015258789" y="800" type="line"/>
      <point x="274.5250015258789" y="800" type="line"/>
      <point x="274.5250015258789" y="310" type="line"/>
    </contour>
    <contour>
      <point x="47.025001525878906" y="0" type="line"/>
      <point x="227.0250015258789" y="0" type="line"/>
      <point x="227.0250015258789" y="490" type="line"/>
      <point x="158.2711181640625" y="490" type="line"/>
      <point x="47.025001525878906" y="378.7538833618164" type="line"/>
    </contour>
    <contour>
      <point x="454.525" y="0.0" type="line"/>
      <point x="454.525" y="180.0" type="line"/>
      <point x="385.77112" y="180.0" type="line"/>
      <point x="274.525" y="68.75388" type="line"/>
      <point x="274.525" y="0.0" type="line"/>
    </contour>
  </outline>
</glyph>
<glyph name="bracketleft" format="2">
  <advance width="454.05"/>
  <unicode hex="005B"/>
  <outline>
    <contour>
      <point x="47.025001525878906" y="-100" type="line"/>
      <point x="407.0250015258789" y="-100" type="line"/>
      <point x="407.0250015258789" y="-31.246116638183594" type="line"/>
      <point x="295.7788772583008" y="80" type="line"/>
      <point x="227.0250015258789" y="80" type="line"/>
      <point x="227.0250015258789" y="720" type="line"/>
      <point x="295.7788772583008" y="720" type="line"/>
      <point x="407.0250015258789" y="831.2461166381836" type="line"/>
      <point x="407.0250015258789" y="900" type="line"/>
      <point x="47.025001525878906" y="900" type="line"/>
    </contour>
  </outline>
</glyph>
<glyph name="backslash" format="2">
  <advance width="513.3191659323846"/>
  <unicode hex="005C"/>
  <outline>
    <contour>
      <point x="247.71453857421875" y="67.70497131347656" type="line"/>
      <point x="264.5415954589844" y="1.0420379638671875" type="line"/>
      <point x="399.63123321533203" y="-79.59410095214844" type="line"/>
      <point x="466.2941665649414" y="-62.767051696777344" type="line"/>
      <point x="422.24036407470703" y="111.75877380371094" type="line"/>
      <point x="417.34549713134766" y="131.15052795410156" type="line"/>
      <point x="319.44815826416016" y="518.9856872558594" type="line"/>
      <point x="270.4994888305664" y="712.9032745361328" type="line"/>
      <point x="265.60462188720703" y="732.2950286865234" type="line"/>
      <point x="248.77757263183594" y="798.9579620361328" type="line"/>
      <point x="113.68792724609375" y="879.5941009521484" type="line"/>
      <point x="47.025001525878906" y="862.7670516967773" type="line"/>
      <point x="91.07880401611328" y="688.2412261962891" type="line"/>
      <point x="95.97367095947266" y="668.8494720458984" type="line"/>
      <point x="193.87100982666016" y="281.0143127441406" type="line"/>
      <point x="242.81967163085938" y="87.09672546386719" type="line"/>
    </contour>
  </outline>
</glyph>
<glyph name="bracketright" format="2">
  <advance width="454.05"/>
  <unicode hex="005D"/>
  <outline>
    <contour>
      <point x="47.025001525878906" y="831.2461166381836" type="line"/>
      <point x="158.2711181640625" y="720" type="line"/>
      <point x="227.0250015258789" y="720" type="line"/>
      <point x="227.0250015258789" y="80" type="line"/>
      <point x="158.2711181640625" y="80" type="line"/>
      <point x="47.025001525878906" y="-31.246116638183594" type="line"/>
      <point x="47.025001525878906" y="-100" type="line"/>
      <point x="407.0250015258789" y="-100" type="line"/>
      <point x="407.0250015258789" y="900" type="line"/>
      <point x="47.025001525878906" y="900" type="line"/>
    </contour>
  </outline>
</glyph>
<glyph name="asciicircum" format="2">
  <advance width="454.05"/>
  <unicode hex="005E"/>
  <outline>
    <contour>
      <point x="47.025001525878906" y="880" type="line"/>
      <point x="47.025001525878906" y="700" type="line"/>
      <point x="115.77887725830078" y="700" type="line"/>
      <point x="227.0250015258789" y="811.2461166381836" type="line"/>
      <point x="338.2711181640625" y="700" type="line"/>
      <point x="407.0250015258789" y="700" type="line"/>
      <point x="407.0250015258789" y="880" type="line"/>
    </contour>
  </outline>
</glyph>
<glyph name="underscore" format="2">
  <advance width="501.55"/>
  <unicode hex="005F"/>
  <outline>
    <contour>
      <point x="47.025001525878906" y="-190" type="line"/>
      <point x="454.5250015258789" y="-190" type="line"/>
      <point x="454.5250015258789" y="-10" type="line"/>
      <point x="47.025001525878906" y="-10" type="line"/>
    </contour>
  </outline>
</glyph>
<glyph name="grave" format="2">
  <advance width="274.05"/>
  <unicode hex="0060"/>
  <outline>
    <contour>
      <point x="148.275" y="980.0" type="line"/>
      <point x="-31.725" y="980.0" type="line"/>
      <point x="-31.725" y="911.24612" type="line"/>
      <point x="79.52112" y="800.0" type="line"/>
      <point x="148.275" y="800.0" type="line"/>
    </contour>
  </outline>
</glyph>
<glyph name="b" format="2">
  <advance width="501.55"/>
  <unicode hex="0062"/>
  <outline>
    <contour>
      <point x="47.025001525878906" y="0" type="line"/>
      <point x="227.0250015258789" y="0" type="line"/>
      <point x="227.0250015258789" y="800" type="line"/>
      <point x="47.025001525878906" y="800" type="line"/>
    </contour>
    <contour>
      <point x="343.2788772583008" y="0" type="line"/>
      <point x="454.5250015258789" y="111.2461166381836" type="line"/>
      <point x="454.5250015258789" y="493.7538833618164" type="line"/>
      <point x="343.2788772583008" y="605" type="line"/>
      <point x="274.5250015258789" y="605" type="line"/>
      <point x="274.5250015258789" y="0" type="line"/>
    </contour>
  </outline>
</glyph>
<glyph name="c" format="2">
  <advance width="501.55"/>
  <unicode hex="0063"/>
  <outline>
    <contour>
      <point x="158.2711181640625" y="0" type="line"/>
      <point x="227.0250015258789" y="0" type="line"/>
      <point x="227.0250015258789" y="600" type="line"/>
      <point x="158.2711181640625" y="600" type="line"/>
      <point x="47.025001525878906" y="488.7538833618164" type="line"/>
      <point x="47.025001525878906" y="111.2461166381836" type="line"/>
    </contour>
    <contour>
      <point x="454.525" y="600.0" type="line"/>
      <point x="274.525" y="600.0" type="line"/>
      <point x="274.525" y="531.24612" type="line"/>
      <point x="385.77112" y="420.0" type="line"/>
      <point x="454.525" y="420.0" type="line"/>
    </contour>
    <contour>
      <point x="451.7125" y="0.0" type="line"/>
      <point x="451.7125" y="180.0" type="line"/>
      <point x="382.95862" y="180.0" type="line"/>
      <point x="271.7125" y="68.75388" type="line"/>
      <point x="271.7125" y="0.0" type="line"/>
    </contour>
  </outline>
</glyph>
<glyph name="f" format="2">
  <advance width="501.55"/>
  <unicode hex="0066"/>
  <outline>
    <contour>
      <point x="47.025001525878906" y="0" type="line"/>
      <point x="227.0250015258789" y="0" type="line"/>
      <point x="227.0250015258789" y="800" type="line"/>
      <point x="158.2711181640625" y="800" type="line"/>
      <point x="47.025001525878906" y="688.7538833618164" type="line"/>
    </contour>
    <contour>
      <point x="454.525" y="800.0" type="line"/>
      <point x="274.525" y="800.0" type="line"/>
      <point x="274.525" y="731.24612" type="line"/>
      <point x="385.77112" y="620.0" type="line"/>
      <point x="454.525" y="620.0" type="line"/>
    </contour>
    <contour>
      <point x="454.525" y="587.5" type="line"/>
      <point x="274.525" y="587.5" type="line"/>
      <point x="274.525" y="518.74612" type="line"/>
      <point x="385.77112" y="407.5" type="line"/>
      <point x="454.525" y="407.5" type="line"/>
    </contour>
  </outline>
</glyph>
<glyph name="i" format="2">
  <advance width="274.05"/>
  <unicode hex="0069"/>
  <outline>
    <contour>
      <point x="47.025" y="636.11111" type="line"/>
      <point x="227.025" y="636.11111" type="line"/>
      <point x="227.025" y="816.11111" type="line"/>
      <point x="47.025" y="816.11111" type="line"/>
    </contour>
    <contour>
      <point x="47.025001525878906" y="0" type="line"/>
      <point x="227.0250015258789" y="0" type="line"/>
      <point x="227.0250015258789" y="600" type="line"/>
      <point x="47.025001525878906" y="600" type="line"/>
    </contour>
  </outline>
</glyph>
<glyph name="j" format="2">
  <advance width="501.55"/>
  <unicode hex="006A"/>
  <outline>
    <contour>
      <point x="274.525" y="636.11111" type="line"/>
      <point x="454.525" y="636.11111" type="line"/>
      <point x="454.525" y="816.11111" type="line"/>
      <point x="274.525" y="816.11111" type="line"/>
    </contour>
    <contour>
      <point x="343.2788772583008" y="-210" type="line"/>
      <point x="454.5250015258789" y="-98.7538833618164" type="line"/>
      <point x="454.5250015258789" y="600" type="line"/>
      <point x="274.5250015258789" y="600" type="line"/>
      <point x="274.5250015258789" y="-210" type="line"/>
    </contour>
    <contour>
      <point x="227.025" y="-30.0" type="line"/>
      <point x="47.025" y="-30.0" type="line"/>
      <point x="47.025" y="-98.75388" type="line"/>
      <point x="158.27112" y="-210.0" type="line"/>
      <point x="227.025" y="-210.0" type="line"/>
    </contour>
  </outline>
</glyph>
<glyph name="m" format="2">
  <advance width="729.05"/>
  <unicode hex="006D"/>
  <outline>
    <contour>
      <point x="47.025001525878906" y="0" type="line"/>
      <point x="227.0250015258789" y="0" type="line"/>
      <point x="227.0250015258789" y="600" type="line"/>
      <point x="47.025001525878906" y="600" type="line"/>
    </contour>
    <contour>
      <point x="274.5250015258789" y="0" type="line"/>
      <point x="454.5250015258789" y="0" type="line"/>
      <point x="454.5250015258789" y="600" type="line"/>
      <point x="274.5250015258789" y="600" type="line"/>
    </contour>
    <contour>
      <point x="502.0250015258789" y="0" type="line"/>
      <point x="682.0250015258789" y="0" type="line"/>
      <point x="682.0250015258789" y="488.7538833618164" type="line"/>
      <point x="570.7788772583008" y="600" type="line"/>
      <point x="502.0250015258789" y="600" type="line"/>
    </contour>
  </outline>
</glyph>
<glyph name="p" format="2">
  <advance width="501.55"/>
  <unicode hex="0070"/>
  <outline>
    <contour>
      <point x="47.025001525878906" y="-200" type="line"/>
      <point x="227.0250015258789" y="-200" type="line"/>
      <point x="227.0250015258789" y="600" type="line"/>
      <point x="47.025001525878906" y="600" type="line"/>
    </contour>
    <contour>
      <point x="343.2788772583008" y="0" type="line"/>
      <point x="454.5250015258789" y="111.2461166381836" type="line"/>
      <point x="454.5250015258789" y="488.7538833618164" type="line"/>
      <point x="343.2788772583008" y="600" type="line"/>
      <point x="274.5250015258789" y="600" type="line"/>
      <point x="274.5250015258789" y="0" type="line"/>
    </contour>
  </outline>
</glyph>
<glyph name="t" format="2">
  <advance width="501.55"/>
  <unicode hex="0074"/>
  <outline>
    <contour>
      <point x="47.025001525878906" y="0" type="line"/>
      <point x="227.0250015258789" y="0" type="line"/>
      <point x="227.0250015258789" y="800" type="line"/>
      <point x="158.2711181640625" y="800" type="line"/>
      <point x="47.025001525878906" y="688.7538833618164" type="line"/>
    </contour>
    <contour>
      <point x="274.525" y="600.0" type="line"/>
      <point x="274.525" y="420.0" type="line"/>
      <point x="343.27887999999996" y="420.0" type="line"/>
      <point x="454.525" y="531.24612" type="line"/>
      <point x="454.525" y="600.0" type="line"/>
    </contour>
  </outline>
</glyph>
<glyph name="z" format="2">
  <advance width="501.55"/>
  <unicode hex="007A"/>
  <outline>
    <contour>
      <point x="47.025" y="600.0" type="line"/>
      <point x="47.025" y="420.0" type="line"/>
      <point x="115.77887999999999" y="420.0" type="line"/>
      <point x="227.025" y="531.24612" type="line"/>
      <point x="227.025" y="600.0" type="line"/>
    </contour>
    <contour>
      <point x="343.2788772583008" y="210" type="line"/>
      <point x="454.5250015258789" y="321.2461166381836" type="line"/>
      <point x="454.5250015258789" y="600" type="line"/>
      <point x="274.5250015258789" y="600" type="line"/>
      <point x="274.5250015258789" y="210" type="line"/>
    </contour>
    <contour>
      <point x="47.025001525878906" y="0" type="line"/>
      <point x="227.0250015258789" y="0" type="line"/>
      <point x="227.0250015258789" y="390" type="line"/>
      <point x="158.2711181640625" y="390" type="line"/>
      <point x="47.025001525878906" y="278.7538833618164" type="line"/>
    </contour>
    <contour>
      <point x="454.525" y="0.0" type="line"/>
      <point x="454.525" y="180.0" type="line"/>
      <point x="385.77112" y="180.0" type="line"/>
      <point x="274.525" y="68.75388" type="line"/>
      <point x="274.525" y="0.0" type="line"/>
    </contour>
  </outline>
</glyph>
<glyph name="braceleft" format="2">
  <advance width="274.05"/>
  <unicode hex="007B"/>
  <outline>
    <contour>
      <point x="158.2711181640625" y="-100" type="line"/>
      <point x="227.0250015258789" y="-100" type="line"/>
      <point x="227.0250015258789" y="288.7538833618164" type="line"/>
      <point x="115.77887725830078" y="400" type="line"/>
      <point x="227.0250015258789" y="511.2461166381836" type="line"/>
      <point x="227.0250015258789" y="900" type="line"/>
      <point x="158.2711181640625" y="900" type="line"/>
      <point x="47.025001525878906" y="788.7538833618164" type="line"/>
      <point x="47.025001525878906" y="11.246116638183594" type="line"/>
    </contour>
  </outline>
</glyph>
<glyph name="bar" format="2">
  <advance width="274.05"/>
  <unicode hex="007C"/>
  <outline>
    <contour>
      <point x="47.025001525878906" y="-100" type="line"/>
      <point x="227.0250015258789" y="-100" type="line"/>
      <point x="227.0250015258789" y="900" type="line"/>
      <point x="47.025001525878906" y="900" type="line"/>
    </contour>
  </outline>
</glyph>
<glyph name="tilde" format="2">
  <advance width="501.55"/>
  <unicode hex="007E"/>
  <outline>
    <contour>
      <point x="47.025001525878906" y="378.7538833618164" type="line"/>
      <point x="47.025001525878906" y="310" type="line"/>
      <point x="343.2788772583008" y="310" type="line"/>
      <point x="454.5250015258789" y="421.2461166381836" type="line"/>
      <point x="454.5250015258789" y="490" type="line"/>
      <point x="158.2711181640625" y="490" type="line"/>
    </contour>
  </outline>
</glyph>
<glyph name="invexclamation" format="2">
  <advance width="274.05"/>
  <unicode hex="00A1"/>
  <outline>
    <contour>
      <point x="47.025" y="420.0" type="line"/>
      <point x="227.025" y="420.0" type="line"/>
      <point x="227.025" y="600.0" type="line"/>
      <point x="47.025" y="600.0" type="line"/>
    </contour>
    <contour>
      <point x="47.025001525878906" y="-200" type="line"/>
      <point x="227.0250015258789" y="-200" type="line"/>
      <point x="227.0250015258789" y="360.4166717529297" type="line"/>
      <point x="47.025001525878906" y="360.4166717529297" type="line"/>
    </contour>
  </outline>
</glyph>
<glyph name="cent" format="2">
  <advance width="501.55"/>
  <unicode hex="00A2"/>
  <outline>
    <contour>
      <point x="137.0250015258789" y="0" type="line"/>
      <point x="227.0250015258789" y="0" type="line"/>
      <point x="227.0250015258789" y="600" type="line"/>
      <point x="137.0250015258789" y="600" type="line"/>
      <point x="137.0250015258789" y="483.7538833618164" type="line"/>
      <point x="47.025001525878906" y="393.7538833618164" type="line"/>
      <point x="47.025001525878906" y="206.2461166381836" type="line"/>
      <point x="137.0250015258789" y="116.2461166381836" type="line"/>
    </contour>
    <contour>
      <point x="454.5250015258789" y="510" type="line"/>
      <point x="364.5250015258789" y="510" type="line"/>
      <point x="364.5250015258789" y="600" type="line"/>
      <point x="274.5250015258789" y="600" type="line"/>
      <point x="274.5250015258789" y="441.2461166381836" type="line"/>
      <point x="385.7711181640625" y="330" type="line"/>
      <point x="454.5250015258789" y="330" type="line"/>
    </contour>
    <contour>
      <point x="274.5250015258789" y="0" type="line"/>
      <point x="364.5250015258789" y="0" type="line"/>
      <point x="364.5250015258789" y="90" type="line"/>
      <point x="454.5250015258789" y="90" type="line"/>
      <point x="454.5250015258789" y="270" type="line"/>
      <point x="385.7711181640625" y="270" type="line"/>
      <point x="274.5250015258789" y="158.7538833618164" type="line"/>
    </contour>
  </outline>
</glyph>
<glyph name="pound" format="2">
  <advance width="644.05"/>
  <unicode hex="00A3"/>
  <outline>
    <contour>
      <point x="184.5250015258789" y="0" type="line"/>
      <point x="364.5250015258789" y="0" type="line"/>
      <point x="364.5250015258789" y="805" type="line"/>
      <point x="295.7711181640625" y="805" type="line"/>
      <point x="184.5250015258789" y="693.7538833618164" type="line"/>
    </contour>
    <contour>
      <point x="597.025" y="746.28677" type="line"/>
      <point x="538.31177" y="805.0" type="line"/>
      <point x="465.73823" y="805.0" type="line"/>
      <point x="407.025" y="746.28677" type="line"/>
      <point x="407.025" y="673.71323" type="line"/>
      <point x="465.73823" y="615.0" type="line"/>
      <point x="538.31177" y="615.0" type="line"/>
      <point x="597.025" y="673.71323" type="line"/>
    </contour>
    <contour>
      <point x="47.025" y="355.0" type="line"/>
      <point x="137.025" y="355.0" type="line"/>
      <point x="137.025" y="445.0" type="line"/>
      <point x="47.025" y="445.0" type="line"/>
    </contour>
    <contour>
      <point x="412.0250015258789" y="355" type="line"/>
      <point x="547.0250015258789" y="355" type="line"/>
      <point x="547.0250015258789" y="445" type="line"/>
      <point x="412.0250015258789" y="445" type="line"/>
    </contour>
    <contour>
      <point x="592.025" y="0.0" type="line"/>
      <point x="592.025" y="180.0" type="line"/>
      <point x="523.27112" y="180.0" type="line"/>
      <point x="412.025" y="68.75388" type="line"/>
      <point x="412.025" y="0.0" type="line"/>
    </contour>
    <contour>
      <point x="47.025" y="0" type="line"/>
      <point x="137.025" y="0" type="line"/>
      <point x="137.025" y="90.0" type="line"/>
      <point x="47.025" y="90.0" type="line"/>
    </contour>
  </outline>
</glyph>
<glyph name="currency" format="2">
  <advance width="501.55"/>
  <unicode hex="00A4"/>
  <outline>
    <contour>
      <point x="47.025001525878906" y="205" type="line"/>
      <point x="137.0250015258789" y="205" type="line"/>
      <point x="137.0250015258789" y="231.2461166381836" type="line"/>
      <point x="158.2711181640625" y="210" type="line"/>
      <point x="227.0250015258789" y="210" type="line"/>
      <point x="227.0250015258789" y="590" type="line"/>
      <point x="158.2711181640625" y="590" type="line"/>
      <point x="137.0250015258789" y="568.7538833618164" type="line"/>
      <point x="137.0250015258789" y="595" type="line"/>
      <point x="47.025001525878906" y="595" type="line"/>
      <point x="47.025001525878906" y="505" type="line"/>
      <point x="73.2711181640625" y="505" type="line"/>
      <point x="47.025001525878906" y="478.7538833618164" type="line"/>
      <point x="47.025001525878906" y="321.2461166381836" type="line"/>
      <point x="73.2711181640625" y="295" type="line"/>
      <point x="47.025001525878906" y="295" type="line"/>
    </contour>
    <contour>
      <point x="364.5250015258789" y="205" type="line"/>
      <point x="454.5250015258789" y="205" type="line"/>
      <point x="454.5250015258789" y="295" type="line"/>
      <point x="428.2788848876953" y="295" type="line"/>
      <point x="454.5250015258789" y="321.2461166381836" type="line"/>
      <point x="454.5250015258789" y="478.7538833618164" type="line"/>
      <point x="428.2788848876953" y="505" type="line"/>
      <point x="454.5250015258789" y="505" type="line"/>
      <point x="454.5250015258789" y="595" type="line"/>
      <point x="364.5250015258789" y="595" type="line"/>
      <point x="364.5250015258789" y="568.7538757324219" type="line"/>
      <point x="343.2788772583008" y="590" type="line"/>
      <point x="274.5250015258789" y="590" type="line"/>
      <point x="274.5250015258789" y="210" type="line"/>
      <point x="343.2788772583008" y="210" type="line"/>
      <point x="364.5250015258789" y="231.24612426757812" type="line"/>
    </contour>
  </outline>
</glyph>
<glyph name="yen" format="2">
  <advance width="776.55"/>
  <unicode hex="00A5"/>
  <outline>
    <contour>
      <point x="295.7711181640625" y="200" type="line"/>
      <point x="364.5250015258789" y="200" type="line"/>
      <point x="364.5250015258789" y="693.7538833618164" type="line"/>
      <point x="253.27887725830078" y="805" type="line"/>
      <point x="184.5250015258789" y="805" type="line"/>
      <point x="184.5250015258789" y="311.2461166381836" type="line"/>
    </contour>
    <contour>
      <point x="480.7788772583008" y="-5" type="line"/>
      <point x="592.0250015258789" y="106.2461166381836" type="line"/>
      <point x="592.0250015258789" y="800" type="line"/>
      <point x="412.0250015258789" y="800" type="line"/>
      <point x="412.0250015258789" y="-5" type="line"/>
    </contour>
    <contour>
      <point x="47.025" y="530.0" type="line"/>
      <point x="137.025" y="530.0" type="line"/>
      <point x="137.025" y="620.0" type="line"/>
      <point x="47.025" y="620.0" type="line"/>
    </contour>
    <contour>
      <point x="639.525" y="530.0" type="line"/>
      <point x="729.525" y="530.0" type="line"/>
      <point x="729.525" y="620.0" type="line"/>
      <point x="639.525" y="620.0" type="line"/>
    </contour>
    <contour>
      <point x="47.025" y="380.0" type="line"/>
      <point x="137.025" y="380.0" type="line"/>
      <point x="137.025" y="470.0" type="line"/>
      <point x="47.025" y="470.0" type="line"/>
    </contour>
    <contour>
      <point x="639.525" y="380.0" type="line"/>
      <point x="729.525" y="380.0" type="line"/>
      <point x="729.525" y="470.0" type="line"/>
      <point x="639.525" y="470.0" type="line"/>
    </contour>
  </outline>
</glyph>
<glyph name="brokenbar" format="2">
  <advance width="274.05"/>
  <unicode hex="00A6"/>
  <outline>
    <contour>
      <point x="47.025001525878906" y="500" type="line"/>
      <point x="227.0250015258789" y="500" type="line"/>
      <point x="227.0250015258789" y="900" type="line"/>
      <point x="47.025001525878906" y="900" type="line"/>
    </contour>
    <contour>
      <point x="47.025001525878906" y="-100" type="line"/>
      <point x="227.0250015258789" y="-100" type="line"/>
      <point x="227.0250015258789" y="300" type="line"/>
      <point x="47.025001525878906" y="300" type="line"/>
    </contour>
  </outline>
</glyph>
<glyph name="section" format="2">
  <advance width="501.55"/>
  <unicode hex="00A7"/>
  <outline>
    <contour>
      <point x="47.025001525878906" y="388.7538833618164" type="line"/>
      <point x="47.025001525878906" y="211.2461166381836" type="line"/>
      <point x="158.2711181640625" y="100" type="line"/>
      <point x="227.0250015258789" y="100" type="line"/>
      <point x="227.0250015258789" y="800" type="line"/>
      <point x="158.2711181640625" y="800" type="line"/>
      <point x="47.025001525878906" y="688.7538833618164" type="line"/>
      <point x="47.025001525878906" y="521.2461166381836" type="line"/>
      <point x="113.2711181640625" y="455" type="line"/>
    </contour>
    <contour>
      <point x="454.525" y="800.0" type="line"/>
      <point x="274.525" y="800.0" type="line"/>
      <point x="274.525" y="731.24612" type="line"/>
      <point x="385.77112" y="620.0" type="line"/>
      <point x="454.525" y="620.0" type="line"/>
    </contour>
    <contour>
      <point x="343.2788772583008" y="-200" type="line"/>
      <point x="454.5250015258789" y="-88.7538833618164" type="line"/>
      <point x="454.5250015258789" y="78.7538833618164" type="line"/>
      <point x="388.2788772583008" y="145" type="line"/>
      <point x="454.5250015258789" y="211.2461166381836" type="line"/>
      <point x="454.5250015258789" y="388.7538833618164" type="line"/>
      <point x="343.2788772583008" y="500" type="line"/>
      <point x="274.5250015258789" y="500" type="line"/>
      <point x="274.5250015258789" y="-200" type="line"/>
    </contour>
    <contour>
      <point x="47.025" y="-200" type="line"/>
      <point x="227.025" y="-200" type="line"/>
      <point x="227.025" y="-131.24612" type="line"/>
      <point x="115.77887999999999" y="-20.0" type="line"/>
      <point x="47.025" y="-20.0" type="line"/>
    </contour>
  </outline>
</glyph>
<glyph name="diaeresis" format="2">
  <advance width="501.55"/>
  <unicode hex="00A8"/>
  <outline>
    <contour>
      <point x="47.025" y="820.0" type="line"/>
      <point x="227.025" y="820.0" type="line"/>
      <point x="227.025" y="1000.0" type="line"/>
      <point x="47.025" y="1000.0" type="line"/>
    </contour>
    <contour>
      <point x="274.525" y="820.0" type="line"/>
      <point x="454.525" y="820.0" type="line"/>
      <point x="454.525" y="1000.0" type="line"/>
      <point x="274.525" y="1000.0" type="line"/>
    </contour>
  </outline>
</glyph>
<glyph name="copyright" format="2">
  <advance width="1081.2674399999999"/>
  <unicode hex="00A9"/>
  <outline>
    <contour>
      <point x="944.2424399999999" y="567.18021" type="line"/>
      <point x="707.8139299999999" y="803.60872" type="line"/>
      <point x="373.45351000000005" y="803.60872" type="line"/>
      <point x="137.025" y="567.18021" type="line"/>
      <point x="137.025" y="232.81979" type="line"/>
      <point x="373.45351000000005" y="-3.60872" type="line"/>
      <point x="707.8139299999999" y="-3.60872" type="line"/>
      <point x="944.2424399999999" y="232.81979" type="line"/>
    </contour>
    <contour>
      <point x="436.8798370361328" y="190" type="line"/>
      <point x="325.6337203979492" y="301.2461166381836" type="line"/>
      <point x="325.6337203979492" y="498.7538833618164" type="line"/>
      <point x="436.8798370361328" y="610" type="line"/>
      <point x="505.6337203979492" y="610" type="line"/>
      <point x="505.6337203979492" y="190" type="line"/>
    </contour>
    <contour>
      <point x="733.1337199999999" y="610.0" type="line"/>
      <point x="733.1337199999999" y="430.0" type="line"/>
      <point x="664.37984" y="430.0" type="line"/>
      <point x="553.13372" y="541.24612" type="line"/>
      <point x="553.13372" y="610.0" type="line"/>
    </contour>
    <contour>
      <point x="733.1337199999999" y="190.0" type="line"/>
      <point x="553.13372" y="190.0" type="line"/>
      <point x="553.13372" y="258.75388" type="line"/>
      <point x="664.37984" y="370.0" type="line"/>
      <point x="733.1337199999999" y="370.0" type="line"/>
    </contour>
  </outline>
</glyph>
<glyph name="registered" format="2">
  <advance width="1081.2674399999999"/>
  <unicode hex="00AE"/>
  <outline>
    <contour>
      <point x="944.2424399999999" y="567.18021" type="line"/>
      <point x="707.8139299999999" y="803.60872" type="line"/>
      <point x="373.45351000000005" y="803.60872" type="line"/>
      <point x="137.025" y="567.18021" type="line"/>
      <point x="137.025" y="232.81979" type="line"/>
      <point x="373.45351000000005" y="-3.60872" type="line"/>
      <point x="707.8139299999999" y="-3.60872" type="line"/>
      <point x="944.2424399999999" y="232.81979" type="line"/>
    </contour>
    <contour>
      <point x="359.3837203979492" y="200" type="line"/>
      <point x="359.3837203979492" y="600" type="line"/>
      <point x="539.3837203979492" y="600" type="line"/>
      <point x="539.3837203979492" y="200" type="line"/>
    </contour>
    <contour>
      <point x="766.8837199999999" y="600.0" type="line"/>
      <point x="766.8837199999999" y="420.0" type="line"/>
      <point x="698.12984" y="420.0" type="line"/>
      <point x="586.88372" y="531.24612" type="line"/>
      <point x="586.88372" y="600.0" type="line"/>
    </contour>
  </outline>
</glyph>
<glyph name="macron" format="2">
  <advance width="501.55"/>
  <unicode hex="00AF"/>
  <outline>
    <contour>
      <point x="70.7750015258789" y="800" type="line"/>
      <point x="430.7750015258789" y="800" type="line"/>
      <point x="430.7750015258789" y="980" type="line"/>
      <point x="70.7750015258789" y="980" type="line"/>
    </contour>
  </outline>
</glyph>
<glyph name="degree" format="2">
  <advance width="331.55"/>
  <unicode hex="00B0"/>
  <outline>
    <contour>
      <point x="142.025" y="805.0" type="line"/>
      <point x="105.73823000000002" y="805.0" type="line"/>
      <point x="47.025" y="746.28677" type="line"/>
      <point x="47.025" y="673.71323" type="line"/>
      <point x="105.73823000000002" y="615.0" type="line"/>
      <point x="142.025" y="615.0" type="line"/>
    </contour>
    <contour>
      <point x="189.525" y="615.0" type="line"/>
      <point x="225.81177" y="615.0" type="line"/>
      <point x="284.525" y="673.71323" type="line"/>
      <point x="284.525" y="746.28677" type="line"/>
      <point x="225.81177" y="805.0" type="line"/>
      <point x="189.525" y="805.0" type="line"/>
    </contour>
  </outline>
</glyph>
<glyph name="plus_minus" format="2">
  <advance width="729.05"/>
  <unicode hex="00B1"/>
  <outline>
    <contour>
      <point x="274.5250015258789" y="300" type="line"/>
      <point x="454.5250015258789" y="300" type="line"/>
      <point x="454.5250015258789" y="410" type="line"/>
      <point x="634.5250015258789" y="410" type="line"/>
      <point x="634.5250015258789" y="590" type="line"/>
      <point x="454.5250015258789" y="590" type="line"/>
      <point x="454.5250015258789" y="700" type="line"/>
      <point x="274.5250015258789" y="700" type="line"/>
      <point x="274.5250015258789" y="590" type="line"/>
      <point x="94.5250015258789" y="590" type="line"/>
      <point x="94.5250015258789" y="410" type="line"/>
      <point x="274.5250015258789" y="410" type="line"/>
    </contour>
    <contour>
      <point x="94.5250015258789" y="110" type="line"/>
      <point x="634.5250015258789" y="110" type="line"/>
      <point x="634.5250015258789" y="290" type="line"/>
      <point x="94.5250015258789" y="290" type="line"/>
    </contour>
  </outline>
</glyph>
<glyph name="sup_two" format="2">
  <advance width="501.55"/>
  <unicode hex="00B2"/>
  <outline>
    <contour>
      <point x="227.025" y="625.0" type="line"/>
      <point x="227.025" y="805.0" type="line"/>
      <point x="158.27112" y="805.0" type="line"/>
      <point x="47.025" y="693.75388" type="line"/>
      <point x="47.025" y="625.0" type="line"/>
    </contour>
    <contour>
      <point x="343.2788772583008" y="393" type="line"/>
      <point x="454.5250015258789" y="504.2461166381836" type="line"/>
      <point x="454.5250015258789" y="693.7538833618164" type="line"/>
      <point x="343.2788772583008" y="805" type="line"/>
      <point x="274.5250015258789" y="805" type="line"/>
      <point x="274.5250015258789" y="393" type="line"/>
    </contour>
    <contour>
      <point x="47.025001525878906" y="268.7538833618164" type="line"/>
      <point x="47.025001525878906" y="200" type="line"/>
      <point x="454.5250015258789" y="200" type="line"/>
      <point x="454.5250015258789" y="380" type="line"/>
      <point x="158.2711181640625" y="380" type="line"/>
    </contour>
  </outline>
</glyph>
<glyph name="sup_three" format="2">
  <advance width="501.55"/>
  <unicode hex="00B3"/>
  <outline>
    <contour>
      <point x="47.025" y="800.0" type="line"/>
      <point x="47.025" y="620.0" type="line"/>
      <point x="115.77887999999999" y="620.0" type="line"/>
      <point x="227.025" y="731.24612" type="line"/>
      <point x="227.025" y="800.0" type="line"/>
    </contour>
    <contour>
      <point x="343.2788772583008" y="195" type="line"/>
      <point x="454.5250015258789" y="306.2461166381836" type="line"/>
      <point x="454.5250015258789" y="488.7538833618164" type="line"/>
      <point x="343.2788772583008" y="600" type="line"/>
      <point x="454.5250015258789" y="711.2461166381836" type="line"/>
      <point x="454.5250015258789" y="800" type="line"/>
      <point x="274.5250015258789" y="800" type="line"/>
      <point x="274.5250015258789" y="195" type="line"/>
    </contour>
    <contour>
      <point x="227.025" y="375.0" type="line"/>
      <point x="47.025" y="375.0" type="line"/>
      <point x="47.025" y="306.24612" type="line"/>
      <point x="158.27112" y="195.0" type="line"/>
      <point x="227.025" y="195.0" type="line"/>
    </contour>
  </outline>
</glyph>
<glyph name="acute" format="2">
  <advance width="274.05"/>
  <unicode hex="00B4"/>
  <outline>
    <contour>
      <point x="125.775" y="980.0" type="line"/>
      <point x="125.775" y="800.0" type="line"/>
      <point x="194.52888000000002" y="800.0" type="line"/>
      <point x="305.775" y="911.24612" type="line"/>
      <point x="305.775" y="980.0" type="line"/>
    </contour>
  </outline>
</glyph>
<glyph name="mu" format="2">
  <advance width="549.05"/>
  <unicode hex="00B5"/>
  <outline>
    <contour>
      <point x="47.025001525878906" y="-200" type="line"/>
      <point x="227.0250015258789" y="-200" type="line"/>
      <point x="227.0250015258789" y="600" type="line"/>
      <point x="47.025001525878906" y="600" type="line"/>
    </contour>
    <contour>
      <point x="385.7711181640625" y="0" type="line"/>
      <point x="502.0250015258789" y="0" type="line"/>
      <point x="502.0250015258789" y="180" type="line"/>
      <point x="454.5250015258789" y="180" type="line"/>
      <point x="454.5250015258789" y="600" type="line"/>
      <point x="274.5250015258789" y="600" type="line"/>
      <point x="274.5250015258789" y="111.2461166381836" type="line"/>
    </contour>
  </outline>
</glyph>
<glyph name="pilcrow" format="2">
  <advance width="501.55"/>
  <unicode hex="00B6"/>
  <outline>
    <contour>
      <point x="158.2711181640625" y="400" type="line"/>
      <point x="227.0250015258789" y="400" type="line"/>
      <point x="227.0250015258789" y="800" type="line"/>
      <point x="158.2711181640625" y="800" type="line"/>
      <point x="47.025001525878906" y="688.7538833618164" type="line"/>
      <point x="47.025001525878906" y="511.2461166381836" type="line"/>
    </contour>
    <contour>
      <point x="274.5250015258789" y="-100" type="line"/>
      <point x="454.5250015258789" y="-100" type="line"/>
      <point x="454.5250015258789" y="800" type="line"/>
      <point x="274.5250015258789" y="800" type="line"/>
    </contour>
  </outline>
</glyph>
<glyph name="periodcentered" format="2">
  <advance width="274.05"/>
  <unicode hex="00B7"/>
  <outline>
    <contour>
      <point x="47.025" y="310.0" type="line"/>
      <point x="227.025" y="310.0" type="line"/>
      <point x="227.025" y="490.0" type="line"/>
      <point x="47.025" y="490.0" type="line"/>
    </contour>
  </outline>
</glyph>
<glyph name="cedilla" format="2">
  <advance width="274.05"/>
  <unicode hex="00B8"/>
  <outline>
    <contour>
      <point x="125.775" y="-180.0" type="line"/>
      <point x="305.775" y="-180.0" type="line"/>
      <point x="305.775" y="-111.24612" type="line"/>
      <point x="194.52888000000002" y="0.0" type="line"/>
      <point x="125.775" y="0.0" type="line"/>
    </contour>
  </outline>
</glyph>
<glyph name="sup_one" format="2">
  <advance width="274.05"/>
  <unicode hex="00B9"/>
  <outline>
    <contour>
      <point x="47.025001525878906" y="200" type="line"/>
      <point x="227.0250015258789" y="200" type="line"/>
      <point x="227.0250015258789" y="800" type="line"/>
      <point x="47.025001525878906" y="800" type="line"/>
    </contour>
  </outline>
</glyph>
<glyph name="angledblright" format="2">
  <advance width="501.55"/>
  <unicode hex="00BB"/>
  <outline>
    <contour>
      <point x="115.77887725830078" y="220" type="line"/>
      <point x="227.0250015258789" y="331.2461166381836" type="line"/>
      <point x="227.0250015258789" y="468.7538833618164" type="line"/>
      <point x="115.77887725830078" y="580" type="line"/>
      <point x="47.025001525878906" y="580" type="line"/>
      <point x="47.025001525878906" y="220" type="line"/>
    </contour>
    <contour>
      <point x="343.2788772583008" y="220" type="line"/>
      <point x="454.5250015258789" y="331.2461166381836" type="line"/>
      <point x="454.5250015258789" y="468.7538833618164" type="line"/>
      <point x="343.2788772583008" y="580" type="line"/>
      <point x="274.5250015258789" y="580" type="line"/>
      <point x="274.5250015258789" y="220" type="line"/>
    </contour>
  </outline>
</glyph>
<glyph name="one_over_four" format="2">
  <advance width="956.55"/>
  <unicode hex="00BC"/>
  <outline>
    <contour>
      <point x="23.275001525878906" y="200" type="line"/>
      <point x="203.2750015258789" y="200" type="line"/>
      <point x="203.2750015258789" y="800" type="line"/>
      <point x="23.275001525878906" y="800" type="line"/>
    </contour>
    <contour>
      <point x="343.2788772583008" y="-200" type="line"/>
      <point x="454.5250015258789" y="-88.7538833618164" type="line"/>
      <point x="454.5250015258789" y="800" type="line"/>
      <point x="385.7711181640625" y="800" type="line"/>
      <point x="274.5250015258789" y="688.7538833618164" type="line"/>
      <point x="274.5250015258789" y="-200" type="line"/>
    </contour>
    <contour>
      <point x="594.5288772583008" y="0" type="line"/>
      <point x="705.7750015258789" y="111.2461166381836" type="line"/>
      <point x="705.7750015258789" y="400" type="line"/>
      <point x="525.7750015258789" y="400" type="line"/>
      <point x="525.7750015258789" y="0" type="line"/>
    </contour>
    <contour>
      <point x="753.2750015258789" y="-200" type="line"/>
      <point x="933.2750015258789" y="-200" type="line"/>
      <point x="933.2750015258789" y="200" type="line"/>
      <point x="753.2750015258789" y="200" type="line"/>
    </contour>
  </outline>
</glyph>
<glyph name="one_over_two" format="2">
  <advance width="956.55"/>
  <unicode hex="00BD"/>
  <outline>
    <contour>
      <point x="23.275001525878906" y="200" type="line"/>
      <point x="203.2750015258789" y="200" type="line"/>
      <point x="203.2750015258789" y="800" type="line"/>
      <point x="23.275001525878906" y="800" type="line"/>
    </contour>
    <contour>
      <point x="343.2788772583008" y="-200" type="line"/>
      <point x="454.5250015258789" y="-88.7538833618164" type="line"/>
      <point x="454.5250015258789" y="800" type="line"/>
      <point x="385.7711181640625" y="800" type="line"/>
      <point x="274.5250015258789" y="688.7538833618164" type="line"/>
      <point x="274.5250015258789" y="-200" type="line"/>
    </contour>
    <contour>
      <point x="705.775" y="225.0" type="line"/>
      <point x="705.775" y="405.0" type="line"/>
      <point x="637.02112" y="405.0" type="line"/>
      <point x="525.775" y="293.75388" type="line"/>
      <point x="525.775" y="225.0" type="line"/>
    </contour>
    <contour>
      <point x="822.0288772583008" y="-7" type="line"/>
      <point x="933.2750015258789" y="104.2461166381836" type="line"/>
      <point x="933.2750015258789" y="293.7538833618164" type="line"/>
      <point x="822.0288772583008" y="405" type="line"/>
      <point x="753.2750015258789" y="405" type="line"/>
      <point x="753.2750015258789" y="-7" type="line"/>
    </contour>
    <contour>
      <point x="525.7750015258789" y="-131.2461166381836" type="line"/>
      <point x="525.7750015258789" y="-200" type="line"/>
      <point x="933.2750015258789" y="-200" type="line"/>
      <point x="933.2750015258789" y="-20" type="line"/>
      <point x="637.0211181640625" y="-20" type="line"/>
    </contour>
  </outline>
</glyph>
<glyph name="three_over_four" format="2">
  <advance width="1184.05"/>
  <unicode hex="00BE"/>
  <outline>
    <contour>
      <point x="23.275" y="800.0" type="line"/>
      <point x="23.275" y="620.0" type="line"/>
      <point x="92.02888" y="620.0" type="line"/>
      <point x="203.275" y="731.24612" type="line"/>
      <point x="203.275" y="800.0" type="line"/>
    </contour>
    <contour>
      <point x="319.5288772583008" y="195" type="line"/>
      <point x="430.7750015258789" y="306.2461166381836" type="line"/>
      <point x="430.7750015258789" y="488.7538833618164" type="line"/>
      <point x="319.5288772583008" y="600" type="line"/>
      <point x="430.7750015258789" y="711.2461166381836" type="line"/>
      <point x="430.7750015258789" y="800" type="line"/>
      <point x="250.7750015258789" y="800" type="line"/>
      <point x="250.7750015258789" y="195" type="line"/>
    </contour>
    <contour>
      <point x="570.7788772583008" y="-200" type="line"/>
      <point x="682.0250015258789" y="-88.7538833618164" type="line"/>
      <point x="682.0250015258789" y="800" type="line"/>
      <point x="613.2711181640625" y="800" type="line"/>
      <point x="502.0250015258789" y="688.7538833618164" type="line"/>
      <point x="502.0250015258789" y="-200" type="line"/>
    </contour>
    <contour>
      <point x="822.0288772583008" y="0" type="line"/>
      <point x="933.2750015258789" y="111.2461166381836" type="line"/>
      <point x="933.2750015258789" y="400" type="line"/>
      <point x="753.2750015258789" y="400" type="line"/>
      <point x="753.2750015258789" y="0" type="line"/>
    </contour>
    <contour>
      <point x="203.275" y="375.0" type="line"/>
      <point x="23.275" y="375.0" type="line"/>
      <point x="23.275" y="306.24612" type="line"/>
      <point x="134.52112" y="195.0" type="line"/>
      <point x="203.275" y="195.0" type="line"/>
    </contour>
    <contour>
      <point x="980.7750015258789" y="-200" type="line"/>
      <point x="1160.775001525879" y="-200" type="line"/>
      <point x="1160.775001525879" y="200" type="line"/>
      <point x="980.7750015258789" y="200" type="line"/>
    </contour>
  </outline>
</glyph>
<glyph name="invquestion" format="2">
  <advance width="501.55"/>
  <unicode hex="00BF"/>
  <outline>
    <contour>
      <point x="274.525" y="420.0" type="line"/>
      <point x="454.525" y="420.0" type="line"/>
      <point x="454.525" y="600.0" type="line"/>
      <point x="274.525" y="600.0" type="line"/>
    </contour>
    <contour>
      <point x="274.5250015258789" y="360.4166717529297" type="line"/>
      <point x="274.5250015258789" y="25" type="line"/>
      <point x="343.2788772583008" y="25" type="line"/>
      <point x="454.5250015258789" y="136.2461166381836" type="line"/>
      <point x="454.5250015258789" y="360.4166717529297" type="line"/>
    </contour>
    <contour>
      <point x="158.2711181640625" y="-205" type="line"/>
      <point x="227.0250015258789" y="-205" type="line"/>
      <point x="227.0250015258789" y="195" type="line"/>
      <point x="158.2711181640625" y="195" type="line"/>
      <point x="47.025001525878906" y="83.7538833618164" type="line"/>
      <point x="47.025001525878906" y="-93.7538833618164" type="line"/>
    </contour>
    <contour>
      <point x="454.525" y="-205.0" type="line"/>
      <point x="454.525" y="-25.0" type="line"/>
      <point x="385.77112" y="-25.0" type="line"/>
      <point x="274.525" y="-136.24612" type="line"/>
      <point x="274.525" y="-205.0" type="line"/>
    </contour>
  </outline>
</glyph>
<glyph name="A_with_grave" format="2">
  <advance width="501.55"/>
  <unicode hex="00C0"/>
  <outline>
    <contour>
      <point x="262.025" y="1016.1111111111111" type="line"/>
      <point x="82.025" y="1016.1111111111111" type="line"/>
      <point x="82.025" y="947.3572311111111" type="line"/>
      <point x="193.27112" y="836.1111111111111" type="line"/>
      <point x="262.025" y="836.1111111111111" type="line"/>
    </contour>
    <contour>
      <point x="47.025001525878906" y="0" type="line"/>
      <point x="227.0250015258789" y="0" type="line"/>
      <point x="227.0250015258789" y="805" type="line"/>
      <point x="158.2711181640625" y="805" type="line"/>
      <point x="47.025001525878906" y="693.7538833618164" type="line"/>
    </contour>
    <contour>
      <point x="274.5250015258789" y="0" type="line"/>
      <point x="454.5250015258789" y="0" type="line"/>
      <point x="454.5250015258789" y="693.7538833618164" type="line"/>
      <point x="343.2788772583008" y="805" type="line"/>
      <point x="274.5250015258789" y="805" type="line"/>
    </contour>
  </outline>
</glyph>
<glyph name="A_with_ring" format="2">
  <advance width="501.55"/>
  <unicode hex="00C5"/>
  <outline>
    <contour>
      <point x="227.025" y="1021.1111111111111" type="line"/>
      <point x="190.73823000000002" y="1021.1111111111111" type="line"/>
      <point x="132.025" y="962.3978811111111" type="line"/>
      <point x="132.025" y="889.824341111111" type="line"/>
      <point x="190.73823000000002" y="831.1111111111111" type="line"/>
      <point x="227.025" y="831.1111111111111" type="line"/>
    </contour>
    <contour>
      <point x="274.525" y="831.1111111111111" type="line"/>
      <point x="310.81177" y="831.1111111111111" type="line"/>
      <point x="369.525" y="889.824341111111" type="line"/>
      <point x="369.525" y="962.3978811111111" type="line"/>
      <point x="310.81177" y="1021.1111111111111" type="line"/>
      <point x="274.525" y="1021.1111111111111" type="line"/>
    </contour>
    <contour>
      <point x="47.025001525878906" y="0" type="line"/>
      <point x="227.0250015258789" y="0" type="line"/>
      <point x="227.0250015258789" y="805" type="line"/>
      <point x="158.2711181640625" y="805" type="line"/>
      <point x="47.025001525878906" y="693.7538833618164" type="line"/>
    </contour>
    <contour>
      <point x="274.5250015258789" y="0" type="line"/>
      <point x="454.5250015258789" y="0" type="line"/>
      <point x="454.5250015258789" y="693.7538833618164" type="line"/>
      <point x="343.2788772583008" y="805" type="line"/>
      <point x="274.5250015258789" y="805" type="line"/>
    </contour>
  </outline>
</glyph>
<glyph name="E_with_grave" format="2">
  <advance width="501.55"/>
  <unicode hex="00C8"/>
  <outline>
    <contour>
      <point x="262.025" y="1016.1111111111111" type="line"/>
      <point x="82.025" y="1016.1111111111111" type="line"/>
      <point x="82.025" y="947.3572311111111" type="line"/>
      <point x="193.27112" y="836.1111111111111" type="line"/>
      <point x="262.025" y="836.1111111111111" type="line"/>
    </contour>
    <contour>
      <point x="47.025001525878906" y="0" type="line"/>
      <point x="227.0250015258789" y="0" type="line"/>
      <point x="227.0250015258789" y="800" type="line"/>
      <point x="47.025001525878906" y="800" type="line"/>
    </contour>
    <contour>
      <point x="454.525" y="800.0" type="line"/>
      <point x="274.525" y="800.0" type="line"/>
      <point x="274.525" y="731.24612" type="line"/>
      <point x="385.77112" y="620.0" type="line"/>
      <point x="454.525" y="620.0" type="line"/>
    </contour>
    <contour>
      <point x="454.525" y="490.0" type="line"/>
      <point x="274.525" y="490.0" type="line"/>
      <point x="274.525" y="421.24612" type="line"/>
      <point x="385.77112" y="310.0" type="line"/>
      <point x="454.525" y="310.0" type="line"/>
    </contour>
    <contour>
      <point x="454.525" y="0.0" type="line"/>
      <point x="454.525" y="180.0" type="line"/>
      <point x="385.77112" y="180.0" type="line"/>
      <point x="274.525" y="68.75388" type="line"/>
      <point x="274.525" y="0.0" type="line"/>
    </contour>
  </outline>
</glyph>
<glyph name="E_with_diaeresis" format="2">
  <advance width="501.55"/>
  <unicode hex="00CB"/>
  <outline>
    <contour>
      <point x="47.025000000000006" y="856.1111111111111" type="line"/>
      <point x="227.025" y="856.1111111111111" type="line"/>
      <point x="227.025" y="1036.111111111111" type="line"/>
      <point x="47.025000000000006" y="1036.111111111111" type="line"/>
    </contour>
    <contour>
      <point x="274.525" y="856.1111111111111" type="line"/>
      <point x="454.525" y="856.1111111111111" type="line"/>
      <point x="454.525" y="1036.111111111111" type="line"/>
      <point x="274.525" y="1036.111111111111" type="line"/>
    </contour>
    <contour>
      <point x="47.025001525878906" y="0" type="line"/>
      <point x="227.0250015258789" y="0" type="line"/>
      <point x="227.0250015258789" y="800" type="line"/>
      <point x="47.025001525878906" y="800" type="line"/>
    </contour>
    <contour>
      <point x="454.525" y="800.0" type="line"/>
      <point x="274.525" y="800.0" type="line"/>
      <point x="274.525" y="731.24612" type="line"/>
      <point x="385.77112" y="620.0" type="line"/>
      <point x="454.525" y="620.0" type="line"/>
    </contour>
    <contour>
      <point x="454.525" y="490.0" type="line"/>
      <point x="274.525" y="490.0" type="line"/>
      <point x="274.525" y="421.24612" type="line"/>
      <point x="385.77112" y="310.0" type="line"/>
      <point x="454.525" y="310.0" type="line"/>
    </contour>
    <contour>
      <point x="454.525" y="0.0" type="line"/>
      <point x="454.525" y="180.0" type="line"/>
      <point x="385.77112" y="180.0" type="line"/>
      <point x="274.525" y="68.75388" type="line"/>
      <point x="274.525" y="0.0" type="line"/>
    </contour>
  </outline>
</glyph>
<glyph name="I_with_grave" format="2">
  <advance width="274.05"/>
  <unicode hex="00CC"/>
  <outline>
    <contour>
      <point x="148.275" y="1016.1111111111111" type="line"/>
      <point x="-31.724999999999994" y="1016.1111111111111" type="line"/>
      <point x="-31.724999999999994" y="947.3572311111111" type="line"/>
      <point x="79.52112" y="836.1111111111111" type="line"/>
      <point x="148.275" y="836.1111111111111" type="line"/>
    </contour>
    <contour>
      <point x="47.025001525878906" y="0" type="line"/>
      <point x="227.0250015258789" y="0" type="line"/>
      <point x="227.0250015258789" y="800" type="line"/>
      <point x="47.025001525878906" y="800" type="line"/>
    </contour>
  </outline>
</glyph>
<glyph name="I_with_circumflex" format="2">
  <advance width="274.05"/>
  <unicode hex="00CE"/>
  <outline>
    <contour>
      <point x="-48.599999999999994" y="1016.1111111111111" type="line"/>
      <point x="-48.599999999999994" y="836.1111111111111" type="line"/>
      <point x="20.15388" y="836.1111111111111" type="line"/>
      <point x="131.4" y="947.3572311111111" type="line"/>
      <point x="131.4" y="1016.1111111111111" type="line"/>
    </contour>
    <contour>
      <point x="322.65" y="1016.1111111111111" type="line"/>
      <point x="142.65" y="1016.1111111111111" type="line"/>
      <point x="142.65" y="947.3572311111111" type="line"/>
      <point x="253.89612000000002" y="836.1111111111111" type="line"/>
      <point x="322.65" y="836.1111111111111" type="line"/>
    </contour>
    <contour>
      <point x="47.025001525878906" y="0" type="line"/>
      <point x="227.0250015258789" y="0" type="line"/>
      <point x="227.0250015258789" y="800" type="line"/>
      <point x="47.025001525878906" y="800" type="line"/>
    </contour>
  </outline>
</glyph>
<glyph name="I_with_diaeresis" format="2">
  <advance width="274.05"/>
  <unicode hex="00CF"/>
  <outline>
    <contour>
      <point x="-66.725" y="856.1111111111111" type="line"/>
      <point x="113.275" y="856.1111111111111" type="line"/>
      <point x="113.275" y="1036.111111111111" type="line"/>
      <point x="-66.725" y="1036.111111111111" type="line"/>
    </contour>
    <contour>
      <point x="160.775" y="856.1111111111111" type="line"/>
      <point x="340.775" y="856.1111111111111" type="line"/>
      <point x="340.775" y="1036.111111111111" type="line"/>
      <point x="160.775" y="1036.111111111111" type="line"/>
    </contour>
    <contour>
      <point x="47.025001525878906" y="0" type="line"/>
      <point x="227.0250015258789" y="0" type="line"/>
      <point x="227.0250015258789" y="800" type="line"/>
      <point x="47.025001525878906" y="800" type="line"/>
    </contour>
  </outline>
</glyph>
<glyph name="U_with_circumflex" format="2">
  <advance width="501.55"/>
  <unicode hex="00DB"/>
  <outline>
    <contour>
      <point x="65.15" y="1016.1111111111111" type="line"/>
      <point x="65.15" y="836.1111111111111" type="line"/>
      <point x="133.90388000000002" y="836.1111111111111" type="line"/>
      <point x="245.15" y="947.3572311111111" type="line"/>
      <point x="245.15" y="1016.1111111111111" type="line"/>
    </contour>
    <contour>
      <point x="436.4" y="1016.1111111111111" type="line"/>
      <point x="256.4" y="1016.1111111111111" type="line"/>
      <point x="256.4" y="947.3572311111111" type="line"/>
      <point x="367.64612" y="836.1111111111111" type="line"/>
      <point x="436.4" y="836.1111111111111" type="line"/>
    </contour>
    <contour>
      <point x="158.2711181640625" y="-5" type="line"/>
      <point x="227.0250015258789" y="-5" type="line"/>
      <point x="227.0250015258789" y="800" type="line"/>
      <point x="47.025001525878906" y="800" type="line"/>
      <point x="47.025001525878906" y="106.2461166381836" type="line"/>
    </contour>
    <contour>
      <point x="343.2788772583008" y="-5" type="line"/>
      <point x="454.5250015258789" y="106.2461166381836" type="line"/>
      <point x="454.5250015258789" y="800" type="line"/>
      <point x="274.5250015258789" y="800" type="line"/>
      <point x="274.5250015258789" y="-5" type="line"/>
    </contour>
  </outline>
</glyph>
<glyph name="THORN" format="2">
  <advance width="501.55"/>
  <unicode hex="00DE"/>
  <outline>
    <contour>
      <point x="47.025001525878906" y="0" type="line"/>
      <point x="227.0250015258789" y="0" type="line"/>
      <point x="227.0250015258789" y="800" type="line"/>
      <point x="47.025001525878906" y="800" type="line"/>
    </contour>
    <contour>
      <point x="343.2788772583008" y="100" type="line"/>
      <point x="454.5250015258789" y="211.2461166381836" type="line"/>
      <point x="454.5250015258789" y="588.7538833618164" type="line"/>
      <point x="343.2788772583008" y="700" type="line"/>
      <point x="274.5250015258789" y="700" type="line"/>
      <point x="274.5250015258789" y="100" type="line"/>
    </contour>
  </outline>
</glyph>
<glyph name="a_with_smalltilde" format="2">
  <advance width="501.55"/>
  <unicode hex="00E3"/>
  <outline>
    <contour>
      <point x="70.7750015258789" y="704.864990234375" type="line"/>
      <point x="70.7750015258789" y="636.1111145019531" type="line"/>
      <point x="319.5288772583008" y="636.1111145019531" type="line"/>
      <point x="430.7750015258789" y="747.3572311401367" type="line"/>
      <point x="430.7750015258789" y="816.1111145019531" type="line"/>
      <point x="182.0211181640625" y="816.1111145019531" type="line"/>
    </contour>
    <contour>
      <point x="47.025" y="600.0" type="line"/>
      <point x="47.025" y="420.0" type="line"/>
      <point x="115.77887999999999" y="420.0" type="line"/>
      <point x="227.025" y="531.24612" type="line"/>
      <point x="227.025" y="600.0" type="line"/>
    </contour>
    <contour>
      <point x="385.7711181640625" y="-5" type="line"/>
      <point x="454.5250015258789" y="-5" type="line"/>
      <point x="454.5250015258789" y="488.7538833618164" type="line"/>
      <point x="343.2788772583008" y="600" type="line"/>
      <point x="274.5250015258789" y="600" type="line"/>
      <point x="274.5250015258789" y="106.2461166381836" type="line"/>
    </contour>
    <contour>
      <point x="158.2711181640625" y="-5" type="line"/>
      <point x="227.0250015258789" y="-5" type="line"/>
      <point x="227.0250015258789" y="400" type="line"/>
      <point x="158.2711181640625" y="400" type="line"/>
      <point x="47.025001525878906" y="288.7538833618164" type="line"/>
      <point x="47.025001525878906" y="106.2461166381836" type="line"/>
    </contour>
  </outline>
</glyph>
<glyph name="a_with_ring" format="2">
  <advance width="501.55"/>
  <unicode hex="00E5"/>
  <outline>
    <contour>
      <point x="227.025" y="821.1111111111111" type="line"/>
      <point x="190.73823000000002" y="821.1111111111111" type="line"/>
      <point x="132.025" y="762.3978811111111" type="line"/>
      <point x="132.025" y="689.824341111111" type="line"/>
      <point x="190.73823000000002" y="631.1111111111111" type="line"/>
      <point x="227.025" y="631.1111111111111" type="line"/>
    </contour>
    <contour>
      <point x="274.525" y="631.1111111111111" type="line"/>
      <point x="310.81177" y="631.1111111111111" type="line"/>
      <point x="369.525" y="689.824341111111" type="line"/>
      <point x="369.525" y="762.3978811111111" type="line"/>
      <point x="310.81177" y="821.1111111111111" type="line"/>
      <point x="274.525" y="821.1111111111111" type="line"/>
    </contour>
    <contour>
      <point x="47.025" y="600.0" type="line"/>
      <point x="47.025" y="420.0" type="line"/>
      <point x="115.77887999999999" y="420.0" type="line"/>
      <point x="227.025" y="531.24612" type="line"/>
      <point x="227.025" y="600.0" type="line"/>
    </contour>
    <contour>
      <point x="385.7711181640625" y="-5" type="line"/>
      <point x="454.5250015258789" y="-5" type="line"/>
      <point x="454.5250015258789" y="488.7538833618164" type="line"/>
      <point x="343.2788772583008" y="600" type="line"/>
      <point x="274.5250015258789" y="600" type="line"/>
      <point x="274.5250015258789" y="106.2461166381836" type="line"/>
    </contour>
    <contour>
      <point x="158.2711181640625" y="0" type="line"/>
      <point x="227.0250015258789" y="0" type="line"/>
      <point x="227.0250015258789" y="400" type="line"/>
      <point x="158.2711181640625" y="400" type="line"/>
      <point x="47.025001525878906" y="288.7538833618164" type="line"/>
      <point x="47.025001525878906" y="111.2461166381836" type="line"/>
    </contour>
  </outline>
</glyph>
<glyph name="ae" format="2">
  <advance width="956.55"/>
  <unicode hex="00E6"/>
  <outline>
    <contour>
      <point x="343.2788772583008" y="-5" type="line"/>
      <point x="454.5250015258789" y="106.2461166381836" type="line"/>
      <point x="454.5250015258789" y="493.7538833618164" type="line"/>
      <point x="343.2788772583008" y="605" type="line"/>
      <point x="274.5250015258789" y="605" type="line"/>
      <point x="274.5250015258789" y="-5" type="line"/>
    </contour>
    <contour>
      <point x="613.2711181640625" y="-5" type="line"/>
      <point x="682.0250015258789" y="-5" type="line"/>
      <point x="682.0250015258789" y="605" type="line"/>
      <point x="613.2711181640625" y="605" type="line"/>
      <point x="502.0250015258789" y="493.7538833618164" type="line"/>
      <point x="502.0250015258789" y="106.2461166381836" type="line"/>
    </contour>
    <contour>
      <point x="729.5250015258789" y="195" type="line"/>
      <point x="909.5250015258789" y="195" type="line"/>
      <point x="909.5250015258789" y="493.7538833618164" type="line"/>
      <point x="798.2788772583008" y="605" type="line"/>
      <point x="729.5250015258789" y="605" type="line"/>
    </contour>
    <contour>
      <point x="49.8375" y="600.0" type="line"/>
      <point x="49.8375" y="420.0" type="line"/>
      <point x="118.59137999999999" y="420.0" type="line"/>
      <point x="229.8375" y="531.24612" type="line"/>
      <point x="229.8375" y="600.0" type="line"/>
    </contour>
    <contour>
      <point x="158.2711181640625" y="-5" type="line"/>
      <point x="227.0250015258789" y="-5" type="line"/>
      <point x="227.0250015258789" y="395" type="line"/>
      <point x="158.2711181640625" y="395" type="line"/>
      <point x="47.025001525878906" y="283.7538833618164" type="line"/>
      <point x="47.025001525878906" y="106.2461166381836" type="line"/>
    </contour>
  </outline>
</glyph>
<glyph name="i_with_grave" format="2">
  <advance width="274.05"/>
  <unicode hex="00EC"/>
  <outline>
    <contour>
      <point x="148.275" y="816.1111111111111" type="line"/>
      <point x="-31.724999999999994" y="816.1111111111111" type="line"/>
      <point x="-31.724999999999994" y="747.3572311111111" type="line"/>
      <point x="79.52112" y="636.1111111111111" type="line"/>
      <point x="148.275" y="636.1111111111111" type="line"/>
    </contour>
    <contour>
      <point x="47.025001525878906" y="0" type="line"/>
      <point x="227.0250015258789" y="0" type="line"/>
      <point x="227.0250015258789" y="600" type="line"/>
      <point x="47.025001525878906" y="600" type="line"/>
    </contour>
  </outline>
</glyph>
<glyph name="i_with_circumflex" format="2">
  <advance width="274.05"/>
  <unicode hex="00EE"/>
  <outline>
    <contour>
      <point x="-48.599999999999994" y="816.1111111111111" type="line"/>
      <point x="-48.599999999999994" y="636.1111111111111" type="line"/>
      <point x="20.15388" y="636.1111111111111" type="line"/>
      <point x="131.4" y="747.3572311111111" type="line"/>
      <point x="131.4" y="816.1111111111111" type="line"/>
    </contour>
    <contour>
      <point x="322.65" y="816.1111111111111" type="line"/>
      <point x="142.65" y="816.1111111111111" type="line"/>
      <point x="142.65" y="747.3572311111111" type="line"/>
      <point x="253.89612000000002" y="636.1111111111111" type="line"/>
      <point x="322.65" y="636.1111111111111" type="line"/>
    </contour>
    <contour>
      <point x="47.025001525878906" y="0" type="line"/>
      <point x="227.0250015258789" y="0" type="line"/>
      <point x="227.0250015258789" y="600" type="line"/>
      <point x="47.025001525878906" y="600" type="line"/>
    </contour>
  </outline>
</glyph>
<glyph name="i_with_diaeresis" format="2">
  <advance width="274.05"/>
  <unicode hex="00EF"/>
  <outline>
    <contour>
      <point x="-66.725" y="656.1111111111111" type="line"/>
      <point x="113.275" y="656.1111111111111" type="line"/>
      <point x="113.275" y="836.1111111111111" type="line"/>
      <point x="-66.725" y="836.1111111111111" type="line"/>
    </contour>
    <contour>
      <point x="160.775" y="656.1111111111111" type="line"/>
      <point x="340.775" y="656.1111111111111" type="line"/>
      <point x="340.775" y="836.1111111111111" type="line"/>
      <point x="160.775" y="836.1111111111111" type="line"/>
    </contour>
    <contour>
      <point x="47.025001525878906" y="0" type="line"/>
      <point x="227.0250015258789" y="0" type="line"/>
      <point x="227.0250015258789" y="600" type="line"/>
      <point x="47.025001525878906" y="600" type="line"/>
    </contour>
  </outline>
</glyph>
<glyph name="n_with_smalltilde" format="2">
  <advance width="501.55"/>
  <unicode hex="00F1"/>
  <outline>
    <contour>
      <point x="70.7750015258789" y="704.864990234375" type="line"/>
      <point x="70.7750015258789" y="636.1111145019531" type="line"/>
      <point x="319.5288772583008" y="636.1111145019531" type="line"/>
      <point x="430.7750015258789" y="747.3572311401367" type="line"/>
      <point x="430.7750015258789" y="816.1111145019531" type="line"/>
      <point x="182.0211181640625" y="816.1111145019531" type="line"/>
    </contour>
    <contour>
      <point x="47.025001525878906" y="0" type="line"/>
      <point x="227.0250015258789" y="0" type="line"/>
      <point x="227.0250015258789" y="600" type="line"/>
      <point x="47.025001525878906" y="600" type="line"/>
    </contour>
    <contour>
      <point x="274.5250015258789" y="0" type="line"/>
      <point x="454.5250015258789" y="0" type="line"/>
      <point x="454.5250015258789" y="488.7538833618164" type="line"/>
      <point x="343.2788772583008" y="600" type="line"/>
      <point x="274.5250015258789" y="600" type="line"/>
    </contour>
  </outline>
</glyph>
<glyph name="divide" format="2">
  <advance width="729.05"/>
  <unicode hex="00F7"/>
  <outline>
    <contour>
      <point x="274.525" y="550.0" type="line"/>
      <point x="454.525" y="550.0" type="line"/>
      <point x="454.525" y="730.0" type="line"/>
      <point x="274.525" y="730.0" type="line"/>
    </contour>
    <contour>
      <point x="94.5250015258789" y="310" type="line"/>
      <point x="634.5250015258789" y="310" type="line"/>
      <point x="634.5250015258789" y="490" type="line"/>
      <point x="94.5250015258789" y="490" type="line"/>
    </contour>
    <contour>
      <point x="274.525" y="70.0" type="line"/>
      <point x="454.525" y="70.0" type="line"/>
      <point x="454.525" y="250.0" type="line"/>
      <point x="274.525" y="250.0" type="line"/>
    </contour>
  </outline>
</glyph>
<glyph name="A_with_macron" format="2">
  <advance width="501.55"/>
  <unicode hex="0100"/>
  <outline>
    <contour>
      <point x="70.7750015258789" y="836.1111145019531" type="line"/>
      <point x="430.7750015258789" y="836.1111145019531" type="line"/>
      <point x="430.7750015258789" y="1016.1111145019531" type="line"/>
      <point x="70.7750015258789" y="1016.1111145019531" type="line"/>
    </contour>
    <contour>
      <point x="47.025001525878906" y="0" type="line"/>
      <point x="227.0250015258789" y="0" type="line"/>
      <point x="227.0250015258789" y="805" type="line"/>
      <point x="158.2711181640625" y="805" type="line"/>
      <point x="47.025001525878906" y="693.7538833618164" type="line"/>
    </contour>
    <contour>
      <point x="274.5250015258789" y="0" type="line"/>
      <point x="454.5250015258789" y="0" type="line"/>
      <point x="454.5250015258789" y="693.7538833618164" type="line"/>
      <point x="343.2788772583008" y="805" type="line"/>
      <point x="274.5250015258789" y="805" type="line"/>
    </contour>
  </outline>
</glyph>
<glyph name="C_with_acute" format="2">
  <advance width="501.55"/>
  <unicode hex="0106"/>
  <outline>
    <contour>
      <point x="239.525" y="1016.1111111111111" type="line"/>
      <point x="239.525" y="836.1111111111111" type="line"/>
      <point x="308.27888" y="836.1111111111111" type="line"/>
      <point x="419.525" y="947.3572311111111" type="line"/>
      <point x="419.525" y="1016.1111111111111" type="line"/>
    </contour>
    <contour>
      <point x="158.2711181640625" y="0" type="line"/>
      <point x="227.0250015258789" y="0" type="line"/>
      <point x="227.0250015258789" y="800" type="line"/>
      <point x="158.2711181640625" y="800" type="line"/>
      <point x="47.025001525878906" y="688.7538833618164" type="line"/>
      <point x="47.025001525878906" y="111.2461166381836" type="line"/>
    </contour>
    <contour>
      <point x="385.7711181640625" y="420" type="line"/>
      <point x="454.5250015258789" y="420" type="line"/>
      <point x="454.5250015258789" y="800" type="line"/>
      <point x="274.5250015258789" y="800" type="line"/>
      <point x="274.5250015258789" y="531.2461166381836" type="line"/>
    </contour>
    <contour>
      <point x="454.525" y="0.0" type="line"/>
      <point x="454.525" y="180.0" type="line"/>
      <point x="385.77112" y="180.0" type="line"/>
      <point x="274.525" y="68.75388" type="line"/>
      <point x="274.525" y="0.0" type="line"/>
    </contour>
  </outline>
</glyph>
<glyph name="c_with_circumflex" format="2">
  <advance width="501.55"/>
  <unicode hex="0109"/>
  <outline>
    <contour>
      <point x="65.15" y="816.1111111111111" type="line"/>
      <point x="65.15" y="636.1111111111111" type="line"/>
      <point x="133.90388000000002" y="636.1111111111111" type="line"/>
      <point x="245.15" y="747.3572311111111" type="line"/>
      <point x="245.15" y="816.1111111111111" type="line"/>
    </contour>
    <contour>
      <point x="436.4" y="816.1111111111111" type="line"/>
      <point x="256.4" y="816.1111111111111" type="line"/>
      <point x="256.4" y="747.3572311111111" type="line"/>
      <point x="367.64612" y="636.1111111111111" type="line"/>
      <point x="436.4" y="636.1111111111111" type="line"/>
    </contour>
    <contour>
      <point x="158.2711181640625" y="0" type="line"/>
      <point x="227.0250015258789" y="0" type="line"/>
      <point x="227.0250015258789" y="600" type="line"/>
      <point x="158.2711181640625" y="600" type="line"/>
      <point x="47.025001525878906" y="488.7538833618164" type="line"/>
      <point x="47.025001525878906" y="111.2461166381836" type="line"/>
    </contour>
    <contour>
      <point x="454.525" y="600.0" type="line"/>
      <point x="274.525" y="600.0" type="line"/>
      <point x="274.525" y="531.24612" type="line"/>
      <point x="385.77112" y="420.0" type="line"/>
      <point x="454.525" y="420.0" type="line"/>
    </contour>
    <contour>
      <point x="451.7125" y="0.0" type="line"/>
      <point x="451.7125" y="180.0" type="line"/>
      <point x="382.95862" y="180.0" type="line"/>
      <point x="271.7125" y="68.75388" type="line"/>
      <point x="271.7125" y="0.0" type="line"/>
    </contour>
  </outline>
</glyph>
<glyph name="e_with_macron" format="2">
  <advance width="501.55"/>
  <unicode hex="0113"/>
  <outline>
    <contour>
      <point x="70.7750015258789" y="636.1111145019531" type="line"/>
      <point x="430.7750015258789" y="636.1111145019531" type="line"/>
      <point x="430.7750015258789" y="816.1111145019531" type="line"/>
      <point x="70.7750015258789" y="816.1111145019531" type="line"/>
    </contour>
    <contour>
      <point x="158.2711181640625" y="-5" type="line"/>
      <point x="227.0250015258789" y="-5" type="line"/>
      <point x="227.0250015258789" y="605" type="line"/>
      <point x="158.2711181640625" y="605" type="line"/>
      <point x="47.025001525878906" y="493.7538833618164" type="line"/>
      <point x="47.025001525878906" y="106.2461166381836" type="line"/>
    </contour>
    <contour>
      <point x="274.5250015258789" y="195" type="line"/>
      <point x="454.5250015258789" y="195" type="line"/>
      <point x="454.5250015258789" y="493.7538833618164" type="line"/>
      <point x="343.2788772583008" y="605" type="line"/>
      <point x="274.5250015258789" y="605" type="line"/>
    </contour>
  </outline>
</glyph>
<glyph name="G_with_breve" format="2">
  <advance width="501.55"/>
  <unicode hex="011E"/>
  <outline>
    <contour>
      <point x="70.7750015258789" y="947.3572311401367" type="line"/>
      <point x="182.0211181640625" y="836.1111145019531" type="line"/>
      <point x="319.5288772583008" y="836.1111145019531" type="line"/>
      <point x="430.7750015258789" y="947.3572311401367" type="line"/>
      <point x="430.7750015258789" y="1016.1111145019531" type="line"/>
      <point x="70.7750015258789" y="1016.1111145019531" type="line"/>
    </contour>
    <contour>
      <point x="158.2711181640625" y="0" type="line"/>
      <point x="227.0250015258789" y="0" type="line"/>
      <point x="227.0250015258789" y="800" type="line"/>
      <point x="158.2711181640625" y="800" type="line"/>
      <point x="47.025001525878906" y="688.7538833618164" type="line"/>
      <point x="47.025001525878906" y="111.2461166381836" type="line"/>
    </contour>
    <contour>
      <point x="454.525" y="800.0" type="line"/>
      <point x="274.525" y="800.0" type="line"/>
      <point x="274.525" y="731.24612" type="line"/>
      <point x="385.77112" y="620.0" type="line"/>
      <point x="454.525" y="620.0" type="line"/>
    </contour>
    <contour>
      <point x="385.7711181640625" y="0" type="line"/>
      <point x="454.5250015258789" y="0" type="line"/>
      <point x="454.5250015258789" y="400" type="line"/>
      <point x="274.5250015258789" y="400" type="line"/>
      <point x="274.5250015258789" y="111.2461166381836" type="line"/>
    </contour>
  </outline>
</glyph>
<glyph name="G_with_dotabove" format="2">
  <advance width="501.55"/>
  <unicode hex="0120"/>
  <outline>
    <contour>
      <point x="160.775" y="856.1111111111111" type="line"/>
      <point x="340.775" y="856.1111111111111" type="line"/>
      <point x="340.775" y="1036.111111111111" type="line"/>
      <point x="160.775" y="1036.111111111111" type="line"/>
    </contour>
    <contour>
      <point x="158.2711181640625" y="0" type="line"/>
      <point x="227.0250015258789" y="0" type="line"/>
      <point x="227.0250015258789" y="800" type="line"/>
      <point x="158.2711181640625" y="800" type="line"/>
      <point x="47.025001525878906" y="688.7538833618164" type="line"/>
      <point x="47.025001525878906" y="111.2461166381836" type="line"/>
    </contour>
    <contour>
      <point x="454.525" y="800.0" type="line"/>
      <point x="274.525" y="800.0" type="line"/>
      <point x="274.525" y="731.24612" type="line"/>
      <point x="385.77112" y="620.0" type="line"/>
      <point x="454.525" y="620.0" type="line"/>
    </contour>
    <contour>
      <point x="385.7711181640625" y="0" type="line"/>
      <point x="454.5250015258789" y="0" type="line"/>
      <point x="454.5250015258789" y="400" type="line"/>
      <point x="274.5250015258789" y="400" type="line"/>
      <point x="274.5250015258789" y="111.2461166381836" type="line"/>
    </contour>
  </outline>
</glyph>
<glyph name="g_with_dotabove" format="2">
  <advance width="501.55"/>
  <unicode hex="0121"/>
  <outline>
    <contour>
      <point x="160.775" y="656.1111111111111" type="line"/>
      <point x="340.775" y="656.1111111111111" type="line"/>
      <point x="340.775" y="836.1111111111111" type="line"/>
      <point x="160.775" y="836.1111111111111" type="line"/>
    </contour>
    <contour>
      <point x="158.2711181640625" y="5" type="line"/>
      <point x="227.0250015258789" y="5" type="line"/>
      <point x="227.0250015258789" y="600" type="line"/>
      <point x="158.2711181640625" y="600" type="line"/>
      <point x="47.025001525878906" y="488.7538833618164" type="line"/>
      <point x="47.025001525878906" y="116.2461166381836" type="line"/>
    </contour>
    <contour>
      <point x="343.2788772583008" y="-210" type="line"/>
      <point x="454.5250015258789" y="-98.7538833618164" type="line"/>
      <point x="454.5250015258789" y="600" type="line"/>
      <point x="274.5250015258789" y="600" type="line"/>
      <point x="274.5250015258789" y="-210" type="line"/>
    </contour>
    <contour>
      <point x="227.025" y="-30.0" type="line"/>
      <point x="47.025" y="-30.0" type="line"/>
      <point x="47.025" y="-98.75388" type="line"/>
      <point x="158.27112" y="-210.0" type="line"/>
      <point x="227.025" y="-210.0" type="line"/>
    </contour>
  </outline>
</glyph>
<glyph name="I_with_smalltilde" format="2">
  <advance width="274.05"/>
  <unicode hex="0128"/>
  <outline>
    <contour>
      <point x="-42.974998474121094" y="904.864990234375" type="line"/>
      <point x="-42.974998474121094" y="836.1111145019531" type="line"/>
      <point x="205.77887725830078" y="836.1111145019531" type="line"/>
      <point x="317.0250015258789" y="947.3572311401367" type="line"/>
      <point x="317.0250015258789" y="1016.1111145019531" type="line"/>
      <point x="68.2711181640625" y="1016.1111145019531" type="line"/>
    </contour>
    <contour>
      <point x="47.025001525878906" y="0" type="line"/>
      <point x="227.0250015258789" y="0" type="line"/>
      <point x="227.0250015258789" y="800" type="line"/>
      <point x="47.025001525878906" y="800" type="line"/>
    </contour>
  </outline>
</glyph>
<glyph name="i_with_smalltilde" format="2">
  <advance width="274.05"/>
  <unicode hex="0129"/>
  <outline>
    <contour>
      <point x="-42.974998474121094" y="704.864990234375" type="line"/>
      <point x="-42.974998474121094" y="636.1111145019531" type="line"/>
      <point x="205.77887725830078" y="636.1111145019531" type="line"/>
      <point x="317.0250015258789" y="747.3572311401367" type="line"/>
      <point x="317.0250015258789" y="816.1111145019531" type="line"/>
      <point x="68.2711181640625" y="816.1111145019531" type="line"/>
    </contour>
    <contour>
      <point x="47.025001525878906" y="0" type="line"/>
      <point x="227.0250015258789" y="0" type="line"/>
      <point x="227.0250015258789" y="600" type="line"/>
      <point x="47.025001525878906" y="600" type="line"/>
    </contour>
  </outline>
</glyph>
<glyph name="I_with_macron" format="2">
  <advance width="274.05"/>
  <unicode hex="012A"/>
  <outline>
    <contour>
      <point x="-42.974998474121094" y="836.1111145019531" type="line"/>
      <point x="317.0250015258789" y="836.1111145019531" type="line"/>
      <point x="317.0250015258789" y="1016.1111145019531" type="line"/>
      <point x="-42.974998474121094" y="1016.1111145019531" type="line"/>
    </contour>
    <contour>
      <point x="47.025001525878906" y="0" type="line"/>
      <point x="227.0250015258789" y="0" type="line"/>
      <point x="227.0250015258789" y="800" type="line"/>
      <point x="47.025001525878906" y="800" type="line"/>
    </contour>
  </outline>
</glyph>
<glyph name="I_with_ogonek" format="2">
  <advance width="274.05"/>
  <unicode hex="012E"/>
  <outline>
    <contour>
      <point x="47.025001525878906" y="0" type="line"/>
      <point x="227.0250015258789" y="0" type="line"/>
      <point x="227.0250015258789" y="800" type="line"/>
      <point x="47.025001525878906" y="800" type="line"/>
    </contour>
    <contour>
      <point x="227.025" y="-205.0" type="line"/>
      <point x="227.025" y="-25.0" type="line"/>
      <point x="158.27112" y="-25.0" type="line"/>
      <point x="47.025000000000006" y="-136.24612000000002" type="line"/>
      <point x="47.025000000000006" y="-205.0" type="line"/>
    </contour>
  </outline>
</glyph>
<glyph name="I_with_dotabove" format="2">
  <advance width="274.05"/>
  <unicode hex="0130"/>
  <outline>
    <contour>
      <point x="47.025000000000006" y="856.1111111111111" type="line"/>
      <point x="227.025" y="856.1111111111111" type="line"/>
      <point x="227.025" y="1036.111111111111" type="line"/>
      <point x="47.025000000000006" y="1036.111111111111" type="line"/>
    </contour>
    <contour>
      <point x="47.025001525878906" y="0" type="line"/>
      <point x="227.0250015258789" y="0" type="line"/>
      <point x="227.0250015258789" y="800" type="line"/>
      <point x="47.025001525878906" y="800" type="line"/>
    </contour>
  </outline>
</glyph>
<glyph name="IJ" format="2">
  <advance width="501.55"/>
  <unicode hex="0132"/>
  <outline>
    <contour>
      <point x="35.775001525878906" y="246.6666717529297" type="line"/>
      <point x="215.7750015258789" y="246.6666717529297" type="line"/>
      <point x="215.7750015258789" y="800" type="line"/>
      <point x="35.775001525878906" y="800" type="line"/>
    </contour>
    <contour>
      <point x="343.2788772583008" y="-5" type="line"/>
      <point x="454.5250015258789" y="106.2461166381836" type="line"/>
      <point x="454.5250015258789" y="800" type="line"/>
      <point x="274.5250015258789" y="800" type="line"/>
      <point x="274.5250015258789" y="-5" type="line"/>
    </contour>
    <contour>
      <point x="227.025" y="175.0" type="line"/>
      <point x="47.025" y="175.0" type="line"/>
      <point x="47.025" y="106.24612" type="line"/>
      <point x="158.27112" y="-5.0" type="line"/>
      <point x="227.025" y="-5.0" type="line"/>
    </contour>
  </outline>
</glyph>
<glyph name="ij" format="2">
  <advance width="501.55"/>
  <unicode hex="0133"/>
  <outline>
    <contour>
      <point x="35.775" y="636.11111" type="line"/>
      <point x="215.775" y="636.11111" type="line"/>
      <point x="215.775" y="816.11111" type="line"/>
      <point x="35.775" y="816.11111" type="line"/>
    </contour>
    <contour>
      <point x="274.525" y="636.11111" type="line"/>
      <point x="454.525" y="636.11111" type="line"/>
      <point x="454.525" y="816.11111" type="line"/>
      <point x="274.525" y="816.11111" type="line"/>
    </contour>
    <contour>
      <point x="35.775001525878906" y="33.33332824707031" type="line"/>
      <point x="215.7750015258789" y="33.33332824707031" type="line"/>
      <point x="215.7750015258789" y="600" type="line"/>
      <point x="35.775001525878906" y="600" type="line"/>
    </contour>
    <contour>
      <point x="343.2788772583008" y="-210" type="line"/>
      <point x="454.5250015258789" y="-98.7538833618164" type="line"/>
      <point x="454.5250015258789" y="600" type="line"/>
      <point x="274.5250015258789" y="600" type="line"/>
      <point x="274.5250015258789" y="-210" type="line"/>
    </contour>
    <contour>
      <point x="232.65" y="-30.0" type="line"/>
      <point x="52.65" y="-30.0" type="line"/>
      <point x="52.65" y="-98.75388" type="line"/>
      <point x="163.89612" y="-210.0" type="line"/>
      <point x="232.65" y="-210.0" type="line"/>
    </contour>
  </outline>
</glyph>
<glyph name="J_with_circumflex" format="2">
  <advance width="501.55"/>
  <unicode hex="0134"/>
  <outline>
    <contour>
      <point x="176.4" y="1016.1111111111111" type="line"/>
      <point x="176.4" y="836.1111111111111" type="line"/>
      <point x="245.15388000000002" y="836.1111111111111" type="line"/>
      <point x="356.4" y="947.3572311111111" type="line"/>
      <point x="356.4" y="1016.1111111111111" type="line"/>
    </contour>
    <contour>
      <point x="547.65" y="1016.1111111111111" type="line"/>
      <point x="367.65" y="1016.1111111111111" type="line"/>
      <point x="367.65" y="947.3572311111111" type="line"/>
      <point x="478.89612" y="836.1111111111111" type="line"/>
      <point x="547.65" y="836.1111111111111" type="line"/>
    </contour>
    <contour>
      <point x="343.2788772583008" y="-5" type="line"/>
      <point x="454.5250015258789" y="106.2461166381836" type="line"/>
      <point x="454.5250015258789" y="800" type="line"/>
      <point x="274.5250015258789" y="800" type="line"/>
      <point x="274.5250015258789" y="-5" type="line"/>
    </contour>
    <contour>
      <point x="227.025" y="175.0" type="line"/>
      <point x="47.025" y="175.0" type="line"/>
      <point x="47.025" y="106.24612" type="line"/>
      <point x="158.27112" y="-5.0" type="line"/>
      <point x="227.025" y="-5.0" type="line"/>
    </contour>
  </outline>
</glyph>
<glyph name="j_with_circumflex" format="2">
  <advance width="501.55"/>
  <unicode hex="0135"/>
  <outline>
    <contour>
      <point x="179.2125" y="816.1111111111111" type="line"/>
      <point x="179.2125" y="636.1111111111111" type="line"/>
      <point x="247.96638000000002" y="636.1111111111111" type="line"/>
      <point x="359.2125" y="747.3572311111111" type="line"/>
      <point x="359.2125" y="816.1111111111111" type="line"/>
    </contour>
    <contour>
      <point x="550.4625" y="816.1111111111111" type="line"/>
      <point x="370.4625" y="816.1111111111111" type="line"/>
      <point x="370.4625" y="747.3572311111111" type="line"/>
      <point x="481.70862" y="636.1111111111111" type="line"/>
      <point x="550.4625" y="636.1111111111111" type="line"/>
    </contour>
    <contour>
      <point x="343.2788772583008" y="-210" type="line"/>
      <point x="454.5250015258789" y="-98.7538833618164" type="line"/>
      <point x="454.5250015258789" y="600" type="line"/>
      <point x="274.5250015258789" y="600" type="line"/>
      <point x="274.5250015258789" y="-210" type="line"/>
    </contour>
    <contour>
      <point x="232.65" y="-30.0" type="line"/>
      <point x="52.65" y="-30.0" type="line"/>
      <point x="52.65" y="-98.75388" type="line"/>
      <point x="163.89612" y="-210.0" type="line"/>
      <point x="232.65" y="-210.0" type="line"/>
    </contour>
  </outline>
</glyph>
<glyph name="L_with_acute" format="2">
  <advance width="501.55"/>
  <unicode hex="0139"/>
  <outline>
    <contour>
      <point x="239.525" y="1016.1111111111111" type="line"/>
      <point x="239.525" y="836.1111111111111" type="line"/>
      <point x="308.27888" y="836.1111111111111" type="line"/>
      <point x="419.525" y="947.3572311111111" type="line"/>
      <point x="419.525" y="1016.1111111111111" type="line"/>
    </contour>
    <contour>
      <point x="47.025001525878906" y="0" type="line"/>
      <point x="227.0250015258789" y="0" type="line"/>
      <point x="227.0250015258789" y="800" type="line"/>
      <point x="47.025001525878906" y="800" type="line"/>
    </contour>
    <contour>
      <point x="454.525" y="0.0" type="line"/>
      <point x="454.525" y="180.0" type="line"/>
      <point x="385.77112" y="180.0" type="line"/>
      <point x="274.525" y="68.75388" type="line"/>
      <point x="274.525" y="0.0" type="line"/>
    </contour>
  </outline>
</glyph>
<glyph name="l_with_acute" format="2">
  <advance width="274.05"/>
  <unicode hex="013A"/>
  <outline>
    <contour>
      <point x="125.775" y="1016.1111111111111" type="line"/>
      <point x="125.775" y="836.1111111111111" type="line"/>
      <point x="194.52888000000002" y="836.1111111111111" type="line"/>
      <point x="305.775" y="947.3572311111111" type="line"/>
      <point x="305.775" y="1016.1111111111111" type="line"/>
    </contour>
    <contour>
      <point x="158.2711181640625" y="-5" type="line"/>
      <point x="227.0250015258789" y="-5" type="line"/>
      <point x="227.0250015258789" y="800" type="line"/>
      <point x="47.025001525878906" y="800" type="line"/>
      <point x="47.025001525878906" y="106.2461166381836" type="line"/>
    </contour>
  </outline>
</glyph>
<glyph name="L_with_cedilla" format="2">
  <advance width="501.55"/>
  <unicode hex="013B"/>
  <outline>
    <contour>
      <point x="47.025001525878906" y="0" type="line"/>
      <point x="227.0250015258789" y="0" type="line"/>
      <point x="227.0250015258789" y="800" type="line"/>
      <point x="47.025001525878906" y="800" type="line"/>
    </contour>
    <contour>
      <point x="454.525" y="0.0" type="line"/>
      <point x="454.525" y="180.0" type="line"/>
      <point x="385.77112" y="180.0" type="line"/>
      <point x="274.525" y="68.75388" type="line"/>
      <point x="274.525" y="0.0" type="line"/>
    </contour>
    <contour>
      <point x="239.525" y="-205.0" type="line"/>
      <point x="419.525" y="-205.0" type="line"/>
      <point x="419.525" y="-136.24612000000002" type="line"/>
      <point x="308.27888" y="-25.0" type="line"/>
      <point x="239.525" y="-25.0" type="line"/>
    </contour>
  </outline>
</glyph>
<glyph name="l_with_cedilla" format="2">
  <advance width="274.05"/>
  <unicode hex="013C"/>
  <outline>
    <contour>
      <point x="158.2711181640625" y="-5" type="line"/>
      <point x="227.0250015258789" y="-5" type="line"/>
      <point x="227.0250015258789" y="800" type="line"/>
      <point x="47.025001525878906" y="800" type="line"/>
      <point x="47.025001525878906" y="106.2461166381836" type="line"/>
    </contour>
    <contour>
      <point x="125.775" y="-210.0" type="line"/>
      <point x="305.775" y="-210.0" type="line"/>
      <point x="305.775" y="-141.24612000000002" type="line"/>
      <point x="194.52888000000002" y="-30.0" type="line"/>
      <point x="125.775" y="-30.0" type="line"/>
    </contour>
  </outline>
</glyph>
<glyph name="L_with_stroke" format="2">
  <advance width="524.05"/>
  <unicode hex="0141"/>
  <outline>
    <contour>
      <point x="69.5250015258789" y="0" type="line"/>
      <point x="249.5250015258789" y="0" type="line"/>
      <point x="249.5250015258789" y="420" type="line"/>
      <point x="250.77887725830078" y="420" type="line"/>
      <point x="362.0250015258789" y="531.2461166381836" type="line"/>
      <point x="362.0250015258789" y="600" type="line"/>
      <point x="249.5250015258789" y="600" type="line"/>
      <point x="249.5250015258789" y="800" type="line"/>
      <point x="69.5250015258789" y="800" type="line"/>
      <point x="69.5250015258789" y="500" type="line"/>
      <point x="68.2711181640625" y="500" type="line"/>
      <point x="-42.974998474121094" y="388.7538833618164" type="line"/>
      <point x="-42.974998474121094" y="320" type="line"/>
      <point x="69.5250015258789" y="320" type="line"/>
    </contour>
    <contour>
      <point x="477.025" y="0.0" type="line"/>
      <point x="477.025" y="180.0" type="line"/>
      <point x="408.27112" y="180.0" type="line"/>
      <point x="297.025" y="68.75388" type="line"/>
      <point x="297.025" y="0.0" type="line"/>
    </contour>
  </outline>
</glyph>
<glyph name="l_with_stroke" format="2">
  <advance width="319.05"/>
  <unicode hex="0142"/>
  <outline>
    <contour>
      <point x="68.2711181640625" y="500" type="line"/>
      <point x="-42.974998474121094" y="388.7538833618164" type="line"/>
      <point x="-42.974998474121094" y="320" type="line"/>
      <point x="69.5250015258789" y="320" type="line"/>
      <point x="69.5250015258789" y="106.2461166381836" type="line"/>
      <point x="180.7711181640625" y="-5" type="line"/>
      <point x="249.5250015258789" y="-5" type="line"/>
      <point x="249.5250015258789" y="420" type="line"/>
      <point x="250.77887725830078" y="420" type="line"/>
      <point x="362.0250015258789" y="531.2461166381836" type="line"/>
      <point x="362.0250015258789" y="600" type="line"/>
      <point x="249.5250015258789" y="600" type="line"/>
      <point x="249.5250015258789" y="800" type="line"/>
      <point x="69.5250015258789" y="800" type="line"/>
      <point x="69.5250015258789" y="500" type="line"/>
    </contour>
  </outline>
</glyph>
<glyph name="N_with_cedilla" format="2">
  <advance width="501.55"/>
  <unicode hex="0145"/>
  <outline>
    <contour>
      <point x="47.025001525878906" y="0" type="line"/>
      <point x="227.0250015258789" y="0" type="line"/>
      <point x="227.0250015258789" y="800" type="line"/>
      <point x="47.025001525878906" y="800" type="line"/>
    </contour>
    <contour>
      <point x="274.5250015258789" y="0" type="line"/>
      <point x="454.5250015258789" y="0" type="line"/>
      <point x="454.5250015258789" y="688.7538833618164" type="line"/>
      <point x="343.2788772583008" y="800" type="line"/>
      <point x="274.5250015258789" y="800" type="line"/>
    </contour>
    <contour>
      <point x="239.525" y="-205.0" type="line"/>
      <point x="419.525" y="-205.0" type="line"/>
      <point x="419.525" y="-136.24612000000002" type="line"/>
      <point x="308.27888" y="-25.0" type="line"/>
      <point x="239.525" y="-25.0" type="line"/>
    </contour>
  </outline>
</glyph>
<glyph name="n_with_cedilla" format="2">
  <advance width="501.55"/>
  <unicode hex="0146"/>
  <outline>
    <contour>
      <point x="47.025001525878906" y="0" type="line"/>
      <point x="227.0250015258789" y="0" type="line"/>
      <point x="227.0250015258789" y="600" type="line"/>
      <point x="47.025001525878906" y="600" type="line"/>
    </contour>
    <contour>
      <point x="274.5250015258789" y="0" type="line"/>
      <point x="454.5250015258789" y="0" type="line"/>
      <point x="454.5250015258789" y="488.7538833618164" type="line"/>
      <point x="343.2788772583008" y="600" type="line"/>
      <point x="274.5250015258789" y="600" type="line"/>
    </contour>
    <contour>
      <point x="239.525" y="-205.0" type="line"/>
      <point x="419.525" y="-205.0" type="line"/>
      <point x="419.525" y="-136.24612000000002" type="line"/>
      <point x="308.27888" y="-25.0" type="line"/>
      <point x="239.525" y="-25.0" type="line"/>
    </contour>
  </outline>
</glyph>
<glyph name="ENG" format="2">
  <advance width="501.55"/>
  <unicode hex="014A"/>
  <outline>
    <contour>
      <point x="47.025001525878906" y="0" type="line"/>
      <point x="227.0250015258789" y="0" type="line"/>
      <point x="227.0250015258789" y="800" type="line"/>
      <point x="47.025001525878906" y="800" type="line"/>
    </contour>
    <contour>
      <point x="343.2788772583008" y="-200" type="line"/>
      <point x="454.5250015258789" y="-88.7538833618164" type="line"/>
      <point x="454.5250015258789" y="688.7538833618164" type="line"/>
      <point x="343.2788772583008" y="800" type="line"/>
      <point x="274.5250015258789" y="800" type="line"/>
      <point x="274.5250015258789" y="-200" type="line"/>
    </contour>
  </outline>
</glyph>
<glyph name="oe" format="2">
  <advance width="956.55"/>
  <unicode hex="0153"/>
  <outline>
    <contour>
      <point x="158.2711181640625" y="-5" type="line"/>
      <point x="227.0250015258789" y="-5" type="line"/>
      <point x="227.0250015258789" y="605" type="line"/>
      <point x="158.2711181640625" y="605" type="line"/>
      <point x="47.025001525878906" y="493.7538833618164" type="line"/>
      <point x="47.025001525878906" y="106.2461166381836" type="line"/>
    </contour>
    <contour>
      <point x="343.2788772583008" y="-5" type="line"/>
      <point x="454.5250015258789" y="106.2461166381836" type="line"/>
      <point x="454.5250015258789" y="493.7538833618164" type="line"/>
      <point x="343.2788772583008" y="605" type="line"/>
      <point x="274.5250015258789" y="605" type="line"/>
      <point x="274.5250015258789" y="-5" type="line"/>
    </contour>
    <contour>
      <point x="613.2711181640625" y="-5" type="line"/>
      <point x="682.0250015258789" y="-5" type="line"/>
      <point x="682.0250015258789" y="605" type="line"/>
      <point x="613.2711181640625" y="605" type="line"/>
      <point x="502.0250015258789" y="493.7538833618164" type="line"/>
      <point x="502.0250015258789" y="106.2461166381836" type="line"/>
    </contour>
    <contour>
      <point x="729.5250015258789" y="195" type="line"/>
      <point x="909.5250015258789" y="195" type="line"/>
      <point x="909.5250015258789" y="493.7538833618164" type="line"/>
      <point x="798.2788772583008" y="605" type="line"/>
      <point x="729.5250015258789" y="605" type="line"/>
    </contour>
  </outline>
</glyph>
<glyph name="r_with_acute" format="2">
  <advance width="501.55"/>
  <unicode hex="0155"/>
  <outline>
    <contour>
      <point x="239.525" y="816.1111111111111" type="line"/>
      <point x="239.525" y="636.1111111111111" type="line"/>
      <point x="308.27888" y="636.1111111111111" type="line"/>
      <point x="419.525" y="747.3572311111111" type="line"/>
      <point x="419.525" y="816.1111111111111" type="line"/>
    </contour>
    <contour>
      <point x="47.025001525878906" y="0" type="line"/>
      <point x="227.0250015258789" y="0" type="line"/>
      <point x="227.0250015258789" y="600" type="line"/>
      <point x="47.025001525878906" y="600" type="line"/>
    </contour>
    <contour>
      <point x="454.525" y="600.0" type="line"/>
      <point x="274.525" y="600.0" type="line"/>
      <point x="274.525" y="531.24612" type="line"/>
      <point x="385.77112" y="420.0" type="line"/>
      <point x="454.525" y="420.0" type="line"/>
    </contour>
  </outline>
</glyph>
<glyph name="r_with_cedilla" format="2">
  <advance width="501.55"/>
  <unicode hex="0157"/>
  <outline>
    <contour>
      <point x="47.025001525878906" y="0" type="line"/>
      <point x="227.0250015258789" y="0" type="line"/>
      <point x="227.0250015258789" y="600" type="line"/>
      <point x="47.025001525878906" y="600" type="line"/>
    </contour>
    <contour>
      <point x="454.525" y="600.0" type="line"/>
      <point x="274.525" y="600.0" type="line"/>
      <point x="274.525" y="531.24612" type="line"/>
      <point x="385.77112" y="420.0" type="line"/>
      <point x="454.525" y="420.0" type="line"/>
    </contour>
    <contour>
      <point x="239.525" y="-205.0" type="line"/>
      <point x="419.525" y="-205.0" type="line"/>
      <point x="419.525" y="-136.24612000000002" type="line"/>
      <point x="308.27888" y="-25.0" type="line"/>
      <point x="239.525" y="-25.0" type="line"/>
    </contour>
  </outline>
</glyph>
<glyph name="r_with_caron" format="2">
  <advance width="501.55"/>
  <unicode hex="0159"/>
  <outline>
    <contour>
      <point x="65.15" y="636.1111111111111" type="line"/>
      <point x="245.15" y="636.1111111111111" type="line"/>
      <point x="245.15" y="704.8649911111111" type="line"/>
      <point x="133.90388000000002" y="816.1111111111111" type="line"/>
      <point x="65.15" y="816.1111111111111" type="line"/>
    </contour>
    <contour>
      <point x="436.4" y="636.1111111111111" type="line"/>
      <point x="436.4" y="816.1111111111111" type="line"/>
      <point x="367.64612" y="816.1111111111111" type="line"/>
      <point x="256.4" y="704.8649911111111" type="line"/>
      <point x="256.4" y="636.1111111111111" type="line"/>
    </contour>
    <contour>
      <point x="47.025001525878906" y="0" type="line"/>
      <point x="227.0250015258789" y="0" type="line"/>
      <point x="227.0250015258789" y="600" type="line"/>
      <point x="47.025001525878906" y="600" type="line"/>
    </contour>
    <contour>
      <point x="454.525" y="600.0" type="line"/>
      <point x="274.525" y="600.0" type="line"/>
      <point x="274.525" y="531.24612" type="line"/>
      <point x="385.77112" y="420.0" type="line"/>
      <point x="454.525" y="420.0" type="line"/>
    </contour>
  </outline>
</glyph>
<glyph name="S_with_acute" format="2">
  <advance width="501.55"/>
  <unicode hex="015A"/>
  <outline>
    <contour>
      <point x="239.525" y="1016.1111111111111" type="line"/>
      <point x="239.525" y="836.1111111111111" type="line"/>
      <point x="308.27888" y="836.1111111111111" type="line"/>
      <point x="419.525" y="947.3572311111111" type="line"/>
      <point x="419.525" y="1016.1111111111111" type="line"/>
    </contour>
    <contour>
      <point x="158.2711181640625" y="310" type="line"/>
      <point x="227.0250015258789" y="310" type="line"/>
      <point x="227.0250015258789" y="800" type="line"/>
      <point x="158.2711181640625" y="800" type="line"/>
      <point x="47.025001525878906" y="688.7538833618164" type="line"/>
      <point x="47.025001525878906" y="421.2461166381836" type="line"/>
    </contour>
    <contour>
      <point x="448.9" y="800.0" type="line"/>
      <point x="268.9" y="800.0" type="line"/>
      <point x="268.9" y="731.24612" type="line"/>
      <point x="380.14612" y="620.0" type="line"/>
      <point x="448.9" y="620.0" type="line"/>
    </contour>
    <contour>
      <point x="343.2788772583008" y="0" type="line"/>
      <point x="454.5250015258789" y="111.2461166381836" type="line"/>
      <point x="454.5250015258789" y="378.7538833618164" type="line"/>
      <point x="343.2788772583008" y="490" type="line"/>
      <point x="274.5250015258789" y="490" type="line"/>
      <point x="274.5250015258789" y="0" type="line"/>
    </contour>
    <contour>
      <point x="49.8375" y="0" type="line"/>
      <point x="229.8375" y="0" type="line"/>
      <point x="229.8375" y="68.75388" type="line"/>
      <point x="118.59137999999999" y="180.0" type="line"/>
      <point x="49.8375" y="180.0" type="line"/>
    </contour>
  </outline>
</glyph>
<glyph name="s_with_circumflex" format="2">
  <advance width="501.55"/>
  <unicode hex="015D"/>
  <outline>
    <contour>
      <point x="65.15" y="816.1111111111111" type="line"/>
      <point x="65.15" y="636.1111111111111" type="line"/>
      <point x="133.90388000000002" y="636.1111111111111" type="line"/>
      <point x="245.15" y="747.3572311111111" type="line"/>
      <point x="245.15" y="816.1111111111111" type="line"/>
    </contour>
    <contour>
      <point x="436.4" y="816.1111111111111" type="line"/>
      <point x="256.4" y="816.1111111111111" type="line"/>
      <point x="256.4" y="747.3572311111111" type="line"/>
      <point x="367.64612" y="636.1111111111111" type="line"/>
      <point x="436.4" y="636.1111111111111" type="line"/>
    </contour>
    <contour>
      <point x="158.2711181640625" y="210" type="line"/>
      <point x="227.0250015258789" y="210" type="line"/>
      <point x="227.0250015258789" y="600" type="line"/>
      <point x="158.2711181640625" y="600" type="line"/>
      <point x="47.025001525878906" y="488.7538833618164" type="line"/>
      <point x="47.025001525878906" y="321.2461166381836" type="line"/>
    </contour>
    <contour>
      <point x="448.9" y="600.0" type="line"/>
      <point x="268.9" y="600.0" type="line"/>
      <point x="268.9" y="531.24612" type="line"/>
      <point x="380.14612" y="420.0" type="line"/>
      <point x="448.9" y="420.0" type="line"/>
    </contour>
    <contour>
      <point x="343.2788772583008" y="-5" type="line"/>
      <point x="454.5250015258789" y="106.2461166381836" type="line"/>
      <point x="454.5250015258789" y="273.7538833618164" type="line"/>
      <point x="343.2788772583008" y="385" type="line"/>
      <point x="274.5250015258789" y="385" type="line"/>
      <point x="274.5250015258789" y="-5" type="line"/>
    </contour>
    <contour>
      <point x="49.8375" y="0" type="line"/>
      <point x="229.8375" y="0" type="line"/>
      <point x="229.8375" y="68.75388" type="line"/>
      <point x="118.59137999999999" y="180.0" type="line"/>
      <point x="49.8375" y="180.0" type="line"/>
    </contour>
  </outline>
</glyph>
<glyph name="s_with_cedilla" format="2">
  <advance width="501.55"/>
  <unicode hex="015F"/>
  <outline>
    <contour>
      <point x="158.2711181640625" y="210" type="line"/>
      <point x="227.0250015258789" y="210" type="line"/>
      <point x="227.0250015258789" y="600" type="line"/>
      <point x="158.2711181640625" y="600" type="line"/>
      <point x="47.025001525878906" y="488.7538833618164" type="line"/>
      <point x="47.025001525878906" y="321.2461166381836" type="line"/>
    </contour>
    <contour>
      <point x="448.9" y="600.0" type="line"/>
      <point x="268.9" y="600.0" type="line"/>
      <point x="268.9" y="531.24612" type="line"/>
      <point x="380.14612" y="420.0" type="line"/>
      <point x="448.9" y="420.0" type="line"/>
    </contour>
    <contour>
      <point x="343.2788772583008" y="-5" type="line"/>
      <point x="454.5250015258789" y="106.2461166381836" type="line"/>
      <point x="454.5250015258789" y="273.7538833618164" type="line"/>
      <point x="343.2788772583008" y="385" type="line"/>
      <point x="274.5250015258789" y="385" type="line"/>
      <point x="274.5250015258789" y="-5" type="line"/>
    </contour>
    <contour>
      <point x="49.8375" y="0" type="line"/>
      <point x="229.8375" y="0" type="line"/>
      <point x="229.8375" y="68.75388" type="line"/>
      <point x="118.59137999999999" y="180.0" type="line"/>
      <point x="49.8375" y="180.0" type="line"/>
    </contour>
    <contour>
      <point x="239.525" y="-210.0" type="line"/>
      <point x="419.525" y="-210.0" type="line"/>
      <point x="419.525" y="-141.24612000000002" type="line"/>
      <point x="308.27888" y="-30.0" type="line"/>
      <point x="239.525" y="-30.0" type="line"/>
    </contour>
  </outline>
</glyph>
<glyph name="T_with_cedilla" format="2">
  <advance width="729.05"/>
  <unicode hex="0162"/>
  <outline>
    <contour>
      <point x="47.025" y="800.0" type="line"/>
      <point x="47.025" y="620.0" type="line"/>
      <point x="115.77887999999999" y="620.0" type="line"/>
      <point x="227.025" y="731.24612" type="line"/>
      <point x="227.025" y="800.0" type="line"/>
    </contour>
    <contour>
      <point x="274.5250015258789" y="0" type="line"/>
      <point x="454.5250015258789" y="0" type="line"/>
      <point x="454.5250015258789" y="800" type="line"/>
      <point x="274.5250015258789" y="800" type="line"/>
    </contour>
    <contour>
      <point x="682.025" y="800.0" type="line"/>
      <point x="502.025" y="800.0" type="line"/>
      <point x="502.025" y="731.24612" type="line"/>
      <point x="613.27112" y="620.0" type="line"/>
      <point x="682.025" y="620.0" type="line"/>
    </contour>
    <contour>
      <point x="353.275" y="-205.0" type="line"/>
      <point x="533.275" y="-205.0" type="line"/>
      <point x="533.275" y="-136.24612000000002" type="line"/>
      <point x="422.02887999999996" y="-25.0" type="line"/>
      <point x="353.275" y="-25.0" type="line"/>
    </contour>
  </outline>
</glyph>
<glyph name="t_with_cedilla" format="2">
  <advance width="501.55"/>
  <unicode hex="0163"/>
  <outline>
    <contour>
      <point x="47.025001525878906" y="0" type="line"/>
      <point x="227.0250015258789" y="0" type="line"/>
      <point x="227.0250015258789" y="800" type="line"/>
      <point x="158.2711181640625" y="800" type="line"/>
      <point x="47.025001525878906" y="688.7538833618164" type="line"/>
    </contour>
    <contour>
      <point x="274.525" y="600.0" type="line"/>
      <point x="274.525" y="420.0" type="line"/>
      <point x="343.27887999999996" y="420.0" type="line"/>
      <point x="454.525" y="531.24612" type="line"/>
      <point x="454.525" y="600.0" type="line"/>
    </contour>
    <contour>
      <point x="137.65" y="-205.0" type="line"/>
      <point x="317.65" y="-205.0" type="line"/>
      <point x="317.65" y="-136.24612000000002" type="line"/>
      <point x="206.40388000000002" y="-25.0" type="line"/>
      <point x="137.65" y="-25.0" type="line"/>
    </contour>
  </outline>
</glyph>
<glyph name="U_with_smalltilde" format="2">
  <advance width="501.55"/>
  <unicode hex="0168"/>
  <outline>
    <contour>
      <point x="70.7750015258789" y="904.864990234375" type="line"/>
      <point x="70.7750015258789" y="836.1111145019531" type="line"/>
      <point x="319.5288772583008" y="836.1111145019531" type="line"/>
      <point x="430.7750015258789" y="947.3572311401367" type="line"/>
      <point x="430.7750015258789" y="1016.1111145019531" type="line"/>
      <point x="182.0211181640625" y="1016.1111145019531" type="line"/>
    </contour>
    <contour>
      <point x="158.2711181640625" y="-5" type="line"/>
      <point x="227.0250015258789" y="-5" type="line"/>
      <point x="227.0250015258789" y="800" type="line"/>
      <point x="47.025001525878906" y="800" type="line"/>
      <point x="47.025001525878906" y="106.2461166381836" type="line"/>
    </contour>
    <contour>
      <point x="343.2788772583008" y="-5" type="line"/>
      <point x="454.5250015258789" y="106.2461166381836" type="line"/>
      <point x="454.5250015258789" y="800" type="line"/>
      <point x="274.5250015258789" y="800" type="line"/>
      <point x="274.5250015258789" y="-5" type="line"/>
    </contour>
  </outline>
</glyph>
<glyph name="U_with_ring" format="2">
  <advance width="501.55"/>
  <unicode hex="016E"/>
  <outline>
    <contour>
      <point x="227.025" y="1021.1111111111111" type="line"/>
      <point x="190.73823000000002" y="1021.1111111111111" type="line"/>
      <point x="132.025" y="962.3978811111111" type="line"/>
      <point x="132.025" y="889.824341111111" type="line"/>
      <point x="190.73823000000002" y="831.1111111111111" type="line"/>
      <point x="227.025" y="831.1111111111111" type="line"/>
    </contour>
    <contour>
      <point x="274.525" y="831.1111111111111" type="line"/>
      <point x="310.81177" y="831.1111111111111" type="line"/>
      <point x="369.525" y="889.824341111111" type="line"/>
      <point x="369.525" y="962.3978811111111" type="line"/>
      <point x="310.81177" y="1021.1111111111111" type="line"/>
      <point x="274.525" y="1021.1111111111111" type="line"/>
    </contour>
    <contour>
      <point x="158.2711181640625" y="-5" type="line"/>
      <point x="227.0250015258789" y="-5" type="line"/>
      <point x="227.0250015258789" y="800" type="line"/>
      <point x="47.025001525878906" y="800" type="line"/>
      <point x="47.025001525878906" y="106.2461166381836" type="line"/>
    </contour>
    <contour>
      <point x="343.2788772583008" y="-5" type="line"/>
      <point x="454.5250015258789" y="106.2461166381836" type="line"/>
      <point x="454.5250015258789" y="800" type="line"/>
      <point x="274.5250015258789" y="800" type="line"/>
      <point x="274.5250015258789" y="-5" type="line"/>
    </contour>
  </outline>
</glyph>
<glyph name="u_with_ring" format="2">
  <advance width="501.55"/>
  <unicode hex="016F"/>
  <outline>
    <contour>
      <point x="227.025" y="821.1111111111111" type="line"/>
      <point x="190.73823000000002" y="821.1111111111111" type="line"/>
      <point x="132.025" y="762.3978811111111" type="line"/>
      <point x="132.025" y="689.824341111111" type="line"/>
      <point x="190.73823000000002" y="631.1111111111111" type="line"/>
      <point x="227.025" y="631.1111111111111" type="line"/>
    </contour>
    <contour>
      <point x="274.525" y="631.1111111111111" type="line"/>
      <point x="310.81177" y="631.1111111111111" type="line"/>
      <point x="369.525" y="689.824341111111" type="line"/>
      <point x="369.525" y="762.3978811111111" type="line"/>
      <point x="310.81177" y="821.1111111111111" type="line"/>
      <point x="274.525" y="821.1111111111111" type="line"/>
    </contour>
    <contour>
      <point x="158.2711181640625" y="-5" type="line"/>
      <point x="227.0250015258789" y="-5" type="line"/>
      <point x="227.0250015258789" y="600" type="line"/>
      <point x="47.025001525878906" y="600" type="line"/>
      <point x="47.025001525878906" y="106.2461166381836" type="line"/>
    </contour>
    <contour>
      <point x="343.2788772583008" y="-5" type="line"/>
      <point x="454.5250015258789" y="106.2461166381836" type="line"/>
      <point x="454.5250015258789" y="600" type="line"/>
      <point x="274.5250015258789" y="600" type="line"/>
      <point x="274.5250015258789" y="-5" type="line"/>
    </contour>
  </outline>
</glyph>
<glyph name="u_with_acutedbl" format="2">
  <advance width="501.55"/>
  <unicode hex="0171"/>
  <outline>
    <contour>
      <point x="47.025000000000006" y="816.1111111111111" type="line"/>
      <point x="47.025000000000006" y="636.1111111111111" type="line"/>
      <point x="115.77888" y="636.1111111111111" type="line"/>
      <point x="227.025" y="747.3572311111111" type="line"/>
      <point x="227.025" y="816.1111111111111" type="line"/>
    </contour>
    <contour>
      <point x="274.525" y="816.1111111111111" type="line"/>
      <point x="274.525" y="636.1111111111111" type="line"/>
      <point x="343.27887999999996" y="636.1111111111111" type="line"/>
      <point x="454.525" y="747.3572311111111" type="line"/>
      <point x="454.525" y="816.1111111111111" type="line"/>
    </contour>
    <contour>
      <point x="158.2711181640625" y="-5" type="line"/>
      <point x="227.0250015258789" y="-5" type="line"/>
      <point x="227.0250015258789" y="600" type="line"/>
      <point x="47.025001525878906" y="600" type="line"/>
      <point x="47.025001525878906" y="106.2461166381836" type="line"/>
    </contour>
    <contour>
      <point x="343.2788772583008" y="-5" type="line"/>
      <point x="454.5250015258789" y="106.2461166381836" type="line"/>
      <point x="454.5250015258789" y="600" type="line"/>
      <point x="274.5250015258789" y="600" type="line"/>
      <point x="274.5250015258789" y="-5" type="line"/>
    </contour>
  </outline>
</glyph>
<glyph name="U_with_ogonek" format="2">
  <advance width="501.55"/>
  <unicode hex="0172"/>
  <outline>
    <contour>
      <point x="158.2711181640625" y="-5" type="line"/>
      <point x="227.0250015258789" y="-5" type="line"/>
      <point x="227.0250015258789" y="800" type="line"/>
      <point x="47.025001525878906" y="800" type="line"/>
      <point x="47.025001525878906" y="106.2461166381836" type="line"/>
    </contour>
    <contour>
      <point x="343.2788772583008" y="-5" type="line"/>
      <point x="454.5250015258789" y="106.2461166381836" type="line"/>
      <point x="454.5250015258789" y="800" type="line"/>
      <point x="274.5250015258789" y="800" type="line"/>
      <point x="274.5250015258789" y="-5" type="line"/>
    </contour>
    <contour>
      <point x="250.77499999999998" y="-210.0" type="line"/>
      <point x="250.77499999999998" y="-30.0" type="line"/>
      <point x="182.02111999999997" y="-30.0" type="line"/>
      <point x="70.77499999999998" y="-141.24612000000002" type="line"/>
      <point x="70.77499999999998" y="-210.0" type="line"/>
    </contour>
  </outline>
</glyph>
<glyph name="W_with_circumflex" format="2">
  <advance width="729.05"/>
  <unicode hex="0174"/>
  <outline>
    <contour>
      <point x="178.89999999999998" y="1016.1111111111111" type="line"/>
      <point x="178.89999999999998" y="836.1111111111111" type="line"/>
      <point x="247.65387999999996" y="836.1111111111111" type="line"/>
      <point x="358.9" y="947.3572311111111" type="line"/>
      <point x="358.9" y="1016.1111111111111" type="line"/>
    </contour>
    <contour>
      <point x="550.15" y="1016.1111111111111" type="line"/>
      <point x="370.15" y="1016.1111111111111" type="line"/>
      <point x="370.15" y="947.3572311111111" type="line"/>
      <point x="481.39612" y="836.1111111111111" type="line"/>
      <point x="550.15" y="836.1111111111111" type="line"/>
    </contour>
    <contour>
      <point x="158.2711181640625" y="0" type="line"/>
      <point x="227.0250015258789" y="0" type="line"/>
      <point x="227.0250015258789" y="688.7538833618164" type="line"/>
      <point x="115.77887725830078" y="800" type="line"/>
      <point x="47.025001525878906" y="800" type="line"/>
      <point x="47.025001525878906" y="111.2461166381836" type="line"/>
    </contour>
    <contour>
      <point x="274.5250015258789" y="0" type="line"/>
      <point x="454.5250015258789" y="0" type="line"/>
      <point x="454.5250015258789" y="688.7538833618164" type="line"/>
      <point x="343.2788772583008" y="800" type="line"/>
      <point x="274.5250015258789" y="800" type="line"/>
    </contour>
    <contour>
      <point x="570.7788772583008" y="0" type="line"/>
      <point x="682.0250015258789" y="111.2461166381836" type="line"/>
      <point x="682.0250015258789" y="800" type="line"/>
      <point x="502.0250015258789" y="800" type="line"/>
      <point x="502.0250015258789" y="0" type="line"/>
    </contour>
  </outline>
</glyph>
<glyph name="y_with_circumflex" format="2">
  <advance width="501.55"/>
  <unicode hex="0177"/>
  <outline>
    <contour>
      <point x="65.15" y="816.1111111111111" type="line"/>
      <point x="65.15" y="636.1111111111111" type="line"/>
      <point x="133.90388000000002" y="636.1111111111111" type="line"/>
      <point x="245.15" y="747.3572311111111" type="line"/>
      <point x="245.15" y="816.1111111111111" type="line"/>
    </contour>
    <contour>
      <point x="436.4" y="816.1111111111111" type="line"/>
      <point x="256.4" y="816.1111111111111" type="line"/>
      <point x="256.4" y="747.3572311111111" type="line"/>
      <point x="367.64612" y="636.1111111111111" type="line"/>
      <point x="436.4" y="636.1111111111111" type="line"/>
    </contour>
    <contour>
      <point x="158.2711181640625" y="5" type="line"/>
      <point x="227.0250015258789" y="5" type="line"/>
      <point x="227.0250015258789" y="488.7538833618164" type="line"/>
      <point x="115.77887725830078" y="600" type="line"/>
      <point x="47.025001525878906" y="600" type="line"/>
      <point x="47.025001525878906" y="116.2461166381836" type="line"/>
    </contour>
    <contour>
      <point x="343.2788772583008" y="-210" type="line"/>
      <point x="454.5250015258789" y="-98.7538833618164" type="line"/>
      <point x="454.5250015258789" y="600" type="line"/>
      <point x="274.5250015258789" y="600" type="line"/>
      <point x="274.5250015258789" y="-210" type="line"/>
    </contour>
    <contour>
      <point x="227.025" y="-30.0" type="line"/>
      <point x="47.025" y="-30.0" type="line"/>
      <point x="47.025" y="-98.75388" type="line"/>
      <point x="158.27112" y="-210.0" type="line"/>
      <point x="227.025" y="-210.0" type="line"/>
    </contour>
  </outline>
</glyph>
<glyph name="z_with_caron" format="2">
  <advance width="501.55"/>
  <unicode hex="017E"/>
  <outline>
    <contour>
      <point x="65.15" y="636.1111111111111" type="line"/>
      <point x="245.15" y="636.1111111111111" type="line"/>
      <point x="245.15" y="704.8649911111111" type="line"/>
      <point x="133.90388000000002" y="816.1111111111111" type="line"/>
      <point x="65.15" y="816.1111111111111" type="line"/>
    </contour>
    <contour>
      <point x="436.4" y="636.1111111111111" type="line"/>
      <point x="436.4" y="816.1111111111111" type="line"/>
      <point x="367.64612" y="816.1111111111111" type="line"/>
      <point x="256.4" y="704.8649911111111" type="line"/>
      <point x="256.4" y="636.1111111111111" type="line"/>
    </contour>
    <contour>
      <point x="47.025" y="600.0" type="line"/>
      <point x="47.025" y="420.0" type="line"/>
      <point x="115.77887999999999" y="420.0" type="line"/>
      <point x="227.025" y="531.24612" type="line"/>
      <point x="227.025" y="600.0" type="line"/>
    </contour>
    <contour>
      <point x="343.2788772583008" y="210" type="line"/>
      <point x="454.5250015258789" y="321.2461166381836" type="line"/>
      <point x="454.5250015258789" y="600" type="line"/>
      <point x="274.5250015258789" y="600" type="line"/>
      <point x="274.5250015258789" y="210" type="line"/>
    </contour>
    <contour>
      <point x="47.025001525878906" y="0" type="line"/>
      <point x="227.0250015258789" y="0" type="line"/>
      <point x="227.0250015258789" y="390" type="line"/>
      <point x="158.2711181640625" y="390" type="line"/>
      <point x="47.025001525878906" y="278.7538833618164" type="line"/>
    </contour>
    <contour>
      <point x="454.525" y="0.0" type="line"/>
      <point x="454.525" y="180.0" type="line"/>
      <point x="385.77112" y="180.0" type="line"/>
      <point x="274.525" y="68.75388" type="line"/>
      <point x="274.525" y="0.0" type="line"/>
    </contour>
  </outline>
</glyph>
<glyph name="florin" format="2">
  <advance width="729.05"/>
  <unicode hex="0192"/>
  <outline>
    <contour>
      <point x="343.2788772583008" y="0" type="line"/>
      <point x="454.5250015258789" y="111.2461166381836" type="line"/>
      <point x="454.5250015258789" y="805" type="line"/>
      <point x="385.7711181640625" y="805" type="line"/>
      <point x="274.5250015258789" y="693.7538833618164" type="line"/>
      <point x="274.5250015258789" y="0" type="line"/>
    </contour>
    <contour>
      <point x="687.025" y="746.28677" type="line"/>
      <point x="628.31177" y="805.0" type="line"/>
      <point x="555.73823" y="805.0" type="line"/>
      <point x="497.025" y="746.28677" type="line"/>
      <point x="497.025" y="673.71323" type="line"/>
      <point x="555.73823" y="615.0" type="line"/>
      <point x="628.31177" y="615.0" type="line"/>
      <point x="687.025" y="673.71323" type="line"/>
    </contour>
    <contour>
      <point x="114.5250015258789" y="405" type="line"/>
      <point x="227.0250015258789" y="405" type="line"/>
      <point x="227.0250015258789" y="495" type="line"/>
      <point x="114.5250015258789" y="495" type="line"/>
    </contour>
    <contour>
      <point x="502.0250015258789" y="405" type="line"/>
      <point x="637.0250015258789" y="405" type="line"/>
      <point x="637.0250015258789" y="495" type="line"/>
      <point x="502.0250015258789" y="495" type="line"/>
    </contour>
    <contour>
      <point x="232.025" y="126.28677" type="line"/>
      <point x="173.31177" y="185.0" type="line"/>
      <point x="100.73823" y="185.0" type="line"/>
      <point x="42.025" y="126.28677" type="line"/>
      <point x="42.025" y="53.71323" type="line"/>
      <point x="100.73823" y="-5.0" type="line"/>
      <point x="173.31177" y="-5.0" type="line"/>
      <point x="232.025" y="53.71323" type="line"/>
    </contour>
  </outline>
</glyph>
<glyph name="AE_with_acute" format="2">
  <advance width="956.55"/>
  <unicode hex="01FC"/>
  <outline>
    <contour>
      <point x="467.025" y="1016.1111111111111" type="line"/>
      <point x="467.025" y="836.1111111111111" type="line"/>
      <point x="535.77888" y="836.1111111111111" type="line"/>
      <point x="647.025" y="947.3572311111111" type="line"/>
      <point x="647.025" y="1016.1111111111111" type="line"/>
    </contour>
    <contour>
      <point x="47.025001525878906" y="0" type="line"/>
      <point x="227.0250015258789" y="0" type="line"/>
      <point x="227.0250015258789" y="805" type="line"/>
      <point x="158.2711181640625" y="805" type="line"/>
      <point x="47.025001525878906" y="693.7538833618164" type="line"/>
    </contour>
    <contour>
      <point x="274.5250015258789" y="0" type="line"/>
      <point x="454.5250015258789" y="0" type="line"/>
      <point x="454.5250015258789" y="693.7538833618164" type="line"/>
      <point x="343.2788772583008" y="805" type="line"/>
      <point x="274.5250015258789" y="805" type="line"/>
    </contour>
    <contour>
      <point x="502.0250015258789" y="0" type="line"/>
      <point x="682.0250015258789" y="0" type="line"/>
      <point x="682.0250015258789" y="800" type="line"/>
      <point x="502.0250015258789" y="800" type="line"/>
    </contour>
    <contour>
      <point x="909.525" y="800.0" type="line"/>
      <point x="729.525" y="800.0" type="line"/>
      <point x="729.525" y="731.24612" type="line"/>
      <point x="840.77112" y="620.0" type="line"/>
      <point x="909.525" y="620.0" type="line"/>
    </contour>
    <contour>
      <point x="909.525" y="500.0" type="line"/>
      <point x="729.525" y="500.0" type="line"/>
      <point x="729.525" y="431.24612" type="line"/>
      <point x="840.77112" y="320.0" type="line"/>
      <point x="909.525" y="320.0" type="line"/>
    </contour>
    <contour>
      <point x="909.525" y="0.0" type="line"/>
      <point x="909.525" y="180.0" type="line"/>
      <point x="840.77112" y="180.0" type="line"/>
      <point x="729.525" y="68.75388" type="line"/>
      <point x="729.525" y="0.0" type="line"/>
    </contour>
  </outline>
</glyph>
<glyph name="A_with_gravedbl" format="2">
  <advance width="501.55"/>
  <unicode hex="0200"/>
  <outline>
    <contour>
      <point x="227.025" y="1016.1111111111111" type="line"/>
      <point x="47.025000000000006" y="1016.1111111111111" type="line"/>
      <point x="47.025000000000006" y="947.3572311111111" type="line"/>
      <point x="158.27112" y="836.1111111111111" type="line"/>
      <point x="227.025" y="836.1111111111111" type="line"/>
    </contour>
    <contour>
      <point x="454.525" y="1016.1111111111111" type="line"/>
      <point x="274.525" y="1016.1111111111111" type="line"/>
      <point x="274.525" y="947.3572311111111" type="line"/>
      <point x="385.77112" y="836.1111111111111" type="line"/>
      <point x="454.525" y="836.1111111111111" type="line"/>
    </contour>
    <contour>
      <point x="47.025001525878906" y="0" type="line"/>
      <point x="227.0250015258789" y="0" type="line"/>
      <point x="227.0250015258789" y="805" type="line"/>
      <point x="158.2711181640625" y="805" type="line"/>
      <point x="47.025001525878906" y="693.7538833618164" type="line"/>
    </contour>
    <contour>
      <point x="274.5250015258789" y="0" type="line"/>
      <point x="454.5250015258789" y="0" type="line"/>
      <point x="454.5250015258789" y="693.7538833618164" type="line"/>
      <point x="343.2788772583008" y="805" type="line"/>
      <point x="274.5250015258789" y="805" type="line"/>
    </contour>
  </outline>
</glyph>
<glyph name="e_with_gravedbl" format="2">
  <advance width="501.55"/>
  <unicode hex="0205"/>
  <outline>
    <contour>
      <point x="227.025" y="816.1111111111111" type="line"/>
      <point x="47.025000000000006" y="816.1111111111111" type="line"/>
      <point x="47.025000000000006" y="747.3572311111111" type="line"/>
      <point x="158.27112" y="636.1111111111111" type="line"/>
      <point x="227.025" y="636.1111111111111" type="line"/>
    </contour>
    <contour>
      <point x="454.525" y="816.1111111111111" type="line"/>
      <point x="274.525" y="816.1111111111111" type="line"/>
      <point x="274.525" y="747.3572311111111" type="line"/>
      <point x="385.77112" y="636.1111111111111" type="line"/>
      <point x="454.525" y="636.1111111111111" type="line"/>
    </contour>
    <contour>
      <point x="158.2711181640625" y="-5" type="line"/>
      <point x="227.0250015258789" y="-5" type="line"/>
      <point x="227.0250015258789" y="605" type="line"/>
      <point x="158.2711181640625" y="605" type="line"/>
      <point x="47.025001525878906" y="493.7538833618164" type="line"/>
      <point x="47.025001525878906" y="106.2461166381836" type="line"/>
    </contour>
    <contour>
      <point x="274.5250015258789" y="195" type="line"/>
      <point x="454.5250015258789" y="195" type="line"/>
      <point x="454.5250015258789" y="493.7538833618164" type="line"/>
      <point x="343.2788772583008" y="605" type="line"/>
      <point x="274.5250015258789" y="605" type="line"/>
    </contour>
  </outline>
</glyph>
<glyph name="I_with_gravedbl" format="2">
  <advance width="274.05"/>
  <unicode hex="0208"/>
  <outline>
    <contour>
      <point x="113.275" y="1016.1111111111111" type="line"/>
      <point x="-66.725" y="1016.1111111111111" type="line"/>
      <point x="-66.725" y="947.3572311111111" type="line"/>
      <point x="44.52112000000001" y="836.1111111111111" type="line"/>
      <point x="113.275" y="836.1111111111111" type="line"/>
    </contour>
    <contour>
      <point x="340.775" y="1016.1111111111111" type="line"/>
      <point x="160.775" y="1016.1111111111111" type="line"/>
      <point x="160.775" y="947.3572311111111" type="line"/>
      <point x="272.02112" y="836.1111111111111" type="line"/>
      <point x="340.775" y="836.1111111111111" type="line"/>
    </contour>
    <contour>
      <point x="47.025001525878906" y="0" type="line"/>
      <point x="227.0250015258789" y="0" type="line"/>
      <point x="227.0250015258789" y="800" type="line"/>
      <point x="47.025001525878906" y="800" type="line"/>
    </contour>
  </outline>
</glyph>
<glyph name="i_with_gravedbl" format="2">
  <advance width="274.05"/>
  <unicode hex="0209"/>
  <outline>
    <contour>
      <point x="113.275" y="816.1111111111111" type="line"/>
      <point x="-66.725" y="816.1111111111111" type="line"/>
      <point x="-66.725" y="747.3572311111111" type="line"/>
      <point x="44.52112000000001" y="636.1111111111111" type="line"/>
      <point x="113.275" y="636.1111111111111" type="line"/>
    </contour>
    <contour>
      <point x="340.775" y="816.1111111111111" type="line"/>
      <point x="160.775" y="816.1111111111111" type="line"/>
      <point x="160.775" y="747.3572311111111" type="line"/>
      <point x="272.02112" y="636.1111111111111" type="line"/>
      <point x="340.775" y="636.1111111111111" type="line"/>
    </contour>
    <contour>
      <point x="47.025001525878906" y="0" type="line"/>
      <point x="227.0250015258789" y="0" type="line"/>
      <point x="227.0250015258789" y="600" type="line"/>
      <point x="47.025001525878906" y="600" type="line"/>
    </contour>
  </outline>
</glyph>
<glyph name="o_with_breveinv" format="2">
  <advance width="501.55"/>
  <unicode hex="020F"/>
  <outline>
    <contour>
      <point x="70.7750015258789" y="704.864990234375" type="line"/>
      <point x="70.7750015258789" y="636.1111145019531" type="line"/>
      <point x="430.7750015258789" y="636.1111145019531" type="line"/>
      <point x="430.7750015258789" y="704.864990234375" type="line"/>
      <point x="319.5288772583008" y="816.1111145019531" type="line"/>
      <point x="182.0211181640625" y="816.1111145019531" type="line"/>
    </contour>
    <contour>
      <point x="158.2711181640625" y="-5" type="line"/>
      <point x="227.0250015258789" y="-5" type="line"/>
      <point x="227.0250015258789" y="605" type="line"/>
      <point x="158.2711181640625" y="605" type="line"/>
      <point x="47.025001525878906" y="493.7538833618164" type="line"/>
      <point x="47.025001525878906" y="106.2461166381836" type="line"/>
    </contour>
    <contour>
      <point x="343.2788772583008" y="-5" type="line"/>
      <point x="454.5250015258789" y="106.2461166381836" type="line"/>
      <point x="454.5250015258789" y="493.7538833618164" type="line"/>
      <point x="343.2788772583008" y="605" type="line"/>
      <point x="274.5250015258789" y="605" type="line"/>
      <point x="274.5250015258789" y="-5" type="line"/>
    </contour>
  </outline>
</glyph>
<glyph name="r_with_gravedbl" format="2">
  <advance width="501.55"/>
  <unicode hex="0211"/>
  <outline>
    <contour>
      <point x="227.025" y="816.1111111111111" type="line"/>
      <point x="47.025000000000006" y="816.1111111111111" type="line"/>
      <point x="47.025000000000006" y="747.3572311111111" type="line"/>
      <point x="158.27112" y="636.1111111111111" type="line"/>
      <point x="227.025" y="636.1111111111111" type="line"/>
    </contour>
    <contour>
      <point x="454.525" y="816.1111111111111" type="line"/>
      <point x="274.525" y="816.1111111111111" type="line"/>
      <point x="274.525" y="747.3572311111111" type="line"/>
      <point x="385.77112" y="636.1111111111111" type="line"/>
      <point x="454.525" y="636.1111111111111" type="line"/>
    </contour>
    <contour>
      <point x="47.025001525878906" y="0" type="line"/>
      <point x="227.0250015258789" y="0" type="line"/>
      <point x="227.0250015258789" y="600" type="line"/>
      <point x="47.025001525878906" y="600" type="line"/>
    </contour>
    <contour>
      <point x="454.525" y="600.0" type="line"/>
      <point x="274.525" y="600.0" type="line"/>
      <point x="274.525" y="531.24612" type="line"/>
      <point x="385.77112" y="420.0" type="line"/>
      <point x="454.525" y="420.0" type="line"/>
    </contour>
  </outline>
</glyph>
<glyph name="R_with_breveinv" format="2">
  <advance width="501.55"/>
  <unicode hex="0212"/>
  <outline>
    <contour>
      <point x="70.7750015258789" y="904.864990234375" type="line"/>
      <point x="70.7750015258789" y="836.1111145019531" type="line"/>
      <point x="430.7750015258789" y="836.1111145019531" type="line"/>
      <point x="430.7750015258789" y="904.864990234375" type="line"/>
      <point x="319.5288772583008" y="1016.1111145019531" type="line"/>
      <point x="182.0211181640625" y="1016.1111145019531" type="line"/>
    </contour>
    <contour>
      <point x="47.025001525878906" y="0" type="line"/>
      <point x="227.0250015258789" y="0" type="line"/>
      <point x="227.0250015258789" y="800" type="line"/>
      <point x="47.025001525878906" y="800" type="line"/>
    </contour>
    <contour>
      <point x="274.5250015258789" y="0" type="line"/>
      <point x="454.5250015258789" y="0" type="line"/>
      <point x="454.5250015258789" y="88.7538833618164" type="line"/>
      <point x="343.2788772583008" y="200" type="line"/>
      <point x="454.5250015258789" y="311.2461166381836" type="line"/>
      <point x="454.5250015258789" y="688.7538833618164" type="line"/>
      <point x="343.2788772583008" y="800" type="line"/>
      <point x="274.5250015258789" y="800" type="line"/>
    </contour>
  </outline>
</glyph>
<glyph name="r_with_breveinv" format="2">
  <advance width="501.55"/>
  <unicode hex="0213"/>
  <outline>
    <contour>
      <point x="70.7750015258789" y="704.864990234375" type="line"/>
      <point x="70.7750015258789" y="636.1111145019531" type="line"/>
      <point x="430.7750015258789" y="636.1111145019531" type="line"/>
      <point x="430.7750015258789" y="704.864990234375" type="line"/>
      <point x="319.5288772583008" y="816.1111145019531" type="line"/>
      <point x="182.0211181640625" y="816.1111145019531" type="line"/>
    </contour>
    <contour>
      <point x="47.025001525878906" y="0" type="line"/>
      <point x="227.0250015258789" y="0" type="line"/>
      <point x="227.0250015258789" y="600" type="line"/>
      <point x="47.025001525878906" y="600" type="line"/>
    </contour>
    <contour>
      <point x="454.525" y="600.0" type="line"/>
      <point x="274.525" y="600.0" type="line"/>
      <point x="274.525" y="531.24612" type="line"/>
      <point x="385.77112" y="420.0" type="line"/>
      <point x="454.525" y="420.0" type="line"/>
    </contour>
  </outline>
</glyph>
<glyph name="S_with_commabelow" format="2">
  <advance width="501.55"/>
  <unicode hex="0218"/>
  <outline>
    <contour>
      <point x="158.2711181640625" y="310" type="line"/>
      <point x="227.0250015258789" y="310" type="line"/>
      <point x="227.0250015258789" y="800" type="line"/>
      <point x="158.2711181640625" y="800" type="line"/>
      <point x="47.025001525878906" y="688.7538833618164" type="line"/>
      <point x="47.025001525878906" y="421.2461166381836" type="line"/>
    </contour>
    <contour>
      <point x="448.9" y="800.0" type="line"/>
      <point x="268.9" y="800.0" type="line"/>
      <point x="268.9" y="731.24612" type="line"/>
      <point x="380.14612" y="620.0" type="line"/>
      <point x="448.9" y="620.0" type="line"/>
    </contour>
    <contour>
      <point x="343.2788772583008" y="0" type="line"/>
      <point x="454.5250015258789" y="111.2461166381836" type="line"/>
      <point x="454.5250015258789" y="378.7538833618164" type="line"/>
      <point x="343.2788772583008" y="490" type="line"/>
      <point x="274.5250015258789" y="490" type="line"/>
      <point x="274.5250015258789" y="0" type="line"/>
    </contour>
    <contour>
      <point x="49.8375" y="0" type="line"/>
      <point x="229.8375" y="0" type="line"/>
      <point x="229.8375" y="68.75388" type="line"/>
      <point x="118.59137999999999" y="180.0" type="line"/>
      <point x="49.8375" y="180.0" type="line"/>
    </contour>
    <contour>
      <point x="160.775" y="-35.0" type="line"/>
      <point x="160.775" y="-215.0" type="line"/>
      <point x="229.52888000000002" y="-215.0" type="line"/>
      <point x="340.775" y="-103.75388" type="line"/>
      <point x="340.775" y="-35.0" type="line"/>
    </contour>
  </outline>
</glyph>
<glyph name="T_with_commabelow" format="2">
  <advance width="729.05"/>
  <unicode hex="021A"/>
  <outline>
    <contour>
      <point x="47.025" y="800.0" type="line"/>
      <point x="47.025" y="620.0" type="line"/>
      <point x="115.77887999999999" y="620.0" type="line"/>
      <point x="227.025" y="731.24612" type="line"/>
      <point x="227.025" y="800.0" type="line"/>
    </contour>
    <contour>
      <point x="274.5250015258789" y="0" type="line"/>
      <point x="454.5250015258789" y="0" type="line"/>
      <point x="454.5250015258789" y="800" type="line"/>
      <point x="274.5250015258789" y="800" type="line"/>
    </contour>
    <contour>
      <point x="682.025" y="800.0" type="line"/>
      <point x="502.025" y="800.0" type="line"/>
      <point x="502.025" y="731.24612" type="line"/>
      <point x="613.27112" y="620.0" type="line"/>
      <point x="682.025" y="620.0" type="line"/>
    </contour>
    <contour>
      <point x="274.525" y="-35.0" type="line"/>
      <point x="274.525" y="-215.0" type="line"/>
      <point x="343.27887999999996" y="-215.0" type="line"/>
      <point x="454.525" y="-103.75388" type="line"/>
      <point x="454.525" y="-35.0" type="line"/>
    </contour>
  </outline>
</glyph>
<glyph name="t_with_commabelow" format="2">
  <advance width="501.55"/>
  <unicode hex="021B"/>
  <outline>
    <contour>
      <point x="47.025001525878906" y="0" type="line"/>
      <point x="227.0250015258789" y="0" type="line"/>
      <point x="227.0250015258789" y="800" type="line"/>
      <point x="158.2711181640625" y="800" type="line"/>
      <point x="47.025001525878906" y="688.7538833618164" type="line"/>
    </contour>
    <contour>
      <point x="274.525" y="600.0" type="line"/>
      <point x="274.525" y="420.0" type="line"/>
      <point x="343.27887999999996" y="420.0" type="line"/>
      <point x="454.525" y="531.24612" type="line"/>
      <point x="454.525" y="600.0" type="line"/>
    </contour>
    <contour>
      <point x="160.775" y="-35.0" type="line"/>
      <point x="160.775" y="-215.0" type="line"/>
      <point x="229.52888000000002" y="-215.0" type="line"/>
      <point x="340.775" y="-103.75388" type="line"/>
      <point x="340.775" y="-35.0" type="line"/>
    </contour>
  </outline>
</glyph>
<glyph name="j_dotless" format="2">
  <advance width="501.55"/>
  <unicode hex="0237"/>
  <outline>
    <contour>
      <point x="343.2788772583008" y="-210" type="line"/>
      <point x="454.5250015258789" y="-98.7538833618164" type="line"/>
      <point x="454.5250015258789" y="600" type="line"/>
      <point x="274.5250015258789" y="600" type="line"/>
      <point x="274.5250015258789" y="-210" type="line"/>
    </contour>
    <contour>
      <point x="232.65" y="-30.0" type="line"/>
      <point x="52.65" y="-30.0" type="line"/>
      <point x="52.65" y="-98.75388" type="line"/>
      <point x="163.89612" y="-210.0" type="line"/>
      <point x="232.65" y="-210.0" type="line"/>
    </contour>
  </outline>
</glyph>
<glyph name="turnedcomma" format="2">
  <advance width="274.05"/>
  <unicode hex="02BB"/>
  <outline>
    <contour>
      <point x="47.025001525878906" y="520" type="line"/>
      <point x="227.0250015258789" y="520" type="line"/>
      <point x="227.0250015258789" y="800" type="line"/>
      <point x="158.2711181640625" y="800" type="line"/>
      <point x="47.025001525878906" y="688.7538833618164" type="line"/>
    </contour>
  </outline>
</glyph>
<glyph name="apostrophe" format="2">
  <advance width="274.05"/>
  <unicode hex="02BC"/>
  <outline>
    <contour>
      <point x="115.77887725830078" y="600" type="line"/>
      <point x="227.0250015258789" y="711.2461166381836" type="line"/>
      <point x="227.0250015258789" y="800" type="line"/>
      <point x="47.025001525878906" y="800" type="line"/>
      <point x="47.025001525878906" y="600" type="line"/>
    </contour>
  </outline>
</glyph>
<glyph name="circumflex" format="2">
  <advance width="501.55"/>
  <unicode hex="02C6"/>
  <outline>
    <contour>
      <point x="65.15" y="980.0" type="line"/>
      <point x="65.15" y="800.0" type="line"/>
      <point x="133.90388" y="800.0" type="line"/>
      <point x="245.15" y="911.24612" type="line"/>
      <point x="245.15" y="980.0" type="line"/>
    </contour>
    <contour>
      <point x="436.4" y="980.0" type="line"/>
      <point x="256.4" y="980.0" type="line"/>
      <point x="256.4" y="911.24612" type="line"/>
      <point x="367.64612" y="800.0" type="line"/>
      <point x="436.4" y="800.0" type="line"/>
    </contour>
  </outline>
</glyph>
<glyph name="caron" format="2">
  <advance width="501.55"/>
  <unicode hex="02C7"/>
  <outline>
    <contour>
      <point x="65.15" y="800" type="line"/>
      <point x="245.15" y="800" type="line"/>
      <point x="245.15" y="868.75388" type="line"/>
      <point x="133.90388" y="980.0" type="line"/>
      <point x="65.15" y="980.0" type="line"/>
    </contour>
    <contour>
      <point x="436.4" y="800.0" type="line"/>
      <point x="436.4" y="980.0" type="line"/>
      <point x="367.64612" y="980.0" type="line"/>
      <point x="256.4" y="868.75388" type="line"/>
      <point x="256.4" y="800.0" type="line"/>
    </contour>
  </outline>
</glyph>
<glyph name="dotabove" format="2">
  <advance width="274.05"/>
  <unicode hex="02D9"/>
  <outline>
    <contour>
      <point x="47.025" y="820.0" type="line"/>
      <point x="227.025" y="820.0" type="line"/>
      <point x="227.025" y="1000.0" type="line"/>
      <point x="47.025" y="1000.0" type="line"/>
    </contour>
  </outline>
</glyph>
<glyph name="ring" format="2">
  <advance width="501.55"/>
  <unicode hex="02DA"/>
  <outline>
    <contour>
      <point x="227.025" y="985.0" type="line"/>
      <point x="190.73823000000002" y="985.0" type="line"/>
      <point x="132.025" y="926.28677" type="line"/>
      <point x="132.025" y="853.71323" type="line"/>
      <point x="190.73823000000002" y="795.0" type="line"/>
      <point x="227.025" y="795.0" type="line"/>
    </contour>
    <contour>
      <point x="274.525" y="795.0" type="line"/>
      <point x="310.81176999999997" y="795.0" type="line"/>
      <point x="369.525" y="853.71323" type="line"/>
      <point x="369.525" y="926.28677" type="line"/>
      <point x="310.81176999999997" y="985.0" type="line"/>
      <point x="274.525" y="985.0" type="line"/>
    </contour>
  </outline>
</glyph>
<glyph name="ogonek" format="2">
  <advance width="274.05"/>
  <unicode hex="02DB"/>
  <outline>
    <contour>
      <point x="137.025" y="-180.0" type="line"/>
      <point x="137.025" y="0.0" type="line"/>
      <point x="68.27112" y="0.0" type="line"/>
      <point x="-42.975" y="-111.24612" type="line"/>
      <point x="-42.975" y="-180.0" type="line"/>
    </contour>
  </outline>
</glyph>
<glyph name="smalltilde" format="2">
  <advance width="501.55"/>
  <unicode hex="02DC"/>
  <outline>
    <contour>
      <point x="70.7750015258789" y="868.7538833618164" type="line"/>
      <point x="70.7750015258789" y="800" type="line"/>
      <point x="319.5288772583008" y="800" type="line"/>
      <point x="430.7750015258789" y="911.2461166381836" type="line"/>
      <point x="430.7750015258789" y="980" type="line"/>
      <point x="182.0211181640625" y="980" type="line"/>
    </contour>
  </outline>
</glyph>
<glyph name="acutedbl" format="2">
  <advance width="501.55"/>
  <unicode hex="02DD"/>
  <outline>
    <contour>
      <point x="47.025" y="980.0" type="line"/>
      <point x="47.025" y="800.0" type="line"/>
      <point x="115.77887999999999" y="800.0" type="line"/>
      <point x="227.025" y="911.24612" type="line"/>
      <point x="227.025" y="980.0" type="line"/>
    </contour>
    <contour>
      <point x="274.525" y="980.0" type="line"/>
      <point x="274.525" y="800.0" type="line"/>
      <point x="343.27887999999996" y="800.0" type="line"/>
      <point x="454.525" y="911.24612" type="line"/>
      <point x="454.525" y="980.0" type="line"/>
    </contour>
  </outline>
</glyph>
<glyph name="combining_grave" format="2">
  <advance width="274.05"/>
  <unicode hex="0300"/>
  <outline>
    <contour>
      <point x="-353.27500000000003" y="816.11111" type="line"/>
      <point x="-533.275" y="816.11111" type="line"/>
      <point x="-533.275" y="747.35723" type="line"/>
      <point x="-422.02888" y="636.11111" type="line"/>
      <point x="-353.27500000000003" y="636.11111" type="line"/>
    </contour>
  </outline>
</glyph>
<glyph name="combining_acute" format="2">
  <advance width="274.05"/>
  <unicode hex="0301"/>
  <outline>
    <contour>
      <point x="-375.77500000000003" y="816.11111" type="line"/>
      <point x="-375.77500000000003" y="636.11111" type="line"/>
      <point x="-307.02112" y="636.11111" type="line"/>
      <point x="-195.775" y="747.35723" type="line"/>
      <point x="-195.775" y="816.11111" type="line"/>
    </contour>
  </outline>
</glyph>
<glyph name="combining_circumflex" format="2">
  <advance width="501.55"/>
  <unicode hex="0302"/>
  <outline>
    <contour>
      <point x="-436.40000000000003" y="816.11111" type="line"/>
      <point x="-436.40000000000003" y="636.11111" type="line"/>
      <point x="-367.64612" y="636.11111" type="line"/>
      <point x="-256.40000000000003" y="747.35723" type="line"/>
      <point x="-256.40000000000003" y="816.11111" type="line"/>
    </contour>
    <contour>
      <point x="-65.15" y="816.11111" type="line"/>
      <point x="-245.15" y="816.11111" type="line"/>
      <point x="-245.15" y="747.35723" type="line"/>
      <point x="-133.90388" y="636.11111" type="line"/>
      <point x="-65.15" y="636.11111" type="line"/>
    </contour>
  </outline>
</glyph>
<glyph name="combining_macron" format="2">
  <advance width="501.55"/>
  <unicode hex="0304"/>
  <outline>
    <contour>
      <point x="-430.7750015258789" y="636.1111068725586" type="line"/>
      <point x="-70.7750015258789" y="636.1111068725586" type="line"/>
      <point x="-70.7750015258789" y="816.1111068725586" type="line"/>
      <point x="-430.7750015258789" y="816.1111068725586" type="line"/>
    </contour>
  </outline>
</glyph>
<glyph name="combining_breve" format="2">
  <advance width="501.55"/>
  <unicode hex="0306"/>
  <outline>
    <contour>
      <point x="-430.7750015258789" y="747.3572311401367" type="line"/>
      <point x="-319.5288772583008" y="636.1111068725586" type="line"/>
      <point x="-182.0211181640625" y="636.1111068725586" type="line"/>
      <point x="-70.7750015258789" y="747.3572311401367" type="line"/>
      <point x="-70.7750015258789" y="816.1111068725586" type="line"/>
      <point x="-430.7750015258789" y="816.1111068725586" type="line"/>
    </contour>
  </outline>
</glyph>
<glyph name="combining_diaeresis" format="2">
  <advance width="501.55"/>
  <unicode hex="0308"/>
  <outline>
    <contour>
      <point x="-454.52500000000003" y="656.11111" type="line"/>
      <point x="-274.52500000000003" y="656.11111" type="line"/>
      <point x="-274.52500000000003" y="836.11111" type="line"/>
      <point x="-454.52500000000003" y="836.11111" type="line"/>
    </contour>
    <contour>
      <point x="-227.025" y="656.11111" type="line"/>
      <point x="-47.025" y="656.11111" type="line"/>
      <point x="-47.025" y="836.11111" type="line"/>
      <point x="-227.025" y="836.11111" type="line"/>
    </contour>
  </outline>
</glyph>
<glyph name="combining_hook" format="2">
  <advance width="274.05"/>
  <unicode hex="0309"/>
  <outline>
    <contour>
      <point x="-375.77500000000003" y="636.11111" type="line"/>
      <point x="-195.775" y="636.11111" type="line"/>
      <point x="-195.775" y="704.86499" type="line"/>
      <point x="-307.02112" y="816.11111" type="line"/>
      <point x="-375.77500000000003" y="816.11111" type="line"/>
    </contour>
  </outline>
</glyph>
<glyph name="combining_ring" format="2">
  <advance width="501.55"/>
  <unicode hex="030A"/>
  <outline>
    <contour>
      <point x="-274.52500000000003" y="821.11111" type="line"/>
      <point x="-310.81177" y="821.11111" type="line"/>
      <point x="-369.52500000000003" y="762.39788" type="line"/>
      <point x="-369.52500000000003" y="689.82434" type="line"/>
      <point x="-310.81177" y="631.11111" type="line"/>
      <point x="-274.52500000000003" y="631.11111" type="line"/>
    </contour>
    <contour>
      <point x="-227.025" y="631.11111" type="line"/>
      <point x="-190.73823" y="631.11111" type="line"/>
      <point x="-132.025" y="689.82434" type="line"/>
      <point x="-132.025" y="762.39788" type="line"/>
      <point x="-190.73823" y="821.11111" type="line"/>
      <point x="-227.025" y="821.11111" type="line"/>
    </contour>
  </outline>
</glyph>
<glyph name="combining_acutedbl" format="2">
  <advance width="501.55"/>
  <unicode hex="030B"/>
  <outline>
    <contour>
      <point x="-454.52500000000003" y="816.11111" type="line"/>
      <point x="-454.52500000000003" y="636.11111" type="line"/>
      <point x="-385.77112" y="636.11111" type="line"/>
      <point x="-274.52500000000003" y="747.35723" type="line"/>
      <point x="-274.52500000000003" y="816.11111" type="line"/>
    </contour>
    <contour>
      <point x="-227.025" y="816.11111" type="line"/>
      <point x="-227.025" y="636.11111" type="line"/>
      <point x="-158.27112" y="636.11111" type="line"/>
      <point x="-47.025" y="747.35723" type="line"/>
      <point x="-47.025" y="816.11111" type="line"/>
    </contour>
  </outline>
</glyph>
<glyph name="combining_gravedbl" format="2">
  <advance width="501.55"/>
  <unicode hex="030F"/>
  <outline>
    <contour>
      <point x="-274.52500000000003" y="816.11111" type="line"/>
      <point x="-454.52500000000003" y="816.11111" type="line"/>
      <point x="-454.52500000000003" y="747.35723" type="line"/>
      <point x="-343.27888" y="636.11111" type="line"/>
      <point x="-274.52500000000003" y="636.11111" type="line"/>
    </contour>
    <contour>
      <point x="-47.025" y="816.11111" type="line"/>
      <point x="-227.025" y="816.11111" type="line"/>
      <point x="-227.025" y="747.35723" type="line"/>
      <point x="-115.77887999999999" y="636.11111" type="line"/>
      <point x="-47.025" y="636.11111" type="line"/>
    </contour>
  </outline>
</glyph>
<glyph name="combining_dotbelow" format="2">
  <advance width="274.05"/>
  <unicode hex="0323"/>
  <outline>
    <contour>
      <point x="-454.52500000000003" y="-190.0" type="line"/>
      <point x="-274.52500000000003" y="-190.0" type="line"/>
      <point x="-274.52500000000003" y="-10.0" type="line"/>
      <point x="-454.52500000000003" y="-10.0" type="line"/>
    </contour>
  </outline>
</glyph>
<glyph name="combining_commabelow" format="2">
  <advance width="274.05"/>
  <unicode hex="0326"/>
  <outline>
    <contour>
      <point x="-454.52500000000003" y="-10.0" type="line"/>
      <point x="-454.52500000000003" y="-190.0" type="line"/>
      <point x="-385.77112" y="-190.0" type="line"/>
      <point x="-274.52500000000003" y="-78.75388" type="line"/>
      <point x="-274.52500000000003" y="-10.0" type="line"/>
    </contour>
  </outline>
</glyph>
<glyph name="combining_cedilla" format="2">
  <advance width="274.05"/>
  <unicode hex="0327"/>
  <outline>
    <contour>
      <point x="-375.77500000000003" y="-180.0" type="line"/>
      <point x="-195.775" y="-180.0" type="line"/>
      <point x="-195.775" y="-111.24612" type="line"/>
      <point x="-307.02112" y="0.0" type="line"/>
      <point x="-375.77500000000003" y="0.0" type="line"/>
    </contour>
  </outline>
</glyph>
<glyph name="PI" format="2">
  <advance width="596.55"/>
  <unicode hex="03A0"/>
  <outline>
    <contour>
      <point x="47.025001525878906" y="620" type="line"/>
      <point x="549.5250015258789" y="620" type="line"/>
      <point x="549.5250015258789" y="800" type="line"/>
      <point x="47.025001525878906" y="800" type="line"/>
    </contour>
    <contour>
      <point x="94.5250015258789" y="0" type="line"/>
      <point x="274.5250015258789" y="0" type="line"/>
      <point x="274.5250015258789" y="584.1666717529297" type="line"/>
      <point x="94.5250015258789" y="584.1666717529297" type="line"/>
    </contour>
    <contour>
      <point x="322.0250015258789" y="0" type="line"/>
      <point x="502.0250015258789" y="0" type="line"/>
      <point x="502.0250015258789" y="584.1666717529297" type="line"/>
      <point x="322.0250015258789" y="584.1666717529297" type="line"/>
    </contour>
  </outline>
</glyph>
<glyph name="SIGMA" format="2">
  <advance width="501.55"/>
  <unicode hex="03A3"/>
  <outline>
    <contour>
      <point x="47.025001525878906" y="0" type="line"/>
      <point x="227.0250015258789" y="0" type="line"/>
      <point x="227.0250015258789" y="800" type="line"/>
      <point x="47.025001525878906" y="800" type="line"/>
      <point x="47.025001525878906" y="511.2461166381836" type="line"/>
      <point x="158.2711181640625" y="400" type="line"/>
      <point x="47.025001525878906" y="288.7538833618164" type="line"/>
    </contour>
    <contour>
      <point x="454.525" y="800.0" type="line"/>
      <point x="274.525" y="800.0" type="line"/>
      <point x="274.525" y="731.24612" type="line"/>
      <point x="385.77112" y="620.0" type="line"/>
      <point x="454.525" y="620.0" type="line"/>
    </contour>
    <contour>
      <point x="454.525" y="0.0" type="line"/>
      <point x="454.525" y="180.0" type="line"/>
      <point x="385.77112" y="180.0" type="line"/>
      <point x="274.525" y="68.75388" type="line"/>
      <point x="274.525" y="0.0" type="line"/>
    </contour>
  </outline>
</glyph>
<glyph name="pi" format="2">
  <advance width="704.05"/>
  <unicode hex="03C0"/>
  <outline>
    <contour>
      <point x="47.025001525878906" y="488.7538833618164" type="line"/>
      <point x="47.025001525878906" y="420" type="line"/>
      <point x="545.7788772583008" y="420" type="line"/>
      <point x="657.0250015258789" y="531.2461166381836" type="line"/>
      <point x="657.0250015258789" y="600" type="line"/>
      <point x="158.2711181640625" y="600" type="line"/>
    </contour>
    <contour>
      <point x="137.0250015258789" y="0" type="line"/>
      <point x="317.0250015258789" y="0" type="line"/>
      <point x="317.0250015258789" y="384.1666717529297" type="line"/>
      <point x="137.0250015258789" y="384.1666717529297" type="line"/>
    </contour>
    <contour>
      <point x="475.7711181640625" y="0" type="line"/>
      <point x="592.0250015258789" y="0" type="line"/>
      <point x="592.0250015258789" y="180" type="line"/>
      <point x="544.5250015258789" y="180" type="line"/>
      <point x="544.5250015258789" y="384.1666717529297" type="line"/>
      <point x="364.5250015258789" y="384.1666717529297" type="line"/>
      <point x="364.5250015258789" y="111.2461166381836" type="line"/>
    </contour>
  </outline>
</glyph>
<glyph name="sigma" format="2">
  <advance width="549.05"/>
  <unicode hex="03C3"/>
  <outline>
    <contour>
      <point x="158.2711181640625" y="-5" type="line"/>
      <point x="227.0250015258789" y="-5" type="line"/>
      <point x="227.0250015258789" y="600" type="line"/>
      <point x="158.2711181640625" y="600" type="line"/>
      <point x="47.025001525878906" y="488.7538833618164" type="line"/>
      <point x="47.025001525878906" y="106.2461166381836" type="line"/>
    </contour>
    <contour>
      <point x="454.5250015258789" y="420" type="line"/>
      <point x="502.0250015258789" y="420" type="line"/>
      <point x="502.0250015258789" y="600" type="line"/>
      <point x="274.5250015258789" y="600" type="line"/>
      <point x="274.5250015258789" y="-5" type="line"/>
      <point x="343.2788772583008" y="-5" type="line"/>
      <point x="454.5250015258789" y="106.2461166381836" type="line"/>
    </contour>
  </outline>
</glyph>
<glyph name="u_with_diaeresisbelow" format="2">
  <advance width="501.55"/>
  <unicode hex="1E73"/>
  <outline>
    <contour>
      <point x="158.2711181640625" y="-5" type="line"/>
      <point x="227.0250015258789" y="-5" type="line"/>
      <point x="227.0250015258789" y="600" type="line"/>
      <point x="47.025001525878906" y="600" type="line"/>
      <point x="47.025001525878906" y="106.2461166381836" type="line"/>
    </contour>
    <contour>
      <point x="343.2788772583008" y="-5" type="line"/>
      <point x="454.5250015258789" y="106.2461166381836" type="line"/>
      <point x="454.5250015258789" y="600" type="line"/>
      <point x="274.5250015258789" y="600" type="line"/>
      <point x="274.5250015258789" y="-5" type="line"/>
    </contour>
    <contour>
      <point x="47.025000000000006" y="-220.0" type="line"/>
      <point x="227.025" y="-220.0" type="line"/>
      <point x="227.025" y="-40.0" type="line"/>
      <point x="47.025000000000006" y="-40.0" type="line"/>
    </contour>
    <contour>
      <point x="274.525" y="-220.0" type="line"/>
      <point x="454.525" y="-220.0" type="line"/>
      <point x="454.525" y="-40.0" type="line"/>
      <point x="274.525" y="-40.0" type="line"/>
    </contour>
  </outline>
</glyph>
<glyph name="w_with_grave" format="2">
  <advance width="729.05"/>
  <unicode hex="1E81"/>
  <outline>
    <contour>
      <point x="375.775" y="816.1111111111111" type="line"/>
      <point x="195.77499999999998" y="816.1111111111111" type="line"/>
      <point x="195.77499999999998" y="747.3572311111111" type="line"/>
      <point x="307.02112" y="636.1111111111111" type="line"/>
      <point x="375.775" y="636.1111111111111" type="line"/>
    </contour>
    <contour>
      <point x="158.2711181640625" y="0" type="line"/>
      <point x="227.0250015258789" y="0" type="line"/>
      <point x="227.0250015258789" y="488.7538833618164" type="line"/>
      <point x="115.77887725830078" y="600" type="line"/>
      <point x="47.025001525878906" y="600" type="line"/>
      <point x="47.025001525878906" y="111.2461166381836" type="line"/>
    </contour>
    <contour>
      <point x="274.5250015258789" y="0" type="line"/>
      <point x="454.5250015258789" y="0" type="line"/>
      <point x="454.5250015258789" y="488.7538833618164" type="line"/>
      <point x="343.2788772583008" y="600" type="line"/>
      <point x="274.5250015258789" y="600" type="line"/>
    </contour>
    <contour>
      <point x="570.7788772583008" y="0" type="line"/>
      <point x="682.0250015258789" y="111.2461166381836" type="line"/>
      <point x="682.0250015258789" y="600" type="line"/>
      <point x="502.0250015258789" y="600" type="line"/>
      <point x="502.0250015258789" y="0" type="line"/>
    </contour>
  </outline>
</glyph>
<glyph name="W_with_diaeresis" format="2">
  <advance width="729.05"/>
  <unicode hex="1E84"/>
  <outline>
    <contour>
      <point x="160.77499999999998" y="856.1111111111111" type="line"/>
      <point x="340.775" y="856.1111111111111" type="line"/>
      <point x="340.775" y="1036.111111111111" type="line"/>
      <point x="160.77499999999998" y="1036.111111111111" type="line"/>
    </contour>
    <contour>
      <point x="388.275" y="856.1111111111111" type="line"/>
      <point x="568.275" y="856.1111111111111" type="line"/>
      <point x="568.275" y="1036.111111111111" type="line"/>
      <point x="388.275" y="1036.111111111111" type="line"/>
    </contour>
    <contour>
      <point x="158.2711181640625" y="0" type="line"/>
      <point x="227.0250015258789" y="0" type="line"/>
      <point x="227.0250015258789" y="688.7538833618164" type="line"/>
      <point x="115.77887725830078" y="800" type="line"/>
      <point x="47.025001525878906" y="800" type="line"/>
      <point x="47.025001525878906" y="111.2461166381836" type="line"/>
    </contour>
    <contour>
      <point x="274.5250015258789" y="0" type="line"/>
      <point x="454.5250015258789" y="0" type="line"/>
      <point x="454.5250015258789" y="688.7538833618164" type="line"/>
      <point x="343.2788772583008" y="800" type="line"/>
      <point x="274.5250015258789" y="800" type="line"/>
    </contour>
    <contour>
      <point x="570.7788772583008" y="0" type="line"/>
      <point x="682.0250015258789" y="111.2461166381836" type="line"/>
      <point x="682.0250015258789" y="800" type="line"/>
      <point x="502.0250015258789" y="800" type="line"/>
      <point x="502.0250015258789" y="0" type="line"/>
    </contour>
  </outline>
</glyph>
<glyph name="a_with_hook" format="2">
  <advance width="501.55"/>
  <unicode hex="1EA3"/>
  <outline>
    <contour>
      <point x="239.525" y="636.1111111111111" type="line"/>
      <point x="419.525" y="636.1111111111111" type="line"/>
      <point x="419.525" y="704.8649911111111" type="line"/>
      <point x="308.27888" y="816.1111111111111" type="line"/>
      <point x="239.525" y="816.1111111111111" type="line"/>
    </contour>
    <contour>
      <point x="47.025" y="600.0" type="line"/>
      <point x="47.025" y="420.0" type="line"/>
      <point x="115.77887999999999" y="420.0" type="line"/>
      <point x="227.025" y="531.24612" type="line"/>
      <point x="227.025" y="600.0" type="line"/>
    </contour>
    <contour>
      <point x="385.7711181640625" y="-5" type="line"/>
      <point x="454.5250015258789" y="-5" type="line"/>
      <point x="454.5250015258789" y="488.7538833618164" type="line"/>
      <point x="343.2788772583008" y="600" type="line"/>
      <point x="274.5250015258789" y="600" type="line"/>
      <point x="274.5250015258789" y="106.2461166381836" type="line"/>
    </contour>
    <contour>
      <point x="158.2711181640625" y="-5" type="line"/>
      <point x="227.0250015258789" y="-5" type="line"/>
      <point x="227.0250015258789" y="400" type="line"/>
      <point x="158.2711181640625" y="400" type="line"/>
      <point x="47.025001525878906" y="288.7538833618164" type="line"/>
      <point x="47.025001525878906" y="106.2461166381836" type="line"/>
    </contour>
  </outline>
</glyph>
<glyph name="e_with_dotbelow" format="2">
  <advance width="501.55"/>
  <unicode hex="1EB9"/>
  <outline>
    <contour>
      <point x="158.2711181640625" y="-5" type="line"/>
      <point x="227.0250015258789" y="-5" type="line"/>
      <point x="227.0250015258789" y="605" type="line"/>
      <point x="158.2711181640625" y="605" type="line"/>
      <point x="47.025001525878906" y="493.7538833618164" type="line"/>
      <point x="47.025001525878906" y="106.2461166381836" type="line"/>
    </contour>
    <contour>
      <point x="274.5250015258789" y="195" type="line"/>
      <point x="454.5250015258789" y="195" type="line"/>
      <point x="454.5250015258789" y="493.7538833618164" type="line"/>
      <point x="343.2788772583008" y="605" type="line"/>
      <point x="274.5250015258789" y="605" type="line"/>
    </contour>
    <contour>
      <point x="160.775" y="-220.0" type="line"/>
      <point x="340.775" y="-220.0" type="line"/>
      <point x="340.775" y="-40.0" type="line"/>
      <point x="160.775" y="-40.0" type="line"/>
    </contour>
  </outline>
</glyph>
<glyph name="E_with_smalltilde" format="2">
  <advance width="501.55"/>
  <unicode hex="1EBC"/>
  <outline>
    <contour>
      <point x="70.7750015258789" y="904.864990234375" type="line"/>
      <point x="70.7750015258789" y="836.1111145019531" type="line"/>
      <point x="319.5288772583008" y="836.1111145019531" type="line"/>
      <point x="430.7750015258789" y="947.3572311401367" type="line"/>
      <point x="430.7750015258789" y="1016.1111145019531" type="line"/>
      <point x="182.0211181640625" y="1016.1111145019531" type="line"/>
    </contour>
    <contour>
      <point x="47.025001525878906" y="0" type="line"/>
      <point x="227.0250015258789" y="0" type="line"/>
      <point x="227.0250015258789" y="800" type="line"/>
      <point x="47.025001525878906" y="800" type="line"/>
    </contour>
    <contour>
      <point x="454.525" y="800.0" type="line"/>
      <point x="274.525" y="800.0" type="line"/>
      <point x="274.525" y="731.24612" type="line"/>
      <point x="385.77112" y="620.0" type="line"/>
      <point x="454.525" y="620.0" type="line"/>
    </contour>
    <contour>
      <point x="454.525" y="490.0" type="line"/>
      <point x="274.525" y="490.0" type="line"/>
      <point x="274.525" y="421.24612" type="line"/>
      <point x="385.77112" y="310.0" type="line"/>
      <point x="454.525" y="310.0" type="line"/>
    </contour>
    <contour>
      <point x="454.525" y="0.0" type="line"/>
      <point x="454.525" y="180.0" type="line"/>
      <point x="385.77112" y="180.0" type="line"/>
      <point x="274.525" y="68.75388" type="line"/>
      <point x="274.525" y="0.0" type="line"/>
    </contour>
  </outline>
</glyph>
<glyph name="I_with_hook" format="2">
  <advance width="274.05"/>
  <unicode hex="1EC8"/>
  <outline>
    <contour>
      <point x="125.775" y="836.1111111111111" type="line"/>
      <point x="305.775" y="836.1111111111111" type="line"/>
      <point x="305.775" y="904.8649911111111" type="line"/>
      <point x="194.52888000000002" y="1016.1111111111111" type="line"/>
      <point x="125.775" y="1016.1111111111111" type="line"/>
    </contour>
    <contour>
      <point x="47.025001525878906" y="0" type="line"/>
      <point x="227.0250015258789" y="0" type="line"/>
      <point x="227.0250015258789" y="800" type="line"/>
      <point x="47.025001525878906" y="800" type="line"/>
    </contour>
  </outline>
</glyph>
<glyph name="i_with_hook" format="2">
  <advance width="274.05"/>
  <unicode hex="1EC9"/>
  <outline>
    <contour>
      <point x="125.775" y="636.1111111111111" type="line"/>
      <point x="305.775" y="636.1111111111111" type="line"/>
      <point x="305.775" y="704.8649911111111" type="line"/>
      <point x="194.52888000000002" y="816.1111111111111" type="line"/>
      <point x="125.775" y="816.1111111111111" type="line"/>
    </contour>
    <contour>
      <point x="47.025001525878906" y="0" type="line"/>
      <point x="227.0250015258789" y="0" type="line"/>
      <point x="227.0250015258789" y="600" type="line"/>
      <point x="47.025001525878906" y="600" type="line"/>
    </contour>
  </outline>
</glyph>
<glyph name="I_with_dotbelow" format="2">
  <advance width="274.05"/>
  <unicode hex="1ECA"/>
  <outline>
    <contour>
      <point x="47.025001525878906" y="0" type="line"/>
      <point x="227.0250015258789" y="0" type="line"/>
      <point x="227.0250015258789" y="800" type="line"/>
      <point x="47.025001525878906" y="800" type="line"/>
    </contour>
    <contour>
      <point x="47.025000000000006" y="-215.0" type="line"/>
      <point x="227.025" y="-215.0" type="line"/>
      <point x="227.025" y="-35.0" type="line"/>
      <point x="47.025000000000006" y="-35.0" type="line"/>
    </contour>
  </outline>
</glyph>
<glyph name="i_with_dotbelow" format="2">
  <advance width="274.05"/>
  <unicode hex="1ECB"/>
  <outline>
    <contour>
      <point x="47.025001525878906" y="0" type="line"/>
      <point x="227.0250015258789" y="0" type="line"/>
      <point x="227.0250015258789" y="600" type="line"/>
      <point x="47.025001525878906" y="600" type="line"/>
    </contour>
    <contour>
      <point x="47.025000000000006" y="-215.0" type="line"/>
      <point x="227.025" y="-215.0" type="line"/>
      <point x="227.025" y="-35.0" type="line"/>
      <point x="47.025000000000006" y="-35.0" type="line"/>
    </contour>
  </outline>
</glyph>
